<svg width="54" height="54" viewBox="0 0 54 54" fill="none" xmlns="http://www.w3.org/2000/svg">
<path opacity="0.5" d="M7.794 7.794C4.5 11.0925 4.5 16.3935 4.5 27C4.5 37.6065 4.5 42.9097 7.794 46.2038C11.0925 49.5 16.3935 49.5 27 49.5C37.6065 49.5 42.9097 49.5 46.2038 46.2038C49.5 42.912 49.5 37.6065 49.5 27C49.5 16.3935 49.5 11.0903 46.2038 7.794C42.912 4.5 37.6065 4.5 27 4.5C16.3935 4.5 11.0903 4.5 7.794 7.794Z" fill="#81B7FD"/>
<path opacity="0.2" d="M39.5003 37H14.5003C14.2815 36.9987 14.0669 36.94 13.8779 36.8297C13.689 36.7195 13.5322 36.5616 13.4234 36.3718C13.3146 36.1819 13.2575 35.9669 13.2578 35.7481C13.2581 35.5293 13.3159 35.3145 13.4253 35.125C14.455 33.3438 15.7503 30.0953 15.7503 24.5C15.7503 21.5163 16.9356 18.6548 19.0453 16.545C21.1551 14.4353 24.0166 13.25 27.0003 13.25C29.984 13.25 32.8455 14.4353 34.9552 16.545C37.065 18.6548 38.2503 21.5163 38.2503 24.5C38.2503 30.0969 39.5472 33.3438 40.5784 35.125C40.6879 35.3147 40.7457 35.5299 40.7459 35.7489C40.7461 35.9679 40.6887 36.1832 40.5795 36.3731C40.4703 36.563 40.3132 36.7209 40.1238 36.8309C39.9343 36.9409 39.7193 36.9992 39.5003 37Z" fill="#034AA6"/>
<path d="M41.9999 18.1095C41.7056 18.2619 41.3629 18.2912 41.0471 18.191C40.7312 18.0908 40.4681 17.8693 40.3155 17.5752C39.1224 15.2181 37.3164 13.2259 35.0874 11.808C34.9485 11.7204 34.8282 11.6062 34.7333 11.4721C34.6385 11.338 34.5711 11.1865 34.5348 11.0264C34.4985 10.8662 34.4942 10.7004 34.5219 10.5386C34.5497 10.3767 34.6091 10.2219 34.6967 10.083C34.7844 9.94405 34.8985 9.82376 35.0326 9.72895C35.1667 9.63414 35.3182 9.56667 35.4783 9.53039C35.6385 9.49412 35.8043 9.48975 35.9661 9.51754C36.128 9.54533 36.2828 9.60473 36.4217 9.69234C39.0196 11.3557 41.129 13.6792 42.5342 16.4252C42.6866 16.7194 42.7159 17.0621 42.6157 17.378C42.5155 17.6938 42.294 17.9569 41.9999 18.1095ZM12.5796 18.2502C12.8086 18.2501 13.0331 18.1871 13.2288 18.068C13.4244 17.949 13.5836 17.7785 13.6889 17.5752C14.8821 15.2181 16.688 13.2259 18.9171 11.808C19.056 11.7204 19.1763 11.6062 19.2711 11.4721C19.3659 11.338 19.4334 11.1865 19.4696 11.0264C19.5059 10.8662 19.5103 10.7004 19.4825 10.5386C19.4547 10.3767 19.3953 10.2219 19.3077 10.083C19.2201 9.94405 19.1059 9.82376 18.9718 9.72895C18.8377 9.63414 18.6863 9.56667 18.5261 9.53039C18.3659 9.49412 18.2001 9.48975 18.0383 9.51754C17.8764 9.54533 17.7216 9.60473 17.5827 9.69234C14.9849 11.3557 12.8755 13.6792 11.4702 16.4252C11.3715 16.6157 11.3235 16.8283 11.3308 17.0428C11.3381 17.2572 11.4005 17.4661 11.5119 17.6494C11.6234 17.8328 11.7801 17.9843 11.9671 18.0895C12.1541 18.1948 12.365 18.2501 12.5796 18.2502ZM41.6577 34.4908C41.8791 34.8705 41.9965 35.302 41.998 35.7416C41.9995 36.1812 41.8851 36.6134 41.6663 36.9947C41.4474 37.3759 41.1319 37.6928 40.7516 37.9132C40.3712 38.1336 39.9395 38.2498 39.4999 38.2502H33.1249C32.838 39.663 32.0715 40.9332 30.9552 41.8456C29.8389 42.758 28.4416 43.2564 26.9999 43.2564C25.5582 43.2564 24.1608 42.758 23.0445 41.8456C21.9283 40.9332 21.1618 39.663 20.8749 38.2502H14.4999C14.0605 38.2493 13.6292 38.1327 13.2493 37.912C12.8693 37.6914 12.5543 37.3745 12.3358 36.9933C12.1173 36.6121 12.0032 36.1801 12.0048 35.7408C12.0065 35.3015 12.1239 34.8703 12.3452 34.4908C13.753 32.0611 14.4999 28.6064 14.4999 24.5002C14.4999 21.1849 15.8168 18.0055 18.161 15.6613C20.5052 13.3171 23.6847 12.0002 26.9999 12.0002C30.3151 12.0002 33.4945 13.3171 35.8387 15.6613C38.1829 18.0055 39.4999 21.1849 39.4999 24.5002C39.4999 28.6048 40.2467 32.0595 41.6577 34.4908ZM30.5342 38.2502H23.4655C23.7245 38.9805 24.2033 39.6127 24.8362 40.0597C25.4691 40.5068 26.225 40.7469 26.9999 40.7469C27.7748 40.7469 28.5306 40.5068 29.1635 40.0597C29.7964 39.6127 30.2753 38.9805 30.5342 38.2502ZM39.4999 35.7502C37.8374 32.8955 36.9999 29.1111 36.9999 24.5002C36.9999 21.848 35.9463 19.3045 34.0709 17.4291C32.1956 15.5537 29.652 14.5002 26.9999 14.5002C24.3477 14.5002 21.8042 15.5537 19.9288 17.4291C18.0534 19.3045 16.9999 21.848 16.9999 24.5002C16.9999 29.1127 16.1592 32.897 14.4999 35.7502H39.4999Z" fill="#034AA6"/>
</svg>
