<svg width="60" height="60" viewBox="0 0 60 60" fill="none" xmlns="http://www.w3.org/2000/svg">
<path d="M50.2684 0.704407H9.73324C6.81539 0.704407 4.44141 3.06362 4.44141 5.9633V19.3046H5.62512V5.96319C5.62512 3.71612 7.46801 1.888 9.73324 1.888H50.2684C52.5338 1.888 54.3765 3.71612 54.3765 5.96319V29.4824H55.5602V5.96319C55.5602 3.06362 53.1863 0.704407 50.2684 0.704407Z" fill="#242424"/>
<path d="M55.3148 28.9997H30.9431L26.3032 20.6016C25.6521 19.4239 24.4093 18.6959 23.0541 18.6959H4.68937C2.64164 18.6959 0.978516 20.3412 0.978516 22.3593V27.2538C0.978516 27.5806 1.24348 27.8456 1.57031 27.8456C1.89715 27.8456 2.16211 27.5806 2.16211 27.2538V22.3593C2.16211 20.9922 3.2925 19.8795 4.68926 19.8795H23.0538C23.977 19.8795 24.8235 20.3766 25.2673 21.1756L30.0789 29.8756C30.1795 30.065 30.3807 30.1833 30.5938 30.1833H55.3146C56.7054 30.1833 57.8358 31.296 57.8358 32.6631V55.5967C57.8358 56.9816 56.6994 58.112 55.3028 58.112H4.70133C3.29859 58.112 2.16234 56.9816 2.16234 55.5967V31.9885C2.16234 31.6616 1.89738 31.3967 1.57055 31.3967C1.24371 31.3967 0.97875 31.6616 0.97875 31.9885V55.5967C0.97875 57.6384 2.64773 59.2956 4.70145 59.2956H55.3032C57.351 59.2956 59.02 57.6384 59.02 55.5967V32.6631C59.0197 30.6449 57.3567 28.9997 55.3148 28.9997Z" fill="#242424"/>
<path d="M29.6159 12.7399C29.289 12.7399 29.0241 12.4752 29.0241 12.1481V9.64721L28.6418 10.0235C28.4094 10.2535 28.0344 10.25 27.805 10.0178C27.5755 9.78479 27.5785 9.41038 27.8113 9.18092L29.2007 7.81171C29.3706 7.64354 29.6253 7.59667 29.8445 7.6869C30.0645 7.77936 30.2078 7.9944 30.2078 8.23311V12.1482C30.2077 12.4752 29.9427 12.7399 29.6159 12.7399Z" fill="#242424"/>
<path d="M37.5297 24.3343C37.2029 24.3343 36.9379 24.0696 36.9379 23.7425V21.2416L36.5559 21.6179C36.3229 21.8479 35.9485 21.8444 35.719 21.6121C35.4896 21.3792 35.4925 21.0042 35.7254 20.7753L37.1145 19.4067C37.285 19.2391 37.5391 19.1911 37.7583 19.2819C37.9783 19.3743 38.1216 19.5894 38.1216 19.8281V23.7426C38.1215 24.0696 37.8565 24.3343 37.5297 24.3343Z" fill="#242424"/>
<path d="M42.8288 19.1633C42.5019 19.1633 42.237 18.8985 42.237 18.5715V16.0712L41.8547 16.4475C41.6223 16.6775 41.2473 16.674 41.0179 16.4417C40.7884 16.2087 40.7913 15.8343 41.0242 15.6049L42.4136 14.2357C42.5835 14.0681 42.8376 14.02 43.0574 14.1109C43.2774 14.2033 43.4207 14.4184 43.4207 14.6571V18.5716C43.4206 18.8985 43.1556 19.1633 42.8288 19.1633Z" fill="#242424"/>
<path d="M31.612 21.3908C31.2851 21.3908 31.0202 21.126 31.0202 20.799V18.2981L30.6379 18.675C30.4049 18.9038 30.0308 18.9009 29.8011 18.6686C29.5716 18.4357 29.5746 18.0607 29.8074 17.8312L31.1968 16.4626C31.3675 16.2956 31.6208 16.2475 31.8406 16.3384C32.0606 16.4308 32.2039 16.6459 32.2039 16.8846V20.7991C32.2038 21.126 31.9388 21.3908 31.612 21.3908Z" fill="#242424"/>
<path d="M46.0555 12.5353C44.8525 12.5353 43.9102 11.306 43.9102 9.73627C43.9102 8.16655 44.8526 6.93726 46.0555 6.93726C47.2609 6.93726 48.2052 8.16655 48.2052 9.73627C48.2052 11.306 47.2608 12.5353 46.0555 12.5353ZM46.0555 8.12073C45.6007 8.12073 45.0937 8.78424 45.0937 9.73616C45.0937 10.6881 45.6006 11.3516 46.0555 11.3516C46.5124 11.3516 47.0216 10.6881 47.0216 9.73616C47.0216 8.78424 46.5124 8.12073 46.0555 8.12073Z" fill="#242424"/>
<path d="M36.5262 14.0905C35.3232 14.0905 34.3809 12.8612 34.3809 11.2914C34.3809 9.72173 35.3233 8.49243 36.5262 8.49243C37.7316 8.49243 38.6757 9.72173 38.6757 11.2914C38.6757 12.8612 37.7315 14.0905 36.5262 14.0905ZM36.5262 9.67602C36.0714 9.67602 35.5645 10.3395 35.5645 11.2914C35.5645 12.2434 36.0713 12.9069 36.5262 12.9069C36.9831 12.9069 37.492 12.2434 37.492 11.2914C37.492 10.3395 36.983 9.67602 36.5262 9.67602Z" fill="#242424"/>
<path d="M48.62 21.6404C47.4169 21.6404 46.4746 20.4111 46.4746 18.8414C46.4746 17.2717 47.417 16.0424 48.62 16.0424C49.8254 16.0424 50.7694 17.2717 50.7694 18.8414C50.7694 20.4111 49.8252 21.6404 48.62 21.6404ZM48.62 17.2259C48.1652 17.2259 47.6582 17.8895 47.6582 18.8414C47.6582 19.7933 48.165 20.4568 48.62 20.4568C49.0769 20.4568 49.5857 19.7933 49.5857 18.8414C49.5857 17.8895 49.0768 17.2259 48.62 17.2259Z" fill="#242424"/>
<path d="M11.9532 36.8786V31.7375C11.9532 29.2025 14.0261 27.1403 16.5737 27.1403C19.1214 27.1403 21.1942 29.2025 21.1942 31.7375V36.8786H22.3779V31.7375C22.3779 28.55 19.7742 25.9567 16.5737 25.9567C13.3732 25.9567 10.7695 28.5501 10.7695 31.7375V36.8786H11.9532Z" fill="#242424"/>
<path d="M22.5666 52.0343H10.5783C8.96383 52.0343 7.65039 50.7252 7.65039 49.1168V38.8927C7.65039 37.2842 8.96383 35.9752 10.5783 35.9752H22.5667C24.1812 35.9752 25.4946 37.2843 25.4946 38.8927V49.1168C25.4946 50.7252 24.1812 52.0343 22.5666 52.0343ZM10.5783 37.1587C9.61656 37.1587 8.83399 37.9366 8.83399 38.8926V49.1167C8.83399 50.0726 9.61656 50.8506 10.5783 50.8506H22.5667C23.5285 50.8506 24.3111 50.0727 24.3111 49.1167V38.8926C24.3111 37.9367 23.5285 37.1587 22.5667 37.1587H10.5783Z" fill="#242424"/>
<path d="M16.5742 44.0157C16.2474 44.0157 15.9824 43.751 15.9824 43.4239V41.6149C15.9824 41.2878 16.2474 41.0231 16.5742 41.0231C16.9011 41.0231 17.166 41.2878 17.166 41.6149V43.4239C17.1661 43.751 16.9011 44.0157 16.5742 44.0157Z" fill="#242424"/>
<path d="M16.5729 46.9864C15.4601 46.9864 14.5547 46.0841 14.5547 44.9751C14.5547 43.866 15.4601 42.9632 16.5729 42.9632C17.6855 42.9632 18.5909 43.866 18.5909 44.9751C18.5909 46.0841 17.6855 46.9864 16.5729 46.9864ZM16.5729 44.1468C16.1128 44.1468 15.7383 44.5184 15.7383 44.9749C15.7383 45.4315 16.1128 45.8026 16.5729 45.8026C17.033 45.8026 17.4071 45.4316 17.4071 44.9749C17.4071 44.5183 17.033 44.1468 16.5729 44.1468Z" fill="#242424"/>
<path d="M21.7089 9.53625H10.9941C10.6673 9.53625 10.4023 9.27153 10.4023 8.94446C10.4023 8.61739 10.6673 8.35266 10.9941 8.35266H21.7089C22.0358 8.35266 22.3007 8.61739 22.3007 8.94446C22.3007 9.27153 22.0358 9.53625 21.7089 9.53625Z" fill="#242424"/>
<path d="M21.7089 14.0634H10.9941C10.6673 14.0634 10.4023 13.7987 10.4023 13.4716C10.4023 13.1445 10.6673 12.8798 10.9941 12.8798H21.7089C22.0358 12.8798 22.3007 13.1445 22.3007 13.4716C22.3007 13.7987 22.0358 14.0634 21.7089 14.0634Z" fill="#242424"/>
<path d="M51.0296 40.9056H35.248C34.9212 40.9056 34.6562 40.6409 34.6562 40.3138C34.6562 39.9868 34.9212 39.722 35.248 39.722H51.0296C51.3564 39.722 51.6214 39.9868 51.6214 40.3138C51.6214 40.6409 51.3564 40.9056 51.0296 40.9056Z" fill="#242424"/>
<path d="M51.0296 45.649H35.248C34.9212 45.649 34.6562 45.3843 34.6562 45.0572C34.6562 44.7301 34.9212 44.4654 35.248 44.4654H51.0296C51.3564 44.4654 51.6214 44.7301 51.6214 45.0572C51.6214 45.3843 51.3564 45.649 51.0296 45.649Z" fill="#242424"/>
<path d="M51.0296 50.3923H35.248C34.9212 50.3923 34.6562 50.1275 34.6562 49.8005C34.6562 49.4734 34.9212 49.2087 35.248 49.2087H51.0296C51.3564 49.2087 51.6214 49.4734 51.6214 49.8005C51.6214 50.1275 51.3564 50.3923 51.0296 50.3923Z" fill="#242424"/>
</svg>
