<svg width="148" height="42" viewBox="0 0 148 42" fill="none" xmlns="http://www.w3.org/2000/svg">
<path d="M39.6105 20.9284C39.6105 25.0449 38.7728 28.6878 37.0973 31.8571C35.4218 34.99 33.0907 37.4489 30.104 39.234C27.1173 40.9826 23.657 41.8568 19.7233 41.8568C15.826 41.8568 12.384 40.9826 9.39725 39.234C6.44695 37.4489 4.13406 34.99 2.45858 31.8571C0.819528 28.7242 0 25.0995 0 20.9831C0 16.8666 0.83774 13.2419 2.51322 10.109C4.1887 6.93971 6.50159 4.48076 9.45189 2.73217C12.4386 0.947151 15.8806 0.0546427 19.7779 0.0546427C23.7117 0.0546427 27.1537 0.947151 30.104 2.73217C33.0907 4.48076 35.4218 6.9215 37.0973 10.0544C38.7728 13.1873 39.6105 16.812 39.6105 20.9284ZM30.2679 20.9284C30.2679 18.342 29.849 16.138 29.0113 14.3166C28.1736 12.4587 26.9716 11.038 25.4054 10.0544C23.8756 9.0708 22.018 8.57901 19.8326 8.57901C17.6472 8.57901 15.7714 9.0708 14.2052 10.0544C12.6389 11.038 11.437 12.4587 10.5992 14.3166C9.76149 16.138 9.34262 18.342 9.34262 20.9284C9.34262 23.5149 9.76149 25.737 10.5992 27.5949C11.437 29.4528 12.6389 30.8735 14.2052 31.8571C15.7714 32.8407 17.6472 33.3325 19.8326 33.3325C22.018 33.3325 23.8756 32.8407 25.4054 31.8571C26.9716 30.8371 28.1736 29.3981 29.0113 27.5403C29.849 25.6824 30.2679 23.4784 30.2679 20.9284Z" fill="white"/>
<path d="M47.5301 41.9115C46.146 41.9115 44.9622 41.4379 43.9788 40.4908C42.9953 39.5072 42.5036 38.3414 42.5036 36.9936C42.5036 35.6093 42.9953 34.4436 43.9788 33.4964C44.9622 32.5128 46.146 32.021 47.5301 32.021C48.8777 32.021 50.0433 32.5128 51.0267 33.4964C52.0466 34.4436 52.5565 35.6093 52.5565 36.9936C52.5565 38.3414 52.0466 39.5072 51.0267 40.4908C50.0433 41.4379 48.8777 41.9115 47.5301 41.9115Z" fill="white"/>
<path d="M57.8898 12.5133C57.8898 10.0726 58.5272 7.92329 59.8021 6.06542C61.0769 4.17111 62.8252 2.69574 65.047 1.6393C67.3053 0.546433 69.8732 0 72.7506 0C75.6645 0 78.1777 0.510005 80.2903 1.53001C82.4028 2.55002 84.0237 3.98897 85.1528 5.84684C86.3184 7.70472 86.9011 9.90867 86.9011 12.4587H78.1049C78.1049 11.038 77.6131 9.92688 76.6297 9.12545C75.6463 8.28758 74.3168 7.86865 72.6413 7.86865C70.8566 7.86865 69.4179 8.25115 68.3252 9.01616C67.2689 9.78117 66.7407 10.8376 66.7407 12.1855C66.7407 13.4241 67.0685 14.3712 67.7242 15.0269C68.3798 15.6827 69.4179 16.1562 70.8384 16.4477L76.9029 17.7045C80.5088 18.433 83.1859 19.708 84.9343 21.5295C86.6826 23.3145 87.5567 25.8099 87.5567 29.0156C87.5567 31.6021 86.9193 33.8789 85.6445 35.8461C84.3697 37.7768 82.5667 39.2704 80.2356 40.3268C77.941 41.3833 75.2456 41.9115 72.1496 41.9115C69.1629 41.9115 66.5404 41.4015 64.2822 40.3815C62.0603 39.3615 60.3302 37.9225 59.0918 36.0646C57.8898 34.1703 57.2888 31.9664 57.2888 29.4528H66.0851C66.0851 30.91 66.6133 32.0392 67.6695 32.8407C68.7258 33.6421 70.2374 34.0428 72.2043 34.0428C74.2075 34.0428 75.792 33.6785 76.9575 32.95C78.1231 32.185 78.7058 31.165 78.7058 29.8899C78.7058 28.7606 78.4145 27.8863 77.8317 27.2671C77.2853 26.6478 76.3383 26.2106 74.9907 25.9556L68.8169 24.6988C65.2109 23.9702 62.4792 22.5859 60.6216 20.5459C58.8004 18.5059 57.8898 15.8284 57.8898 12.5133Z" fill="white"/>
<path d="M97.3633 41.9115C95.9792 41.9115 94.7955 41.4379 93.812 40.4908C92.8286 39.5072 92.3369 38.3414 92.3369 36.9936C92.3369 35.6093 92.8286 34.4436 93.812 33.4964C94.7955 32.5128 95.9792 32.021 97.3633 32.021C98.711 32.021 99.8766 32.5128 100.86 33.4964C101.88 34.4436 102.39 35.6093 102.39 36.9936C102.39 38.3414 101.88 39.5072 100.86 40.4908C99.8766 41.4379 98.711 41.9115 97.3633 41.9115Z" fill="white"/>
<path d="M127.389 41.9115C138.772 41.9115 148 32.6835 148 21.3C148 9.91658 138.772 0.688477 127.389 0.688477C116.006 0.688477 106.778 9.91658 106.778 21.3C106.778 32.6835 116.006 41.9115 127.389 41.9115Z" fill="white"/>
<path d="M126.991 34.4253C134.535 34.4253 140.651 28.3091 140.651 20.7644C140.651 13.2197 134.535 7.10352 126.991 7.10352C119.446 7.10352 113.33 13.2197 113.33 20.7644C113.33 28.3091 119.446 34.4253 126.991 34.4253Z" fill="#474747"/>
<path d="M127.386 29.5628C131.949 29.5628 135.648 25.8634 135.648 21.2999C135.648 16.7365 131.949 13.0371 127.386 13.0371C122.822 13.0371 119.123 16.7365 119.123 21.2999C119.123 25.8634 122.822 29.5628 127.386 29.5628Z" fill="#0487D9"/>
<path d="M123.027 21.3971C124.464 21.3971 125.628 20.2327 125.628 18.7964C125.628 17.3601 124.464 16.1958 123.027 16.1958C121.591 16.1958 120.427 17.3601 120.427 18.7964C120.427 20.2327 121.591 21.3971 123.027 21.3971Z" fill="white"/>
</svg>
