<svg width="40" height="40" viewBox="0 0 40 40" fill="none" xmlns="http://www.w3.org/2000/svg">
<path d="M0 8C0 3.58172 3.58172 0 8 0H32C36.4183 0 40 3.58172 40 8V32C40 36.4183 36.4183 40 32 40H8C3.58172 40 0 36.4183 0 32V8Z" fill="#CBF1EA"/>
<path d="M22.4008 30.6572V27.5715C22.4008 26.844 22.1142 26.1463 21.6041 25.632C21.094 25.1176 20.4022 24.8286 19.6808 24.8286H11.5208C10.7994 24.8286 10.1076 25.1176 9.59745 25.632C9.08735 26.1463 8.80078 26.844 8.80078 27.5715V30.6572C8.80078 31.3846 9.08735 32.0823 9.59745 32.5967C10.1076 33.111 10.7994 33.4 11.5208 33.4H19.6808C20.4022 33.4 21.094 33.111 21.6041 32.5967C22.1142 32.0823 22.4008 31.3846 22.4008 30.6572ZM36.0008 15.2286V12.1429C36.0008 11.4154 35.7142 10.7178 35.2041 10.2034C34.694 9.689 34.0022 9.40002 33.2808 9.40002H11.5208C10.7994 9.40002 10.1076 9.689 9.59745 10.2034C9.08735 10.7178 8.80078 11.4154 8.80078 12.1429V15.2286C8.80078 15.956 9.08735 16.6537 9.59745 17.1681C10.1076 17.6825 10.7994 17.9715 11.5208 17.9715H33.2808C34.0022 17.9715 34.694 17.6825 35.2041 17.1681C35.7142 16.6537 36.0008 15.956 36.0008 15.2286Z" fill="#2DA791" fill-opacity="0.34" stroke="#2DA791" stroke-width="3" stroke-miterlimit="10"/>
<path d="M4 7V31" stroke="#2DA791" stroke-width="3" stroke-miterlimit="10" stroke-linecap="round"/>
</svg>
