<svg width="54" height="54" viewBox="0 0 54 54" fill="none" xmlns="http://www.w3.org/2000/svg">
<path opacity="0.5" d="M7.794 7.794C4.5 11.0925 4.5 16.3935 4.5 27C4.5 37.6065 4.5 42.9097 7.794 46.2038C11.0925 49.5 16.3935 49.5 27 49.5C37.6065 49.5 42.9097 49.5 46.2038 46.2038C49.5 42.912 49.5 37.6065 49.5 27C49.5 16.3935 49.5 11.0903 46.2038 7.794C42.912 4.5 37.6065 4.5 27 4.5C16.3935 4.5 11.0903 4.5 7.794 7.794Z" fill="#81B7FD"/>
<path d="M22.509 12.942C22.7306 12.9408 22.9498 12.896 23.1541 12.8101C23.3584 12.7242 23.5437 12.5989 23.6996 12.4414C23.8555 12.2838 23.9788 12.0971 24.0625 11.8919C24.1462 11.6868 24.1887 11.4671 24.1875 11.2455C24.1863 11.0239 24.1415 10.8047 24.0556 10.6004C23.9697 10.3961 23.8444 10.2107 23.6869 10.0549C23.5293 9.89901 23.3427 9.7757 23.1375 9.69199C22.9323 9.60828 22.7126 9.5658 22.491 9.56698C20.0565 9.58048 18.036 9.63448 16.3868 9.92473C14.6947 10.2195 13.248 10.7842 12.0623 11.9115C11.0385 12.8857 10.3522 13.8735 9.981 15.2932C9.6435 16.5802 9.58275 18.162 9.567 20.2387C9.56372 20.6863 9.73836 21.1168 10.0525 21.4356C10.3667 21.7544 10.7946 21.9353 11.2421 21.9386C11.6897 21.9419 12.1202 21.7672 12.439 21.4531C12.7578 21.139 12.9387 20.711 12.942 20.2635C12.96 18.1282 13.032 16.965 13.2458 16.1505C13.4258 15.4687 13.7092 15.003 14.391 14.355C14.9355 13.8375 15.678 13.473 16.9672 13.248C18.2992 13.0162 20.0497 12.9555 22.509 12.942ZM31.509 9.56698C31.0614 9.56459 30.6313 9.74009 30.3131 10.0549C29.995 10.3697 29.8149 10.7979 29.8125 11.2455C29.8101 11.693 29.9856 12.1232 30.3004 12.4414C30.6152 12.7595 31.0434 12.9396 31.491 12.942C33.9503 12.9555 35.7007 13.0162 37.0327 13.248C38.322 13.473 39.0645 13.8375 39.609 14.355C40.2908 15.0052 40.5765 15.4687 40.7543 16.1505C40.968 16.965 41.0422 18.1305 41.058 20.2635C41.0613 20.711 41.2422 21.139 41.561 21.4531C41.7189 21.6086 41.9058 21.7316 42.1112 21.8149C42.3165 21.8982 42.5363 21.9402 42.7579 21.9386C42.9795 21.937 43.1986 21.8917 43.4027 21.8054C43.6068 21.7191 43.7919 21.5934 43.9475 21.4356C44.103 21.2777 44.226 21.0908 44.3093 20.8855C44.3926 20.6801 44.4346 20.4603 44.433 20.2387C44.4172 18.162 44.3565 16.5802 44.019 15.2932C43.6455 13.8757 42.9615 12.8857 41.9378 11.9115C40.752 10.7842 39.3052 10.2195 37.6132 9.92473C35.964 9.63448 33.9435 9.58048 31.509 9.56698ZM11.25 25.3125C10.8024 25.3125 10.3732 25.4903 10.0568 25.8067C9.74029 26.1232 9.5625 26.5524 9.5625 27C9.5625 27.4475 9.74029 27.8768 10.0568 28.1932C10.3732 28.5097 10.8024 28.6875 11.25 28.6875H42.75C43.1976 28.6875 43.6268 28.5097 43.9432 28.1932C44.2597 27.8768 44.4375 27.4475 44.4375 27C44.4375 26.5524 44.2597 26.1232 43.9432 25.8067C43.6268 25.4903 43.1976 25.3125 42.75 25.3125H11.25ZM12.942 33.7387C12.9404 33.5171 12.8951 33.298 12.8088 33.0939C12.7225 32.8898 12.5968 32.7047 12.439 32.5491C12.2811 32.3936 12.0942 32.2706 11.8888 32.1873C11.6835 32.104 11.4637 32.062 11.2421 32.0636C11.0205 32.0652 10.8014 32.1105 10.5973 32.1968C10.3932 32.2831 10.2081 32.4088 10.0525 32.5666C9.89696 32.7245 9.77402 32.9114 9.69072 33.1168C9.60741 33.3221 9.56537 33.5419 9.567 33.7635C9.58275 35.8402 9.6435 37.422 9.981 38.709C10.3545 40.1265 11.0385 41.1165 12.0623 42.0907C13.248 43.2157 14.6947 43.7805 16.3868 44.0775C18.036 44.3655 20.0565 44.4217 22.491 44.4352C22.7126 44.4364 22.9323 44.3939 23.1375 44.3102C23.3427 44.2265 23.5293 44.1032 23.6869 43.9473C23.8444 43.7915 23.9697 43.6061 24.0556 43.4018C24.1415 43.1975 24.1863 42.9783 24.1875 42.7567C24.1887 42.5351 24.1462 42.3155 24.0625 42.1103C23.9788 41.9051 23.8555 41.7184 23.6996 41.5609C23.5437 41.4033 23.3584 41.278 23.1541 41.1921C22.9498 41.1062 22.7306 41.0614 22.509 41.0602C20.0497 41.0467 18.2992 40.986 16.9672 40.752C15.678 40.527 14.9355 40.1647 14.391 39.645C13.7092 38.997 13.4235 38.5312 13.2458 37.8517C13.032 37.0372 12.96 35.8717 12.942 33.7387ZM44.433 33.7635C44.4363 33.3159 44.2616 32.8854 43.9475 32.5666C43.6333 32.2478 43.2054 32.0669 42.7579 32.0636C42.3103 32.0603 41.8798 32.235 41.561 32.5491C41.2422 32.8633 41.0613 33.2912 41.058 33.7387C41.04 35.8717 40.968 37.0372 40.7543 37.8517C40.5743 38.5312 40.2908 38.997 39.609 39.645C39.0645 40.1625 38.322 40.527 37.0327 40.752C35.7007 40.986 33.9503 41.0445 31.491 41.0602C31.2694 41.0614 31.0502 41.1062 30.8459 41.1921C30.6416 41.278 30.4563 41.4033 30.3004 41.5609C29.9856 41.879 29.8101 42.3092 29.8125 42.7567C29.8149 43.2043 29.995 43.6326 30.3131 43.9473C30.6313 44.2621 31.0614 44.4376 31.509 44.4352C33.9435 44.4217 35.964 44.3677 37.6132 44.0752C39.3052 43.7827 40.752 43.218 41.9378 42.0907C42.9615 41.1142 43.6477 40.1265 44.019 38.709C44.3565 37.422 44.4172 35.8402 44.433 33.7635Z" fill="#045DD0"/>
</svg>
