<svg width="24" height="24" viewBox="0 0 24 24" fill="none" xmlns="http://www.w3.org/2000/svg">
<mask id="mask0_5459_21808" style="mask-type:alpha" maskUnits="userSpaceOnUse" x="0" y="0" width="24" height="24">
<rect width="24" height="24" fill="#D9D9D9"/>
</mask>
<g mask="url(#mask0_5459_21808)">
<path d="M6.30734 21.5C5.81017 21.5 5.38459 21.323 5.03059 20.969C4.67659 20.615 4.49959 20.1894 4.49959 19.6923V16.75H5.99959V19.6923C5.99959 19.7821 6.02842 19.8558 6.08609 19.9135C6.14375 19.9712 6.2175 20 6.30734 20H17.6918C17.7817 20 17.8554 19.9712 17.9131 19.9135C17.9708 19.8558 17.9996 19.7821 17.9996 19.6923V16.75H19.4996V19.6923C19.4996 20.1894 19.3226 20.615 18.9686 20.969C18.6146 21.323 18.189 21.5 17.6918 21.5H6.30734ZM4.49959 11.25V4.30775C4.49959 3.81058 4.67659 3.385 5.03059 3.031C5.38459 2.677 5.81017 2.5 6.30734 2.5H14.2496L19.4996 7.75V11.25H17.9996V8.5H13.4996V4H6.30734C6.2175 4 6.14375 4.02883 6.08609 4.0865C6.02842 4.14417 5.99959 4.21792 5.99959 4.30775V11.25H4.49959ZM1.28809 14.75V13.25H22.7111V14.75H1.28809Z" fill="#1C1B1F"/>
</g>
</svg>
