<svg width="60" height="60" viewBox="0 0 60 60" fill="none" xmlns="http://www.w3.org/2000/svg">
<g clip-path="url(#clip0_5568_25962)">
<path d="M18.7501 57.7425C18.6255 57.7421 18.5023 57.7172 18.3873 57.6694C12.1592 55.0523 6.99608 50.4106 3.73316 44.4952C0.470242 38.5798 -0.701675 31.7366 0.406974 25.0725C0.428632 24.9438 0.476926 24.821 0.548764 24.7121C0.620603 24.6031 0.714404 24.5103 0.824162 24.4397C0.933608 24.3678 1.05714 24.3202 1.18649 24.3C1.31584 24.2798 1.44802 24.2875 1.57416 24.3225L7.95854 26.0297C8.07765 26.0615 8.18933 26.1165 8.2872 26.1915C8.38506 26.2665 8.4672 26.36 8.52892 26.4667C8.59065 26.5734 8.63074 26.6913 8.64692 26.8135C8.6631 26.9357 8.65505 27.06 8.62322 27.1791C8.5914 27.2982 8.53642 27.4099 8.46144 27.5077C8.38645 27.6056 8.29293 27.6877 8.1862 27.7495C8.07947 27.8112 7.96163 27.8513 7.8394 27.8674C7.71718 27.8836 7.59296 27.8756 7.47385 27.8438L2.10385 26.4094C1.32175 32.5142 2.56148 38.7071 5.63331 44.0405C8.70514 49.3738 13.4399 53.5538 19.1129 55.9406C19.3125 56.0245 19.477 56.1748 19.5783 56.3661C19.6797 56.5574 19.7117 56.7778 19.669 56.9901C19.6262 57.2023 19.5114 57.3932 19.3439 57.5303C19.1764 57.6675 18.9666 57.7425 18.7501 57.7425Z" fill="black"/>
<path d="M30.0005 60C27.0501 60.0025 24.1153 59.5697 21.2912 58.7156C21.1726 58.6806 21.062 58.6225 20.966 58.5446C20.87 58.4666 20.7903 58.3705 20.7316 58.2616C20.6728 58.1528 20.6362 58.0334 20.6238 57.9103C20.6115 57.7873 20.6236 57.663 20.6594 57.5446C20.6953 57.4263 20.7542 57.3162 20.8328 57.2207C20.9114 57.1252 21.0082 57.0462 21.1174 56.9883C21.2267 56.9303 21.3463 56.8946 21.4695 56.8831C21.5926 56.8716 21.7168 56.8846 21.8349 56.9213C25.6437 58.0648 29.6499 58.3969 33.5949 57.8963L32.1568 52.5253C32.0992 52.2873 32.1371 52.0362 32.2622 51.8258C32.3874 51.6153 32.5899 51.4621 32.8266 51.3991C33.0632 51.336 33.3151 51.368 33.5284 51.4883C33.7417 51.6085 33.8995 51.8074 33.968 52.0425L35.6743 58.4269C35.708 58.553 35.7149 58.6848 35.6947 58.8137C35.6745 58.9427 35.6276 59.066 35.557 59.1758C35.4864 59.2856 35.3937 59.3794 35.2847 59.4513C35.1758 59.5231 35.053 59.5715 34.9243 59.5931C33.2972 59.8654 31.6503 60.0015 30.0005 60Z" fill="black"/>
<path d="M9.16963 22.4438C9.08763 22.4442 9.00594 22.4335 8.92682 22.4119L2.5312 20.7056C2.40485 20.6718 2.28697 20.612 2.18514 20.5299C2.0833 20.4478 1.99977 20.3454 1.93991 20.2291C1.88004 20.1128 1.84517 19.9853 1.83754 19.8547C1.8299 19.7241 1.84967 19.5934 1.89557 19.4709C3.04572 16.4027 4.69271 13.5446 6.77057 11.0109C6.84757 10.9126 6.94344 10.8306 7.05256 10.7698C7.16168 10.7091 7.28185 10.6707 7.406 10.657C7.53015 10.6433 7.65579 10.6546 7.77553 10.6901C7.89527 10.7257 8.0067 10.7848 8.10328 10.864C8.19985 10.9432 8.27963 11.0409 8.33792 11.1514C8.3962 11.2619 8.43183 11.3829 8.44269 11.5073C8.45356 11.6317 8.43946 11.7571 8.40121 11.876C8.36295 11.9949 8.30133 12.1049 8.21995 12.1997C6.49263 14.3057 5.08154 16.6522 4.0312 19.1653L9.40682 20.6016C9.62563 20.661 9.81548 20.7978 9.9412 20.9865C10.0669 21.1752 10.12 21.403 10.0906 21.6278C10.0612 21.8527 9.9513 22.0592 9.78127 22.2092C9.61125 22.3593 9.39262 22.4426 9.16588 22.4438H9.16963Z" fill="black"/>
<path d="M9.1687 22.4438C9.04747 22.4442 8.92735 22.4206 8.81526 22.3744C8.58575 22.2806 8.40274 22.0997 8.30628 21.8713C8.20982 21.6429 8.20777 21.3856 8.30058 21.1556C9.63754 17.8702 11.7033 14.9313 14.342 12.5609C16.9807 10.1904 20.1234 8.4503 23.5329 7.47187C26.9424 6.49345 30.5295 6.30226 34.0237 6.91274C37.5178 7.52321 40.8277 8.91941 43.7034 10.996L47.0625 7.63689C41.6619 3.51724 34.953 1.49119 28.1749 1.93303C21.3969 2.37487 15.0078 5.25474 10.1878 10.0406C10.1004 10.1274 9.99672 10.196 9.88277 10.2427C9.76882 10.2894 9.64679 10.3132 9.52365 10.3127C9.40051 10.3122 9.27867 10.2875 9.16509 10.2399C9.05151 10.1924 8.94841 10.1229 8.86167 10.0355C8.77494 9.94807 8.70627 9.84443 8.65959 9.73049C8.61291 9.61654 8.58913 9.49451 8.58961 9.37137C8.59008 9.24823 8.61481 9.12639 8.66238 9.01281C8.70994 8.89923 8.77942 8.79613 8.86683 8.70939C14.1435 3.47121 21.1773 0.379106 28.6044 0.0326688C36.0315 -0.313768 43.3227 2.11014 49.064 6.83439C49.1651 6.91746 49.2477 7.02077 49.3065 7.13767C49.3652 7.25458 49.3989 7.38249 49.4052 7.51318C49.4116 7.64387 49.3905 7.77445 49.3434 7.89651C49.2962 8.01857 49.2241 8.1294 49.1315 8.22189L44.4534 12.9C44.2916 13.0617 44.0763 13.1586 43.8481 13.1726C43.6198 13.1866 43.3943 13.1166 43.214 12.976C40.5873 10.9338 37.5232 9.52775 34.2621 8.86815C31.0009 8.20855 27.6313 8.31329 24.4174 9.17417C21.2035 10.035 18.2327 11.6286 15.7378 13.83C13.243 16.0314 11.292 18.7808 10.0378 21.8625C9.96701 22.0348 9.84656 22.182 9.69178 22.2855C9.53701 22.3891 9.35491 22.4441 9.1687 22.4438Z" fill="black"/>
<path d="M30 53.4375C23.7861 53.4306 17.8287 50.959 13.4349 46.5651C9.04098 42.1713 6.56945 36.2139 6.5625 30C6.56351 28.9311 6.63869 27.8635 6.7875 26.805C6.80152 26.6806 6.84033 26.5602 6.90164 26.451C6.96295 26.3418 7.04551 26.246 7.14446 26.1692C7.2434 26.0925 7.35672 26.0363 7.47773 26.0041C7.59874 25.9718 7.72498 25.9642 7.849 25.9815C7.97302 25.9989 8.0923 26.0409 8.19982 26.1051C8.30733 26.1693 8.40089 26.2544 8.47497 26.3554C8.54905 26.4563 8.60215 26.5711 8.63114 26.693C8.66013 26.8148 8.66442 26.9412 8.64375 27.0647C8.50727 28.0372 8.43836 29.018 8.4375 30C8.44395 35.7168 10.7178 41.1975 14.7601 45.2399C18.8025 49.2822 24.2832 51.5561 30 51.5625C30.9821 51.5619 31.9629 51.4927 32.9353 51.3553C33.1816 51.3208 33.4315 51.3854 33.6301 51.5351C33.8287 51.6849 33.9597 51.9073 33.9942 52.1536C34.0288 52.3999 33.9641 52.6498 33.8144 52.8484C33.6647 53.047 33.4422 53.1779 33.1959 53.2125C32.1371 53.3614 31.0692 53.4366 30 53.4375Z" fill="black"/>
<path d="M56.8028 42.1875C56.6482 42.1874 56.496 42.1491 56.3598 42.076C56.2237 42.0028 56.1077 41.8972 56.0222 41.7684C55.9367 41.6396 55.8844 41.4916 55.87 41.3377C55.8555 41.1838 55.8793 41.0287 55.9393 40.8863C57.8497 36.3238 58.5249 31.3388 57.8971 26.4325C57.2692 21.5263 55.3604 16.8719 52.3628 12.9375L49.0046 16.2957C51.9035 20.2754 53.4564 25.0765 53.4371 30C53.437 31.3086 53.3285 32.615 53.1128 33.9057C53.0715 34.1509 52.9345 34.3698 52.7318 34.514C52.5292 34.6583 52.2776 34.7161 52.0323 34.6749C51.787 34.6336 51.5682 34.4966 51.4239 34.2939C51.2797 34.0913 51.2218 33.8397 51.2631 33.5944C51.4624 32.4067 51.5625 31.2044 51.5621 30C51.5808 25.2104 49.9827 20.5545 47.0265 16.786C46.8858 16.6057 46.8159 16.3802 46.8299 16.1519C46.8439 15.9236 46.9408 15.7084 47.1024 15.5466L51.7806 10.8685C51.8723 10.7751 51.9829 10.7024 52.1049 10.6552C52.227 10.608 52.3577 10.5874 52.4884 10.5947C52.619 10.601 52.7469 10.6345 52.8638 10.6931C52.9806 10.7517 53.084 10.8341 53.1671 10.935C56.636 15.1561 58.888 20.2433 59.681 25.649C60.4739 31.0547 59.7776 36.5743 57.6671 41.6138C57.5955 41.7839 57.4753 41.9291 57.3215 42.0311C57.1678 42.1332 56.9873 42.1876 56.8028 42.1875Z" fill="black"/>
<path d="M34.7718 59.6063C34.5655 59.606 34.365 59.5377 34.2014 59.412C34.0379 59.2862 33.9204 59.11 33.8671 58.9106L32.1571 52.5253C32.0996 52.2873 32.1374 52.0362 32.2626 51.8258C32.3877 51.6153 32.5903 51.4621 32.8269 51.3991C33.0635 51.336 33.3154 51.368 33.5287 51.4883C33.742 51.6085 33.8998 51.8074 33.9684 52.0425L35.6746 58.4269C35.7117 58.5658 35.7164 58.7114 35.6882 58.8525C35.66 58.9935 35.5998 59.1261 35.5122 59.2401C35.4245 59.3541 35.3118 59.4465 35.1828 59.5099C35.0538 59.5734 34.9119 59.6064 34.7681 59.6063H34.7718Z" fill="black"/>
<path d="M30 31.875C28.2601 31.873 26.5921 31.181 25.3618 29.9507C24.1315 28.7204 23.4395 27.0524 23.4375 25.3125V23.4375C23.4375 21.697 24.1289 20.0278 25.3596 18.7971C26.5903 17.5664 28.2595 16.875 30 16.875C31.7405 16.875 33.4097 17.5664 34.6404 18.7971C35.8711 20.0278 36.5625 21.697 36.5625 23.4375V25.3125C36.5605 27.0524 35.8685 28.7204 34.6382 29.9507C33.4079 31.181 31.7399 31.873 30 31.875ZM30 18.75C28.7573 18.7515 27.5658 19.2458 26.6871 20.1246C25.8083 21.0033 25.314 22.1948 25.3125 23.4375V25.3125C25.3125 26.5557 25.8064 27.748 26.6854 28.6271C27.5645 29.5061 28.7568 30 30 30C31.2432 30 32.4355 29.5061 33.3146 28.6271C34.1936 27.748 34.6875 26.5557 34.6875 25.3125V23.4375C34.686 22.1948 34.1917 21.0033 33.3129 20.1246C32.4342 19.2458 31.2427 18.7515 30 18.75Z" fill="black"/>
<path d="M18.7501 43.125C18.5014 43.125 18.263 43.0262 18.0871 42.8504C17.9113 42.6746 17.8126 42.4361 17.8126 42.1875V38.2294C17.8073 37.1845 18.1535 36.1682 18.7956 35.3439C19.4376 34.5196 20.3382 33.9351 21.3526 33.6844C24.1907 33.0545 27.0933 32.7618 30.0001 32.8125C32.9071 32.7619 35.81 33.0545 38.6485 33.6844C39.5016 33.8933 40.2771 34.3419 40.8835 34.9772C40.9737 35.065 41.0452 35.1701 41.0939 35.2862C41.1426 35.4023 41.1674 35.527 41.1669 35.6529C41.1663 35.7788 41.1404 35.9033 41.0907 36.0189C41.041 36.1346 40.9686 36.2391 40.8776 36.3261C40.7867 36.4131 40.6791 36.481 40.5614 36.5256C40.4437 36.5701 40.3182 36.5905 40.1924 36.5856C40.0666 36.5806 39.9431 36.5503 39.8292 36.4966C39.7154 36.4429 39.6135 36.3668 39.5297 36.2728C39.1683 35.896 38.7073 35.6294 38.2004 35.5041C35.5084 34.9113 32.7561 34.6372 30.0001 34.6875C27.2441 34.6372 24.4917 34.9113 21.7997 35.5041C21.1931 35.6556 20.6549 36.0068 20.2719 36.5011C19.8888 36.9953 19.683 37.604 19.6876 38.2294V42.1875C19.6876 42.4361 19.5888 42.6746 19.413 42.8504C19.2372 43.0262 18.9987 43.125 18.7501 43.125Z" fill="black"/>
<path d="M49.6875 60H44.0625C42.3226 59.998 40.6546 59.306 39.4243 58.0757C38.194 56.8454 37.502 55.1774 37.5 53.4375V45C37.5 44.2541 37.7963 43.5387 38.3238 43.0113C38.8512 42.4838 39.5666 42.1875 40.3125 42.1875H53.4375C54.1834 42.1875 54.8988 42.4838 55.4262 43.0113C55.9537 43.5387 56.25 44.2541 56.25 45V45.9375C56.25 46.1861 56.1512 46.4246 55.9754 46.6004C55.7996 46.7762 55.5611 46.875 55.3125 46.875C55.0639 46.875 54.8254 46.7762 54.6496 46.6004C54.4738 46.4246 54.375 46.1861 54.375 45.9375V45C54.375 44.7514 54.2762 44.5129 54.1004 44.3371C53.9246 44.1613 53.6861 44.0625 53.4375 44.0625H40.3125C40.0639 44.0625 39.8254 44.1613 39.6496 44.3371C39.4738 44.5129 39.375 44.7514 39.375 45V53.4375C39.3765 54.6802 39.8708 55.8717 40.7496 56.7504C41.6283 57.6292 42.8198 58.1235 44.0625 58.125H49.6875C50.9302 58.1235 52.1217 57.6292 53.0004 56.7504C53.8792 55.8717 54.3735 54.6802 54.375 53.4375V48.75C54.375 48.5014 54.4738 48.2629 54.6496 48.0871C54.8254 47.9113 55.0639 47.8125 55.3125 47.8125C55.5611 47.8125 55.7996 47.9113 55.9754 48.0871C56.1512 48.2629 56.25 48.5014 56.25 48.75V53.4375C56.248 55.1774 55.556 56.8454 54.3257 58.0757C53.0954 59.306 51.4274 59.998 49.6875 60Z" fill="black"/>
<path d="M46.875 52.5C46.6264 52.5 46.3879 52.4012 46.2121 52.2254C46.0363 52.0496 45.9375 51.8111 45.9375 51.5625V48.75C45.9375 48.5014 46.0363 48.2629 46.2121 48.0871C46.3879 47.9113 46.6264 47.8125 46.875 47.8125C47.1236 47.8125 47.3621 47.9113 47.5379 48.0871C47.7137 48.2629 47.8125 48.5014 47.8125 48.75V51.5625C47.8125 51.8111 47.7137 52.0496 47.5379 52.2254C47.3621 52.4012 47.1236 52.5 46.875 52.5Z" fill="black"/>
<path d="M52.5 44.0625H41.25C41.0014 44.0625 40.7629 43.9637 40.5871 43.7879C40.4113 43.6121 40.3125 43.3736 40.3125 43.125V40.3125C40.3125 38.572 41.0039 36.9028 42.2346 35.6721C43.4653 34.4414 45.1345 33.75 46.875 33.75C48.6155 33.75 50.2847 34.4414 51.5154 35.6721C52.7461 36.9028 53.4375 38.572 53.4375 40.3125V43.125C53.4375 43.3736 53.3387 43.6121 53.1629 43.7879C52.9871 43.9637 52.7486 44.0625 52.5 44.0625ZM42.1875 42.1875H51.5625V40.3125C51.5625 39.0693 51.0686 37.877 50.1896 36.9979C49.3105 36.1189 48.1182 35.625 46.875 35.625C45.6318 35.625 44.4395 36.1189 43.5604 36.9979C42.6814 37.877 42.1875 39.0693 42.1875 40.3125V42.1875Z" fill="black"/>
</g>
<defs>
<clipPath id="clip0_5568_25962">
<rect width="60" height="60" fill="white"/>
</clipPath>
</defs>
</svg>
