<svg width="61" height="61" viewBox="0 0 61 61" fill="none" xmlns="http://www.w3.org/2000/svg">
<g clip-path="url(#clip0_5220_140)">
<path d="M31.5347 45.9952H28.2175C27.5852 45.9952 27.4026 45.9952 25.6799 41.7321L24.531 41.2647C20.9903 42.8715 20.5651 42.8715 20.3824 42.8715C20.148 42.8715 19.885 42.7693 19.7201 42.6044L17.3746 40.3079C16.9072 39.8473 16.7872 39.7287 18.6475 35.5093L18.1842 34.4149C13.8066 32.849 13.8066 32.6596 13.8066 32.004V28.7536C13.8066 28.1035 13.8066 27.9373 18.1692 26.2487L18.6325 25.1516C16.6687 21.0126 16.8036 20.879 17.2751 20.4143L19.6247 18.1178C19.7896 17.957 20.0526 17.8548 20.2843 17.8548C20.4547 17.8548 20.8976 17.8548 24.4983 19.3744L25.6404 18.9097C27.2417 14.6289 27.4448 14.6289 28.0785 14.6289H31.3957C32.0267 14.6289 32.2107 14.6289 33.932 18.8947L35.0796 19.358C38.6175 17.7553 39.0428 17.7553 39.2281 17.7553C39.4612 17.7553 39.7228 17.8562 39.8877 18.017L42.2387 20.3107C42.6966 20.7618 42.8261 20.8899 40.9658 25.112L41.4278 26.2132C45.8066 27.7764 45.8066 27.9645 45.8066 28.6173V31.8664C45.8066 32.5178 45.8053 32.6855 41.4414 34.3754L40.9807 35.4725C42.946 39.6088 42.8097 39.7437 42.3422 40.2085L39.9872 42.509C39.8209 42.6712 39.5593 42.772 39.3276 42.772C39.16 42.772 38.7198 42.772 35.1191 41.2497L33.9715 41.7144C32.3702 45.9952 32.1835 45.9952 31.5347 45.9952ZM28.6945 44.2207H31.0455C31.3589 43.5502 31.9627 42.0347 32.4479 40.7291C32.5337 40.496 32.715 40.3093 32.9453 40.2166L34.7947 39.4671C35.0114 39.3798 35.2581 39.3812 35.4748 39.4739C36.8049 40.0395 38.3763 40.6718 39.0877 40.9117L40.7341 39.2981C40.4697 38.6003 39.8019 37.1229 39.209 35.8786C39.1014 35.6511 39.0945 35.3867 39.1913 35.1522L39.9531 33.3424C40.0472 33.1202 40.2271 32.9444 40.452 32.8599C41.7916 32.342 43.3508 31.7028 44.0336 31.3785V29.1216C43.3426 28.8136 41.7957 28.2275 40.4656 27.7546C40.2298 27.6715 40.0404 27.4943 39.9436 27.2626L39.1818 25.45C39.0877 25.2238 39.0891 24.9689 39.1886 24.7454C39.7583 23.4603 40.3934 21.9407 40.6428 21.2333L38.9951 19.6238C38.2891 19.8787 36.7586 20.5383 35.4666 21.1284C35.2472 21.2292 34.991 21.2361 34.7661 21.1434L32.9167 20.3965C32.6945 20.3066 32.5146 20.1281 32.4261 19.9045C31.8986 18.5921 31.2485 17.0657 30.916 16.4006H28.5664C28.2516 17.0725 27.6492 18.588 27.1654 19.8923C27.0809 20.1267 26.8983 20.3148 26.668 20.4061L24.824 21.1557C24.6046 21.2442 24.3606 21.2429 24.1426 21.1502C22.8124 20.5846 21.2356 19.9522 20.5255 19.7165L18.8792 21.3274C19.145 22.0265 19.8087 23.5039 20.4029 24.7509C20.5119 24.9785 20.516 25.2429 20.4192 25.4773L19.6533 27.2858C19.5593 27.508 19.3807 27.6824 19.1559 27.7683C17.8162 28.2848 16.2598 28.9212 15.5784 29.2456V31.5039C16.2666 31.8146 17.8148 32.402 19.1463 32.8763C19.3807 32.9608 19.5702 33.1393 19.6656 33.3669L20.4261 35.1754C20.5215 35.4003 20.5174 35.6538 20.4206 35.8773C19.8509 37.1638 19.2158 38.6834 18.9664 39.3894L20.6128 41.0003C21.3174 40.7441 22.8479 40.0844 24.1412 39.4957C24.362 39.3948 24.6155 39.3894 24.8417 39.4793L26.6911 40.2303C26.916 40.3202 27.0918 40.4974 27.1804 40.7209C27.7106 42.0333 28.362 43.5584 28.6945 44.2207ZM29.8066 35.9413C26.6462 35.9413 24.0731 33.4146 24.0731 30.3127C24.0731 27.2122 26.6462 24.6882 29.8066 24.6882C32.9658 24.6882 35.5375 27.2122 35.5375 30.3127C35.5375 33.4146 32.9658 35.9413 29.8066 35.9413ZM29.8066 26.4613C27.6233 26.4613 25.8475 28.1894 25.8475 30.3127C25.8475 32.4401 27.6233 34.1683 29.8066 34.1683C31.9899 34.1683 33.7644 32.4388 33.7644 30.3127C33.7644 28.188 31.9899 26.4613 29.8066 26.4613Z" fill="#090609"/>
</g>
<path d="M15.807 55.3125L14.3592 57.1222C14.1163 57.4258 13.635 57.3481 13.4999 56.9835L9.13607 45.201C8.99645 44.8241 9.33622 44.4448 9.72621 44.5423L22.1523 47.6488C22.4781 47.7303 22.6325 48.1032 22.4598 48.3911L21.307 50.3125C21.307 50.3125 35.7938 55.826 45.307 46.3125C53.3761 38.2431 51.7055 27.2877 51.0193 24.1712C50.9103 23.6759 51.1584 23.1619 51.6245 22.9621L56.7635 20.7597C57.3172 20.5224 57.9451 20.8196 58.0781 21.4072C58.8669 24.8922 60.8019 35.9881 55.807 44.3125C51.5252 51.4482 46.1817 56.1824 38.3066 58.8125C30.8891 61.2898 19.307 57.3125 19.307 57.3125" stroke="black" stroke-width="2" stroke-linecap="round"/>
<path d="M44.3063 5.31251L45.754 3.50284C45.9969 3.1992 46.4783 3.27689 46.6133 3.64153L50.9772 15.424C51.1168 15.8009 50.7771 16.1802 50.3871 16.0827L37.961 12.9762C37.6352 12.8947 37.4807 12.5218 37.6535 12.2339L38.8063 10.3125C38.8063 10.3125 24.3195 4.79901 14.8063 14.3125C6.73721 22.3819 8.40781 33.3373 9.09395 36.4538C9.203 36.9491 8.95492 37.4631 8.48875 37.6629L3.34981 39.8653C2.79613 40.1026 2.16816 39.8054 2.03518 39.2178C1.24641 35.7328 -0.68862 24.6369 4.30632 16.3125C8.58803 9.17679 13.9316 4.44261 21.8066 1.8125C29.2241 -0.664787 40.8063 3.31251 40.8063 3.31251" stroke="black" stroke-width="2" stroke-linecap="round"/>
<defs>
<clipPath id="clip0_5220_140">
<rect width="32" height="32" fill="white" transform="translate(13.8066 14.3125)"/>
</clipPath>
</defs>
</svg>
