<svg width="60" height="60" viewBox="0 0 60 60" fill="none" xmlns="http://www.w3.org/2000/svg">
<path fill-rule="evenodd" clip-rule="evenodd" d="M30.1925 6.4074C30.0674 6.36689 29.9326 6.36689 29.8075 6.4074L9.1825 13.0999C9.05696 13.1401 8.94743 13.2192 8.8697 13.3257C8.79198 13.4322 8.75006 13.5606 8.75 13.6924V26.2499C8.75 39.9024 16.95 49.9574 29.825 54.8149C29.9379 54.8571 30.0621 54.8571 30.175 54.8149C43.05 49.9574 51.25 39.9024 51.25 26.2499V13.6899C51.2495 13.5582 51.2075 13.4299 51.1298 13.3235C51.0521 13.2171 50.9428 13.138 50.8175 13.0974L30.1925 6.4074ZM28.65 2.8424C29.5275 2.55774 30.4725 2.55774 31.35 2.8424L51.975 9.5299C52.8539 9.81502 53.62 10.3711 54.1634 11.1184C54.7068 11.8657 54.9997 12.7659 55 13.6899V26.2499C55 41.7249 45.575 53.0124 31.4975 58.3249C30.5323 58.6885 29.4677 58.6885 28.5025 58.3249C14.4275 53.0099 5 41.7249 5 26.2499V13.6899C5 11.7899 6.225 10.1149 8.025 9.5299L28.65 2.8424ZM32.5 30.5799C33.4531 30.0295 34.1981 29.1801 34.6192 28.1632C35.0404 27.1463 35.1143 26.0189 34.8294 24.9558C34.5445 23.8927 33.9168 22.9532 33.0437 22.2832C32.1705 21.6132 31.1006 21.25 30 21.2499C28.8994 21.25 27.8295 21.6132 26.9563 22.2832C26.0832 22.9532 25.4555 23.8927 25.1706 24.9558C24.8857 26.0189 24.9596 27.1463 25.3808 28.1632C25.8019 29.1801 26.5469 30.0295 27.5 30.5799V37.4999C27.5 38.1629 27.7634 38.7988 28.2322 39.2677C28.7011 39.7365 29.337 39.9999 30 39.9999C30.663 39.9999 31.2989 39.7365 31.7678 39.2677C32.2366 38.7988 32.5 38.1629 32.5 37.4999V30.5799Z" fill="black"/>
</svg>
