<svg width="57" height="63" viewBox="0 0 57 63" fill="none" xmlns="http://www.w3.org/2000/svg">
<path d="M1.5 26.7501C1.5 17.1572 1.5 12.3608 2.63256 10.7472C3.76509 9.13362 8.27496 7.58988 17.2947 4.50237L19.0132 3.91416C23.715 2.30472 26.0658 1.5 28.5 1.5C30.9342 1.5 33.285 2.30472 37.9869 3.91416L39.7053 4.50237C48.7251 7.58988 53.235 9.13362 54.3675 10.7472C55.5 12.3608 55.5 17.1572 55.5 26.7501C55.5 28.1988 55.5 29.7702 55.5 31.4742C55.5 48.3882 42.783 56.5965 34.8042 60.0819C32.64 61.0272 31.5579 61.5 28.5 61.5C25.4421 61.5 24.36 61.0272 22.1957 60.0819C14.2169 56.5965 1.5 48.3882 1.5 31.4742C1.5 29.7702 1.5 28.1988 1.5 26.7501Z" stroke="#2C2C2C" stroke-width="3"/>
<path d="M21 32.7005L25.2858 37.5005L36 25.5005" stroke="#2C2C2C" stroke-width="3" stroke-linecap="round" stroke-linejoin="round"/>
</svg>
