<svg width="24" height="24" viewBox="0 0 24 24" fill="none" xmlns="http://www.w3.org/2000/svg">
<path d="M22.6674 19.1778V18.7839C22.6674 18.4052 22.3594 18.097 21.9805 18.097H19.9195V14.6987C19.9195 14.1506 19.4746 13.7046 18.9276 13.7046H12.9285C12.829 13.176 12.4111 12.759 11.8814 12.6599V10.1785H15.8896C16.4008 10.1785 16.8457 9.83245 16.9714 9.33698L18.4542 3.50166H18.4545C18.6332 2.79633 18.101 2.11041 17.3724 2.11041H17.2886V1.11741C17.2886 0.501281 16.7873 0 16.1712 0H7.10609C6.48996 0 5.98892 0.501281 5.98892 1.11741V2.11041H5.9051C5.17751 2.11041 4.64361 2.79516 4.82323 3.50166L6.30579 9.33713C6.43151 9.8325 6.87645 10.1786 7.38767 10.1786H11.3965V12.6599C10.8668 12.7591 10.4489 13.1761 10.3494 13.7046H4.35035C3.8022 13.7046 3.35609 14.1506 3.35609 14.6988V18.0971H1.29692C0.918074 18.0971 0.610011 18.4053 0.610011 18.784V19.1778C0.178339 19.2261 -0.0780668 19.6338 0.0213551 20.0246L0.77459 22.9894C0.852261 23.2939 1.12573 23.5066 1.43998 23.5066H5.75904C6.07325 23.5066 6.34676 23.2939 6.42443 22.9891L7.17767 20.0247C7.27728 19.633 7.01975 19.2261 6.58925 19.1779V18.784C6.58925 18.4052 6.28118 18.0971 5.90234 18.0971H3.84096V14.6988C3.84096 14.418 4.06948 14.1896 4.35031 14.1896H10.3493C10.4488 14.7193 10.8667 15.1372 11.3965 15.2366V18.0971H9.33593C8.95709 18.0971 8.64903 18.4053 8.64903 18.784V19.1779C8.21932 19.226 7.96086 19.6323 8.06061 20.0247L8.81361 22.9891C8.89104 23.2938 9.16451 23.5066 9.479 23.5066H13.7983C14.1127 23.5066 14.3862 23.2938 14.4634 22.9891L15.2167 20.0247C15.3167 19.6312 15.0573 19.2259 14.6283 19.1779V18.784C14.6283 18.4053 14.3202 18.0971 13.9414 18.0971H11.8814V15.2366C12.4112 15.1373 12.8291 14.7193 12.9286 14.1896H18.9276C19.2072 14.1896 19.4345 14.418 19.4345 14.6988V18.0971H17.3752C16.9963 18.0971 16.6883 18.4053 16.6883 18.784V19.1778C16.2592 19.2258 15.9999 19.6313 16.0999 20.0246L16.8529 22.9891C16.9303 23.2937 17.2038 23.5066 17.5182 23.5066H21.8375C22.152 23.5066 22.4255 23.2937 22.5027 22.9891L23.2559 20.0246C23.3558 19.6312 23.0965 19.2258 22.6674 19.1778ZM6.47384 1.11741C6.47384 0.768609 6.75753 0.484922 7.10609 0.484922H16.1711C16.5199 0.484922 16.8036 0.768609 16.8036 1.11741V2.11041H6.47384V1.11741ZM6.77553 9.21764L5.29296 3.38217C5.19153 2.98294 5.4935 2.59533 5.90506 2.59533H17.3723C17.7843 2.59533 18.0854 2.98345 17.9842 3.38231H17.9844L16.5016 9.21755C16.4303 9.49791 16.1787 9.69361 15.8895 9.69361H7.38762C7.0985 9.69356 6.84678 9.49786 6.77553 9.21764ZM6.70779 19.9053L5.95456 22.8695C5.93159 22.9591 5.85134 23.0217 5.75895 23.0217H1.43989C1.34754 23.0217 1.26725 22.9591 1.24428 22.8698L0.491043 19.9053C0.458839 19.7782 0.554886 19.654 0.686652 19.654H6.51214C6.64381 19.654 6.74004 19.778 6.70779 19.9053ZM6.10423 18.7839V19.1691H1.09493V18.7839C1.09493 18.6725 1.18564 18.582 1.29692 18.582H5.90225C6.01165 18.582 6.10423 18.6744 6.10423 18.7839ZM14.7468 19.9053L13.9933 22.8698C13.9708 22.9592 13.8906 23.0217 13.7982 23.0217H9.47895C9.38661 23.0217 9.30631 22.9593 9.28357 22.8698L8.53034 19.9053C8.49804 19.7777 8.59465 19.654 8.72571 19.654H14.5515C14.6831 19.654 14.779 19.7782 14.7468 19.9053ZM14.1432 18.7839V19.1691H9.13395V18.7839C9.13395 18.6725 9.22465 18.582 9.33593 18.582H13.9413C14.0525 18.582 14.1432 18.6725 14.1432 18.7839ZM11.6425 14.7746C11.6412 14.7746 11.6402 14.7739 11.6389 14.7739C11.6377 14.7739 11.6367 14.7746 11.6354 14.7746C11.1806 14.7727 10.8109 14.4024 10.8109 13.9469C10.8109 13.4931 11.1804 13.124 11.6351 13.1219C11.6364 13.1219 11.6376 13.1226 11.6389 13.1226C11.6404 13.1226 11.6415 13.1219 11.6428 13.1219C12.0975 13.124 12.467 13.4931 12.467 13.9469C12.467 14.4024 12.0973 14.7727 11.6425 14.7746ZM17.1732 18.7839C17.1732 18.6725 17.2639 18.582 17.3752 18.582H21.9805C22.0918 18.582 22.1825 18.6725 22.1825 18.7839V19.1691H17.1732V18.7839ZM22.7861 19.9053L22.0326 22.8698C22.0101 22.9592 21.9298 23.0217 21.8375 23.0217H17.5182C17.4259 23.0217 17.3456 22.9593 17.3228 22.8698L16.5696 19.9053C16.5374 19.7781 16.6334 19.654 16.765 19.654H22.5907C22.7224 19.654 22.8183 19.7782 22.7861 19.9053Z" fill="black"/>
</svg>
