<svg width="54" height="54" viewBox="0 0 54 54" fill="none" xmlns="http://www.w3.org/2000/svg">
<path opacity="0.5" d="M7.794 7.794C4.5 11.0925 4.5 16.3935 4.5 27C4.5 37.6065 4.5 42.9097 7.794 46.2038C11.0925 49.5 16.3935 49.5 27 49.5C37.6065 49.5 42.9097 49.5 46.2038 46.2038C49.5 42.912 49.5 37.6065 49.5 27C49.5 16.3935 49.5 11.0903 46.2038 7.794C42.912 4.5 37.6065 4.5 27 4.5C16.3935 4.5 11.0903 4.5 7.794 7.794Z" fill="#81B7FD"/>
<path d="M43.6663 18.6667H10.333" stroke="#045DD0" stroke-width="5" stroke-linecap="round" stroke-linejoin="round"/>
<path opacity="0.5" d="M38.6663 27H15.333" stroke="#045DD0" stroke-width="5" stroke-linecap="round" stroke-linejoin="round"/>
<path d="M33.6663 35.3333H20.333" stroke="#045DD0" stroke-width="5" stroke-linecap="round" stroke-linejoin="round"/>
</svg>
