<svg width="58" height="58" viewBox="0 0 58 58" fill="none" xmlns="http://www.w3.org/2000/svg">
<path d="M28.519 40.7997C30.1057 40.7997 31.3935 39.5119 31.3935 37.9252V11.779L35.8547 16.2402C36.4066 16.7921 37.1425 17.091 37.8783 17.091C38.6142 17.091 39.3501 16.8151 39.902 16.2402C41.0288 15.1134 41.0288 13.2967 39.902 12.1699L30.5427 2.8106C29.4619 1.7298 27.5532 1.7298 26.4724 2.8106L17.1361 12.1699C16.0093 13.2967 16.0093 15.1134 17.1361 16.2402C18.2629 17.367 20.0796 17.367 21.2064 16.2402L25.6676 11.779V37.9252C25.6446 39.5119 26.9323 40.7997 28.519 40.7997Z" fill="#242424"/>
<path d="M52.6657 35.0508C51.079 35.0508 49.7912 36.3385 49.7912 37.9253V45.4449C49.7912 48.0894 47.6296 50.251 44.9851 50.251H12.0551C9.41056 50.251 7.24895 48.0894 7.24895 45.4449V37.9253C7.24895 36.3385 5.96119 35.0508 4.37448 35.0508C2.78777 35.0508 1.5 36.3385 1.5 37.9253V45.4449C1.5 51.2628 6.23714 56 12.0551 56H44.9621C50.78 56 55.5172 51.2628 55.5172 45.4449V37.9253C55.5401 36.3385 54.2524 35.0508 52.6657 35.0508Z" fill="#242424"/>
</svg>
