<svg width="54" height="54" viewBox="0 0 54 54" fill="none" xmlns="http://www.w3.org/2000/svg">
<path opacity="0.5" d="M7.794 7.794C4.5 11.0925 4.5 16.3935 4.5 27C4.5 37.6065 4.5 42.9097 7.794 46.2038C11.0925 49.5 16.3935 49.5 27 49.5C37.6065 49.5 42.9097 49.5 46.2038 46.2038C49.5 42.912 49.5 37.6065 49.5 27C49.5 16.3935 49.5 11.0903 46.2038 7.794C42.912 4.5 37.6065 4.5 27 4.5C16.3935 4.5 11.0903 4.5 7.794 7.794Z" fill="#81B7FD"/>
<g clip-path="url(#clip0_5256_38236)">
<path opacity="0.2" d="M28.25 23.875C28.25 25.482 27.7735 27.0529 26.8807 28.389C25.9879 29.7252 24.719 30.7666 23.2343 31.3815C21.7497 31.9965 20.116 32.1574 18.5399 31.8439C16.9638 31.5304 15.5161 30.7565 14.3798 29.6202C13.2435 28.4839 12.4696 27.0362 12.1561 25.4601C11.8426 23.884 12.0035 22.2503 12.6185 20.7657C13.2334 19.281 14.2748 18.0121 15.611 17.1193C16.9471 16.2265 18.518 15.75 20.125 15.75C22.2799 15.75 24.3465 16.606 25.8702 18.1298C27.394 19.6535 28.25 21.7201 28.25 23.875Z" fill="#045DD0"/>
<path d="M25.3205 31.675C26.9958 30.5597 28.2677 28.9348 28.9482 27.0407C29.6286 25.1466 29.6814 23.0838 29.0988 21.1574C28.5162 19.2309 27.3291 17.5431 25.7131 16.3435C24.097 15.1439 22.1378 14.4962 20.1252 14.4962C18.1126 14.4962 16.1534 15.1439 14.5373 16.3435C12.9213 17.5431 11.7342 19.2309 11.1516 21.1574C10.569 23.0838 10.6218 25.1466 11.3022 27.0407C11.9827 28.9348 13.2546 30.5597 14.9299 31.675C11.8994 32.792 9.3113 34.8588 7.55176 37.5672C7.45929 37.7047 7.39505 37.8591 7.3628 38.0216C7.33054 38.1841 7.3309 38.3514 7.36386 38.5137C7.39682 38.676 7.46172 38.8302 7.55478 38.9673C7.64785 39.1043 7.76723 39.2215 7.90598 39.312C8.04474 39.4025 8.20009 39.4645 8.36302 39.4944C8.52596 39.5244 8.69321 39.5216 8.85507 39.4863C9.01693 39.451 9.17016 39.3839 9.30585 39.2889C9.44155 39.1939 9.55701 39.0729 9.64551 38.9328C10.7805 37.1872 12.3336 35.7527 14.1637 34.7597C15.9938 33.7666 18.043 33.2465 20.1252 33.2465C22.2074 33.2465 24.2566 33.7666 26.0867 34.7597C27.9168 35.7527 29.4699 37.1872 30.6049 38.9328C30.7882 39.2053 31.0714 39.3947 31.3933 39.4601C31.7151 39.5254 32.0498 39.4614 32.3249 39.282C32.6 39.1026 32.7934 38.8221 32.8633 38.5012C32.9333 38.1804 32.8741 37.8448 32.6986 37.5672C30.9391 34.8588 28.351 32.792 25.3205 31.675ZM13.2502 23.875C13.2502 22.5153 13.6534 21.1861 14.4088 20.0555C15.1643 18.9249 16.238 18.0437 17.4943 17.5233C18.7505 17.003 20.1328 16.8668 21.4664 17.1321C22.8001 17.3974 24.0251 18.0522 24.9866 19.0137C25.948 19.9751 26.6028 21.2002 26.8681 22.5338C27.1334 23.8674 26.9972 25.2497 26.4769 26.506C25.9565 27.7622 25.0753 28.8359 23.9447 29.5914C22.8142 30.3468 21.4849 30.75 20.1252 30.75C18.3025 30.748 16.555 30.023 15.2661 28.7341C13.9773 27.4452 13.2523 25.6977 13.2502 23.875ZM46.0846 39.2969C45.8069 39.478 45.4687 39.5413 45.1443 39.473C44.82 39.4048 44.536 39.2105 44.3549 38.9328C43.2213 37.1861 41.6684 35.751 39.8379 34.7584C38.0074 33.7658 35.9575 33.2472 33.8752 33.25C33.5437 33.25 33.2257 33.1183 32.9913 32.8839C32.7569 32.6495 32.6252 32.3315 32.6252 32C32.6252 31.6685 32.7569 31.3506 32.9913 31.1161C33.2257 30.8817 33.5437 30.75 33.8752 30.75C34.8877 30.7491 35.8874 30.5245 36.803 30.0924C37.7186 29.6603 38.5275 29.0313 39.1718 28.2503C39.8161 27.4693 40.28 26.5557 40.5303 25.5747C40.7806 24.5936 40.8111 23.5694 40.6197 22.5753C40.4283 21.5811 40.0197 20.6414 39.423 19.8235C38.8264 19.0055 38.0564 18.3294 37.1682 17.8435C36.2799 17.3576 35.2954 17.0739 34.2848 17.0126C33.2742 16.9514 32.2625 17.114 31.3221 17.4891C31.1687 17.5554 31.0037 17.5902 30.8366 17.5917C30.6696 17.5931 30.504 17.561 30.3495 17.4973C30.1951 17.4336 30.055 17.3396 29.9375 17.2209C29.82 17.1021 29.7275 16.961 29.6655 16.8059C29.6034 16.6508 29.5731 16.4849 29.5763 16.3179C29.5795 16.1508 29.6161 15.9862 29.684 15.8335C29.7519 15.6809 29.8497 15.5435 29.9717 15.4293C30.0936 15.3151 30.2372 15.2265 30.394 15.1688C32.5462 14.3104 34.9401 14.2795 37.1139 15.0821C39.2876 15.8846 41.0871 17.4637 42.1652 19.5147C43.2433 21.5658 43.5237 23.9434 42.9522 26.189C42.3808 28.4345 40.9979 30.3889 39.0705 31.675C42.101 32.792 44.6891 34.8588 46.4486 37.5672C46.6297 37.8449 46.6931 38.1831 46.6248 38.5074C46.5565 38.8318 46.3622 39.1158 46.0846 39.2969Z" fill="#045DD0"/>
</g>
<defs>
<clipPath id="clip0_5256_38236">
<rect width="40" height="40" fill="white" transform="translate(7 7)"/>
</clipPath>
</defs>
</svg>
