<svg width="40" height="40" viewBox="0 0 40 40" fill="none" xmlns="http://www.w3.org/2000/svg">
<path d="M0 8C0 3.58172 3.58172 0 8 0H32C36.4183 0 40 3.58172 40 8V32C40 36.4183 36.4183 40 32 40H8C3.58172 40 0 36.4183 0 32V8Z" fill="#F6CCD7"/>
<path opacity="0.2" d="M21.125 17.1875C21.125 18.6338 20.6961 20.0476 19.8926 21.2501C19.0891 22.4526 17.9471 23.3899 16.6109 23.9434C15.2747 24.4968 13.8044 24.6416 12.3859 24.3595C10.9674 24.0773 9.66446 23.3809 8.64178 22.3582C7.61911 21.3355 6.92267 20.0326 6.64051 18.6141C6.35836 17.1956 6.50317 15.7253 7.05663 14.3891C7.6101 13.0529 8.54736 11.9109 9.7499 11.1074C10.9524 10.3039 12.3662 9.875 13.8125 9.875C15.7519 9.875 17.6119 10.6454 18.9832 12.0168C20.3546 13.3881 21.125 15.2481 21.125 17.1875Z" fill="#A91F44"/>
<path d="M18.4882 24.2075C19.996 23.2037 21.1407 21.7413 21.7531 20.0366C22.3654 18.3319 22.413 16.4754 21.8886 14.7416C21.3643 13.0078 20.2959 11.4888 18.8415 10.4091C17.387 9.3295 15.6237 8.74658 13.8124 8.74658C12.001 8.74658 10.2378 9.3295 8.78332 10.4091C7.32888 11.4888 6.26049 13.0078 5.73614 14.7416C5.21179 16.4754 5.25933 18.3319 5.87171 20.0366C6.4841 21.7413 7.62882 23.2037 9.13661 24.2075C6.40917 25.2127 4.07988 27.0729 2.49629 29.5105C2.41307 29.6342 2.35525 29.7732 2.32622 29.9194C2.29719 30.0657 2.29752 30.2162 2.32718 30.3623C2.35684 30.5084 2.41525 30.6472 2.49901 30.7705C2.58277 30.8939 2.69022 30.9993 2.81509 31.0808C2.93997 31.1622 3.07979 31.218 3.22643 31.245C3.37307 31.2719 3.5236 31.2694 3.66927 31.2377C3.81494 31.2059 3.95285 31.1455 4.07498 31.06C4.1971 30.9745 4.30101 30.8656 4.38067 30.7395C5.40215 29.1685 6.79992 27.8774 8.44703 26.9837C10.0941 26.09 11.9384 25.6218 13.8124 25.6218C15.6863 25.6218 17.5306 26.09 19.1777 26.9837C20.8249 27.8774 22.2226 29.1685 23.2441 30.7395C23.4091 30.9848 23.664 31.1552 23.9537 31.214C24.2433 31.2728 24.5445 31.2153 24.7921 31.0538C25.0397 30.8923 25.2137 30.6399 25.2767 30.3511C25.3396 30.0623 25.2864 29.7603 25.1285 29.5105C23.5449 27.0729 21.2156 25.2127 18.4882 24.2075ZM7.62489 17.1875C7.62489 15.9637 7.98778 14.7674 8.66767 13.7499C9.34756 12.7324 10.3139 11.9393 11.4445 11.471C12.5752 11.0027 13.8193 10.8802 15.0195 11.1189C16.2198 11.3576 17.3223 11.9469 18.1876 12.8123C19.0529 13.6776 19.6422 14.7801 19.881 15.9804C20.1197 17.1806 19.9972 18.4247 19.5289 19.5554C19.0606 20.686 18.2675 21.6523 17.25 22.3322C16.2324 23.0121 15.0362 23.375 13.8124 23.375C12.1719 23.3731 10.5992 22.7207 9.43922 21.5607C8.27924 20.4007 7.62675 18.828 7.62489 17.1875ZM37.1758 31.0672C36.9259 31.2301 36.6215 31.2872 36.3296 31.2257C36.0377 31.1643 35.7821 30.9894 35.6191 30.7395C34.5988 29.1675 33.2013 27.8759 31.5538 26.9826C29.9064 26.0892 28.0615 25.6225 26.1874 25.625C25.889 25.625 25.6029 25.5065 25.3919 25.2955C25.1809 25.0845 25.0624 24.7984 25.0624 24.5C25.0624 24.2016 25.1809 23.9155 25.3919 23.7045C25.6029 23.4935 25.889 23.375 26.1874 23.375C27.0986 23.3741 27.9984 23.172 28.8224 22.7831C29.6465 22.3942 30.3744 21.8281 30.9543 21.1252C31.5342 20.4224 31.9517 19.6001 32.177 18.7172C32.4023 17.8343 32.4297 16.9125 32.2575 16.0177C32.0852 15.1229 31.7174 14.2773 31.1804 13.5411C30.6434 12.8049 29.9505 12.1965 29.1511 11.7591C28.3517 11.3218 27.4655 11.0665 26.556 11.0113C25.6465 10.9562 24.736 11.1026 23.8896 11.4402C23.7516 11.4998 23.603 11.5312 23.4527 11.5325C23.3023 11.5338 23.1533 11.5049 23.0143 11.4476C22.8753 11.3902 22.7492 11.3057 22.6435 11.1988C22.5377 11.0919 22.4545 10.9649 22.3986 10.8253C22.3428 10.6857 22.3155 10.5364 22.3184 10.3861C22.3212 10.2357 22.3542 10.0875 22.4153 9.95017C22.4764 9.81281 22.5645 9.6891 22.6742 9.58634C22.784 9.48358 22.9132 9.40385 23.0543 9.35188C24.9913 8.57936 27.1458 8.55156 29.1022 9.27384C31.0585 9.99613 32.6781 11.4173 33.6484 13.2632C34.6187 15.1092 34.871 17.249 34.3567 19.27C33.8424 21.291 32.5978 23.05 30.8632 24.2075C33.5906 25.2127 35.9199 27.0729 37.5035 29.5105C37.6664 29.7604 37.7235 30.0648 37.662 30.3567C37.6006 30.6486 37.4257 30.9042 37.1758 31.0672Z" fill="#A91F44"/>
</svg>
