<svg width="60" height="60" viewBox="0 0 60 60" fill="none" xmlns="http://www.w3.org/2000/svg">
<path d="M26.3032 6.05915C28.2867 3.88133 31.7132 3.88133 33.6967 6.05915L36.2472 8.85972C37.2495 9.9604 38.6902 10.5571 40.1774 10.4876L43.9612 10.3108C46.9034 10.1733 49.3267 12.5964 49.1892 15.5388L49.0122 19.3226C48.9427 20.8096 49.5394 22.2503 50.6402 23.2527L53.4407 25.8032C55.6187 27.7867 55.6187 31.2132 53.4407 33.1967L50.6402 35.7472C49.5394 36.7495 48.9427 38.1902 49.0122 39.6774L49.1892 43.4612C49.3267 46.4034 46.9034 48.8267 43.9612 48.6892L40.1774 48.5122C38.6902 48.4427 37.2495 49.0394 36.2472 50.1402L33.6967 52.9407C31.7132 55.1187 28.2867 55.1187 26.3032 52.9407L23.7527 50.1402C22.7503 49.0394 21.3096 48.4427 19.8226 48.5122L16.0388 48.6892C13.0964 48.8267 10.6733 46.4034 10.8108 43.4612L10.9876 39.6774C11.0571 38.1902 10.4604 36.7495 9.35972 35.7472L6.55915 33.1967C4.38133 31.2132 4.38133 27.7867 6.55915 25.8032L9.35972 23.2527C10.4604 22.2503 11.0571 20.8096 10.9876 19.3226L10.8108 15.5388C10.6733 12.5964 13.0964 10.1733 16.0388 10.3108L19.8226 10.4876C21.3096 10.5571 22.7503 9.9604 23.7527 8.85972L26.3032 6.05915Z" stroke="black" stroke-width="3"/>
<path d="M22.5 29.5L27.5 34.5L37.5 24.5" stroke="black" stroke-width="3" stroke-linecap="round" stroke-linejoin="round"/>
</svg>
