<svg width="60" height="60" viewBox="0 0 60 60" fill="none" xmlns="http://www.w3.org/2000/svg">
<path d="M28.007 26.6671C26.9455 26.6671 26.082 27.5308 26.082 28.592C26.082 28.7047 26.082 32.8677 26.082 32.8155C26.082 33.1012 26.3135 33.3324 26.5989 33.3324C26.8844 33.3324 27.1159 33.1012 27.1159 32.8155V30.517H28.8977V32.8155C28.8977 33.1012 29.1291 33.3324 29.4146 33.3324C29.7001 33.3324 29.9315 33.1012 29.9315 32.8155C29.9315 32.631 29.9315 28.3651 29.9315 28.592C29.9316 27.5308 29.0681 26.6671 28.007 26.6671ZM27.116 29.4831V28.592C27.116 28.1007 27.5158 27.7009 28.0071 27.7009C28.4983 27.7009 28.8978 28.1007 28.8978 28.592V29.4831H27.116Z" fill="black"/>
<path d="M33.4005 27.7009C33.6859 27.7009 33.9174 27.4697 33.9174 27.184C33.9174 26.8983 33.6859 26.6671 33.4005 26.6671H31.3763C31.0908 26.6671 30.8594 26.8983 30.8594 27.184C30.8594 27.4697 31.0908 27.7009 31.3763 27.7009H31.8715V32.2985H31.3763C31.0908 32.2985 30.8594 32.5297 30.8594 32.8154C30.8594 33.1011 31.0908 33.3323 31.3763 33.3323H33.4005C33.6859 33.3323 33.9174 33.1011 33.9174 32.8154C33.9174 32.5297 33.6859 32.2985 33.4005 32.2985H32.9055V27.7009H33.4005Z" fill="black"/>
<path d="M29.9998 14.6341C30.2853 14.6341 30.5167 14.4029 30.5167 14.1172V10.6477C32.2257 10.4055 33.5458 8.93541 33.5458 7.15896C33.5458 5.21587 31.9649 3.63513 30.0217 3.63513C28.0765 3.63513 26.4941 5.21576 26.4941 7.15896C26.4941 8.92052 27.7932 10.3803 29.4828 10.6412V14.1171C29.4829 14.4029 29.7143 14.6341 29.9998 14.6341ZM27.5281 7.15896C27.5281 5.78576 28.6468 4.66908 30.0217 4.66908C31.3949 4.66908 32.5118 5.78576 32.5118 7.15896C32.5118 8.53416 31.3949 9.65283 30.0217 9.65283C30.0153 9.65283 30.0093 9.65095 30.0027 9.65095C30.0017 9.65095 30.0007 9.65037 29.9997 9.65037C29.9993 9.65037 29.999 9.6506 29.9986 9.6506C28.6347 9.63783 27.5281 8.5263 27.5281 7.15896Z" fill="black"/>
<path d="M37.7144 15.9522C37.9999 15.9522 38.2313 15.721 38.2313 15.4353V13.3135L41.7444 9.8047C42.3659 10.3519 43.1786 10.6868 44.0697 10.6868C46.0132 10.6868 47.594 9.10404 47.594 7.15896C47.594 5.21587 46.0132 3.63513 44.0697 3.63513C42.1249 3.63513 40.5424 5.21576 40.5424 7.15896C40.5424 7.83923 40.7393 8.4731 41.0742 9.01251L37.349 12.733C37.2519 12.8304 37.1973 12.9617 37.1973 13.099V15.4353C37.1974 15.721 37.4288 15.9522 37.7144 15.9522ZM44.0698 4.66908C45.4431 4.66908 46.5602 5.78576 46.5602 7.15896C46.5602 8.53416 45.4429 9.65283 44.0698 9.65283C42.6949 9.65283 41.5764 8.53416 41.5764 7.15896C41.5764 5.78576 42.6949 4.66908 44.0698 4.66908Z" fill="black"/>
<path d="M12.4062 7.15896C12.4062 9.10416 13.9871 10.6868 15.9303 10.6868C16.8234 10.6868 17.6374 10.3506 18.2595 9.80142L21.7663 13.3129V15.4353C21.7663 15.721 21.9977 15.9522 22.2832 15.9522C22.5686 15.9522 22.8001 15.721 22.8001 15.4353V13.099C22.8001 12.9622 22.7458 12.8304 22.6489 12.7335L18.9287 9.00806C19.262 8.46947 19.4578 7.83748 19.4578 7.15896C19.4578 5.21587 17.8754 3.63513 15.9302 3.63513C13.9872 3.63513 12.4062 5.21587 12.4062 7.15896ZM18.4241 7.15896C18.4241 8.53416 17.3054 9.65283 15.9304 9.65283C14.5572 9.65283 13.4403 8.53416 13.4403 7.15896C13.4403 5.78576 14.5572 4.66908 15.9304 4.66908C17.3053 4.66908 18.4241 5.78576 18.4241 7.15896Z" fill="black"/>
<path d="M30 45.3674C29.7145 45.3674 29.483 45.5986 29.483 45.8843V49.3512C27.7727 49.5922 26.4512 51.0629 26.4512 52.8405C26.4512 54.7836 28.032 56.3648 29.9752 56.3648C31.9204 56.3648 33.5028 54.7836 33.5028 52.8405C33.5028 51.08 32.2052 49.6207 30.5169 49.3588V45.8843C30.517 45.5986 30.2854 45.3674 30 45.3674ZM32.4689 52.8405C32.4689 54.2137 31.3502 55.3309 29.9752 55.3309C28.602 55.3309 27.4851 54.2136 27.4851 52.8405C27.4851 51.4653 28.602 50.3467 29.9752 50.3467C31.3502 50.3465 32.4689 51.4653 32.4689 52.8405Z" fill="black"/>
<path d="M22.8001 46.9025V44.5656C22.8001 44.2799 22.5686 44.0486 22.2832 44.0486C21.9977 44.0486 21.7663 44.2799 21.7663 44.5656V46.6884L18.2604 50.1986C17.6382 49.6492 16.8238 49.3125 15.9303 49.3125C13.9872 49.3125 12.4062 50.8951 12.4062 52.8403C12.4062 54.7834 13.9871 56.3646 15.9303 56.3646C17.8755 56.3646 19.4579 54.7834 19.4579 52.8403C19.4579 52.1622 19.2623 51.5305 18.9294 50.9922L22.649 47.2679C22.7458 47.1711 22.8001 47.0394 22.8001 46.9025ZM15.9302 55.3309C14.557 55.3309 13.4401 54.2136 13.4401 52.8405C13.4401 51.4653 14.557 50.3467 15.9302 50.3467C17.3052 50.3467 18.4238 51.4653 18.4238 52.8405C18.4239 54.2136 17.3052 55.3309 15.9302 55.3309Z" fill="black"/>
<path d="M44.0696 56.3648C46.013 56.3648 47.5939 54.7836 47.5939 52.8405C47.5939 50.8953 46.013 49.3127 44.0696 49.3127C43.1768 49.3127 42.3627 49.6489 41.7406 50.1981L38.2311 46.6885V44.5657C38.2311 44.28 37.9996 44.0488 37.7142 44.0488C37.4287 44.0488 37.1973 44.28 37.1973 44.5657V46.9026C37.1973 47.04 37.2518 47.1712 37.3487 47.2681L41.0716 50.9911C40.7382 51.5297 40.5423 52.1619 40.5423 52.8405C40.5423 54.7836 42.1247 56.3648 44.0696 56.3648ZM44.0696 50.3465C45.4428 50.3465 46.56 51.4652 46.56 52.8404C46.56 54.2136 45.4427 55.3308 44.0696 55.3308C42.6946 55.3308 41.5762 54.2135 41.5762 52.8404C41.5762 51.4653 42.6946 50.3465 44.0696 50.3465Z" fill="black"/>
<path d="M52.6658 32.6141C54.0655 31.1481 54.0655 28.8515 52.6658 27.3854C48.4883 23.0094 39.9884 15.6691 30.0015 15.6691C20.0137 15.6691 11.5122 23.0095 7.33332 27.3854C5.93316 28.8514 5.93316 31.1485 7.33332 32.6141C11.5121 36.9901 20.0137 44.3304 30.0015 44.3304C39.9884 44.3304 48.4882 36.99 52.6658 32.6141ZM30.0015 43.2964C20.3987 43.2964 12.1457 36.1564 8.08109 31.9002C7.06332 30.8345 7.06332 29.1649 8.08109 28.0992C12.1459 23.8428 20.3987 16.703 30.0015 16.703C39.6036 16.703 47.8544 23.843 51.9181 28.0992C52.9354 29.1649 52.9354 30.8345 51.9181 31.9002C47.8544 36.1565 39.6035 43.2964 30.0015 43.2964Z" fill="black"/>
<path d="M30.0014 18.5099C23.6648 18.5099 18.5098 23.6648 18.5098 30.0015C18.5098 36.3362 23.665 41.4897 30.0014 41.4897C36.3359 41.4897 41.4893 36.3362 41.4893 30.0015C41.4893 23.6647 36.3359 18.5099 30.0014 18.5099ZM30.0014 40.4557C24.2348 40.4557 19.5436 35.7657 19.5436 30.0014C19.5436 24.2351 24.2348 19.5436 30.0014 19.5436C35.7656 19.5436 40.4554 24.2351 40.4554 30.0014C40.4554 35.7657 35.7656 40.4557 30.0014 40.4557Z" fill="black"/>
<path d="M35.7804 23.4814C35.4606 23.1619 35.0358 22.9857 34.5839 22.9857H25.4127C24.9674 22.9857 24.5315 23.1664 24.216 23.4814L23.4804 24.2175C23.1652 24.532 22.9844 24.9682 22.9844 25.414V34.5854C22.9844 35.0377 23.1605 35.4628 23.4801 35.7819L24.2161 36.5179C24.5314 36.8329 24.9673 37.0136 25.4126 37.0136H34.5838C35.0357 37.0136 35.4605 36.8375 35.7805 36.5179L36.5161 35.7819C36.8359 35.4628 37.0122 35.0377 37.0122 34.5854V25.414C37.0122 24.9682 36.8315 24.532 36.5165 24.2175L35.7804 23.4814ZM35.9784 34.5854C35.9784 34.7611 35.9099 34.9267 35.7855 35.0509L35.0499 35.7869C34.9252 35.9111 34.7596 35.9798 34.5839 35.9798H25.4127C25.2395 35.9798 25.0697 35.9096 24.947 35.7869L24.211 35.0509C24.0868 34.9267 24.0184 34.7611 24.0184 34.5854V25.414C24.0184 25.2408 24.0886 25.0712 24.2113 24.9485L24.9469 24.2124C25.0698 24.0897 25.2398 24.0195 25.4129 24.0195H34.5841C34.7597 24.0195 34.9253 24.0882 35.0498 24.2124L35.7858 24.9485C35.9083 25.0712 35.9784 25.2408 35.9784 25.414V34.5854Z" fill="black"/>
</svg>
