<svg width="80" height="62" viewBox="0 0 80 62" fill="none" xmlns="http://www.w3.org/2000/svg">
<path d="M17.5793 21.8682C17.5612 21.8682 17.5426 21.8653 17.5245 21.8595C17.253 21.7733 16.9641 21.6213 16.6712 21.4203C16.5885 21.3636 16.5676 21.2504 16.6245 21.1677C16.6598 21.1164 16.7166 21.0888 16.7744 21.0888C16.8098 21.0888 16.8456 21.0991 16.8771 21.1209C17.1474 21.3068 17.41 21.4424 17.6342 21.5133C17.7297 21.5434 17.7828 21.6457 17.7525 21.7412C17.728 21.8185 17.6564 21.8682 17.5793 21.8682ZM18.4348 21.7582C18.3839 21.7582 18.3334 21.737 18.2974 21.6957C18.2318 21.6197 18.24 21.505 18.3157 21.4392C18.3915 21.3738 18.4673 21.2809 18.5383 21.1639C18.6095 21.0469 18.6759 20.9058 18.7347 20.7468C18.762 20.6737 18.8314 20.6282 18.9052 20.6282C18.9262 20.6282 18.9475 20.632 18.9682 20.6397C19.0623 20.6743 19.1105 20.7789 19.0756 20.8731C19.01 21.0497 18.9349 21.211 18.849 21.3527C18.7629 21.4941 18.6659 21.6165 18.5538 21.7136C18.5194 21.7435 18.4771 21.7582 18.4348 21.7582ZM16.0727 20.875C16.0274 20.875 15.982 20.858 15.9468 20.8241C15.7273 20.6128 15.5158 20.3788 15.3219 20.1287C15.2605 20.0495 15.275 19.9354 15.3543 19.8739C15.3875 19.8482 15.4266 19.8357 15.4655 19.8357C15.5198 19.8357 15.5734 19.8601 15.6092 19.9062C15.7918 20.1419 15.9918 20.3631 16.1988 20.5625C16.2711 20.632 16.2733 20.7471 16.2037 20.8196C16.1679 20.8564 16.1205 20.875 16.0727 20.875ZM19.1307 20.1124C19.1207 20.1124 19.1107 20.1117 19.1005 20.1101C19.0015 20.0935 18.9346 19.9999 18.9511 19.9008C18.9977 19.6225 19.0274 19.3247 19.0389 19.0202C19.0425 18.9221 19.1232 18.8455 19.2204 18.8455C19.2226 18.8455 19.2249 18.8455 19.2273 18.8455C19.3276 18.849 19.4057 18.9336 19.4021 19.0336C19.3901 19.3529 19.3588 19.6658 19.3096 19.9607C19.2947 20.0495 19.2179 20.1124 19.1307 20.1124ZM14.9682 19.4395C14.9035 19.4395 14.8408 19.4049 14.8079 19.344C14.6551 19.0599 14.5315 18.7653 14.4496 18.4662C14.4231 18.3694 14.4799 18.2694 14.5768 18.2431C14.5928 18.2386 14.609 18.2364 14.6249 18.2364C14.7047 18.2364 14.7779 18.2896 14.7999 18.3701C14.8733 18.6381 14.986 18.9083 15.1279 19.1715C15.1755 19.26 15.1424 19.3699 15.0541 19.4177C15.0267 19.4324 14.9972 19.4395 14.9682 19.4395ZM19.2004 18.3005C19.1068 18.3005 19.0274 18.2287 19.0196 18.1335C18.9949 17.8337 18.9513 17.5388 18.8879 17.2612C18.8657 17.1634 18.927 17.066 19.0247 17.0438C19.0383 17.0406 19.052 17.039 19.0652 17.039C19.1481 17.039 19.2231 17.0964 19.2422 17.1804C19.31 17.4769 19.3558 17.7885 19.3818 18.1037C19.3899 18.204 19.3156 18.2918 19.2155 18.2998C19.2106 18.3002 19.2055 18.3005 19.2004 18.3005ZM14.5277 17.7017C14.523 17.7017 14.5185 17.7013 14.5137 17.701C14.4138 17.6936 14.3387 17.6064 14.3462 17.5061C14.3662 17.2416 14.4307 16.98 14.5481 16.731C14.5742 16.6758 14.6028 16.6213 14.6335 16.5678C14.6671 16.5094 14.7281 16.4767 14.791 16.4767C14.8219 16.4767 14.853 16.4848 14.8817 16.5011C14.9685 16.5511 14.9985 16.6624 14.9484 16.7492C14.9224 16.7944 14.8986 16.84 14.8768 16.8861C14.7794 17.0929 14.7256 17.3093 14.7087 17.5334C14.7014 17.6289 14.6218 17.7017 14.5277 17.7017ZM18.7785 16.5421C18.7102 16.5421 18.6448 16.5034 18.6139 16.4373C18.4831 16.1575 18.3227 15.925 18.1368 15.758C18.0623 15.691 18.0561 15.5763 18.1233 15.5016C18.1591 15.4618 18.2087 15.4413 18.2583 15.4413C18.3018 15.4413 18.3452 15.457 18.3799 15.4881C18.6123 15.6971 18.7967 15.9709 18.943 16.2834C18.9855 16.3742 18.9462 16.4825 18.8554 16.5248C18.8305 16.5367 18.8043 16.5421 18.7785 16.5421ZM15.379 16.1536C15.3272 16.1536 15.2758 16.1315 15.2398 16.0889C15.1753 16.0119 15.1853 15.8971 15.2621 15.8327C15.5065 15.6275 15.7836 15.456 16.0741 15.3268C16.0981 15.3163 16.123 15.3111 16.1477 15.3111C16.2173 15.3111 16.2838 15.3512 16.314 15.4192C16.3547 15.5109 16.3133 15.6182 16.2217 15.659C15.9622 15.774 15.7129 15.9286 15.4958 16.1113C15.4617 16.1398 15.4202 16.1536 15.379 16.1536ZM17.9087 15.5702C17.8829 15.5702 17.8566 15.5647 17.8317 15.5528C17.6538 15.4692 17.4465 15.4285 17.2219 15.4285C17.1616 15.4285 17.1002 15.4314 17.0379 15.4371C17.0321 15.4374 17.0264 15.4381 17.0208 15.4381C16.9279 15.4381 16.8487 15.3672 16.84 15.2733C16.8307 15.1733 16.9041 15.0845 17.0041 15.0752C17.0771 15.0685 17.1498 15.0649 17.2219 15.0649C17.4901 15.0649 17.7512 15.1137 17.9863 15.2239C18.077 15.2669 18.116 15.3749 18.0733 15.4657C18.0425 15.5317 17.977 15.5702 17.9087 15.5702Z" fill="#F6CCD7"/>
<path d="M10.4579 26.7502C10.4567 26.7502 10.4555 26.7502 10.4543 26.7502C10.1436 26.7443 9.83416 26.7234 9.52998 26.6865C9.43034 26.6745 9.35938 26.5839 9.37148 26.4844C9.38266 26.392 9.46107 26.3243 9.55165 26.3243C9.55895 26.3243 9.56631 26.3249 9.57373 26.3258C9.86489 26.361 10.1621 26.381 10.4614 26.3869C10.5617 26.389 10.6415 26.4719 10.6395 26.5723C10.6376 26.6713 10.5566 26.7502 10.4579 26.7502ZM11.3661 26.7267C11.2716 26.7267 11.1918 26.6534 11.185 26.5577C11.178 26.4576 11.2534 26.3708 11.3535 26.3637C11.6528 26.3425 11.9499 26.3085 12.2407 26.2623C12.2503 26.2609 12.2598 26.2603 12.2692 26.2603C12.3571 26.2603 12.4344 26.324 12.4485 26.4138C12.4641 26.5127 12.3965 26.6057 12.2973 26.6215C11.9963 26.6689 11.6889 26.7043 11.3791 26.7261C11.3747 26.7264 11.3704 26.7267 11.3661 26.7267ZM8.65874 26.5258C8.64431 26.5258 8.62965 26.5243 8.61504 26.5208C8.30663 26.4445 8.00864 26.3482 7.7258 26.2299C7.63323 26.1911 7.58953 26.0847 7.62825 25.9923C7.65737 25.9226 7.72487 25.8806 7.79596 25.8806C7.8193 25.8806 7.84308 25.885 7.86597 25.8946C8.12971 26.0051 8.41005 26.0957 8.70219 26.1679C8.79962 26.192 8.85905 26.2904 8.835 26.3878C8.81455 26.4707 8.74034 26.5258 8.65874 26.5258ZM13.1593 26.4427C13.0779 26.4427 13.0039 26.3875 12.9832 26.305C12.9587 26.2078 13.0177 26.1089 13.1151 26.0847C13.4129 26.0096 13.6984 25.9223 13.9656 25.8245C13.9864 25.8171 14.0074 25.8132 14.0281 25.8132C14.1023 25.8132 14.1719 25.8591 14.1987 25.9327C14.2333 26.0269 14.1848 26.1312 14.0906 26.1658C13.8105 26.2683 13.5132 26.3592 13.2036 26.437C13.1887 26.4406 13.1738 26.4427 13.1593 26.4427ZM6.99634 25.8159C6.9612 25.8159 6.9257 25.8057 6.89444 25.7843C6.6293 25.6046 6.38821 25.3962 6.17862 25.1572C6.11243 25.0818 6.11991 24.967 6.19531 24.9009C6.22983 24.8705 6.27254 24.8556 6.3151 24.8556C6.36559 24.8556 6.41584 24.8767 6.45175 24.9176C6.63934 25.1313 6.85649 25.3193 7.09856 25.4839C7.18157 25.5402 7.20318 25.6531 7.14682 25.7363C7.11168 25.7879 7.05451 25.8159 6.99634 25.8159ZM14.8587 25.8096C14.7938 25.8096 14.7311 25.7747 14.6984 25.7133C14.651 25.6248 14.6844 25.5149 14.7729 25.4675C15.054 25.3169 15.296 25.1533 15.4877 24.9825C15.5224 24.9518 15.5655 24.9366 15.6085 24.9366C15.6585 24.9366 15.7083 24.9572 15.7443 24.9974C15.8109 25.0726 15.8042 25.1873 15.7294 25.2541C15.5106 25.4487 15.2455 25.6266 14.9442 25.7879C14.917 25.8025 14.8877 25.8096 14.8587 25.8096ZM16.1294 24.5695C16.1107 24.5695 16.0915 24.5665 16.0726 24.5602C15.9774 24.5289 15.9256 24.4261 15.957 24.3307C15.9917 24.2249 16.0084 24.1155 16.0084 24.0008C16.0084 23.8583 15.9825 23.7078 15.9321 23.551C15.9016 23.4554 15.9541 23.3531 16.0497 23.3224C16.0682 23.3165 16.0867 23.3138 16.1053 23.3138C16.1821 23.3138 16.2536 23.363 16.2783 23.4402C16.3379 23.6264 16.3718 23.8142 16.3718 24.0008C16.3718 24.151 16.3497 24.3 16.302 24.4446C16.277 24.5212 16.206 24.5695 16.1294 24.5695ZM5.81575 24.4634C5.7486 24.4634 5.68405 24.4261 5.65249 24.3617C5.51488 24.0813 5.4083 23.7811 5.33346 23.4706C5.30997 23.3728 5.37 23.2748 5.46755 23.2515C5.48186 23.2479 5.49616 23.2464 5.51026 23.2464C5.59228 23.2464 5.6667 23.3022 5.68676 23.3856C5.75567 23.6714 5.85361 23.9468 5.97872 24.2017C6.02292 24.2917 5.98573 24.4008 5.89563 24.4449C5.86988 24.4574 5.84261 24.4634 5.81575 24.4634ZM15.6896 22.873C15.632 22.873 15.5753 22.8459 15.54 22.7949C15.3821 22.5672 15.191 22.3386 14.9793 22.1166C14.9101 22.0438 14.9128 21.9288 14.9855 21.8596C15.0207 21.8263 15.0658 21.8096 15.1109 21.8096C15.1588 21.8096 15.2068 21.8286 15.2424 21.8659C15.4645 22.099 15.6674 22.341 15.8386 22.5878C15.8958 22.6703 15.8755 22.7836 15.793 22.8408C15.7613 22.8626 15.7252 22.873 15.6896 22.873ZM5.38755 22.7109C5.29015 22.7109 5.20956 22.6337 5.20608 22.5356C5.20411 22.4802 5.20312 22.4247 5.20312 22.369C5.20312 22.1085 5.22482 21.8483 5.26908 21.5932C5.28443 21.505 5.36121 21.4427 5.44791 21.4427C5.45822 21.4427 5.46868 21.4436 5.47917 21.4454C5.57806 21.4623 5.64429 21.5565 5.62715 21.6555C5.58656 21.8891 5.5665 22.1288 5.5665 22.369C5.5665 22.4203 5.56742 22.4715 5.56924 22.5228C5.57279 22.6232 5.49437 22.7073 5.39411 22.7109C5.39191 22.7109 5.38973 22.7109 5.38755 22.7109ZM14.4497 21.5488C14.4079 21.5488 14.3657 21.5345 14.3316 21.5053C14.101 21.3077 13.863 21.1217 13.6288 20.9527C13.5474 20.8937 13.5292 20.7801 13.5881 20.6988C13.6235 20.6496 13.6791 20.6237 13.7354 20.6237C13.7723 20.6237 13.8096 20.6347 13.8417 20.6579C14.0836 20.8329 14.3292 21.0248 14.568 21.2293C14.6441 21.2945 14.653 21.4093 14.5878 21.4856C14.5518 21.5273 14.5009 21.5488 14.4497 21.5488ZM5.70446 20.9369C5.68035 20.9369 5.65585 20.9321 5.63234 20.922C5.5403 20.8818 5.49795 20.7748 5.53786 20.683C5.66524 20.3888 5.83033 20.1125 6.0352 19.8657C6.07112 19.8222 6.12292 19.7999 6.17511 19.7999C6.216 19.7999 6.2571 19.8136 6.29102 19.8419C6.36827 19.906 6.37894 20.0204 6.31486 20.0976C6.1338 20.3158 5.98618 20.5623 5.87131 20.8272C5.84159 20.8958 5.77471 20.9369 5.70446 20.9369ZM12.9765 20.486C12.9447 20.486 12.9127 20.4776 12.8836 20.4603C12.8529 20.4421 12.8228 20.4243 12.793 20.407C12.7494 20.3819 12.6564 20.328 12.5212 20.2553C12.386 20.1825 12.2091 20.0907 11.9999 19.9915C11.9093 19.9483 11.8708 19.8398 11.9139 19.7492C11.945 19.6839 12.0102 19.6455 12.0781 19.6455C12.1042 19.6455 12.1308 19.6511 12.156 19.6634C12.3716 19.7656 12.5538 19.8601 12.6935 19.9355C12.8331 20.0106 12.9307 20.0669 12.9748 20.0925C13.0061 20.1107 13.0377 20.1292 13.0695 20.1483C13.1558 20.1995 13.184 20.311 13.1327 20.3974C13.0986 20.4544 13.0383 20.486 12.9765 20.486ZM11.2427 19.6499C11.221 19.6499 11.199 19.6461 11.1776 19.6377C10.9131 19.5364 10.6279 19.4389 10.3313 19.3558C10.2347 19.3287 10.1784 19.2285 10.2055 19.1319C10.228 19.0518 10.3009 18.999 10.3803 18.999C10.3965 18.999 10.4131 19.0014 10.4295 19.0062C10.7388 19.0926 11.0343 19.1936 11.3078 19.2985C11.4015 19.3346 11.4483 19.4395 11.4123 19.5334C11.3846 19.6055 11.3157 19.6499 11.2427 19.6499ZM6.85551 19.5674C6.79486 19.5674 6.73555 19.5373 6.70112 19.4818C6.64807 19.3966 6.67412 19.2845 6.75927 19.2315C7.03785 19.058 7.33602 18.9367 7.6436 18.8577C7.65874 18.8539 7.67391 18.8521 7.68884 18.8521C7.76982 18.8521 7.8437 18.9066 7.86472 18.9889C7.88963 19.086 7.83104 19.185 7.73385 19.21C7.45825 19.2807 7.19576 19.3877 6.95142 19.54C6.92153 19.5587 6.88832 19.5674 6.85551 19.5674ZM9.49338 19.168C9.4842 19.168 9.47487 19.1671 9.46554 19.1659C9.19617 19.1245 8.9248 19.1006 8.65748 19.1006C8.63516 19.1006 8.61284 19.1009 8.59057 19.1012C8.58965 19.1012 8.58873 19.1012 8.5878 19.1012C8.48873 19.1012 8.40766 19.0217 8.40617 18.9224C8.40465 18.822 8.4848 18.7394 8.58512 18.7379C8.60923 18.7376 8.63337 18.7373 8.65748 18.7373C8.94623 18.7373 9.23578 18.7627 9.52074 18.8065C9.6199 18.8217 9.68797 18.9147 9.67271 19.0139C9.65891 19.1036 9.58151 19.168 9.49338 19.168Z" fill="#F6CCD7"/>
<path d="M12.7791 56.6365C12.679 56.6363 12.5977 56.5552 12.5975 56.455C12.5973 56.3547 12.6785 56.2731 12.7788 56.2729C13.073 56.2723 13.3742 56.268 13.6824 56.2595C13.6842 56.2593 13.6858 56.2593 13.6876 56.2593C13.7856 56.2593 13.8664 56.3374 13.8692 56.4359C13.8719 56.5362 13.7929 56.6198 13.6925 56.6227C13.3811 56.6312 13.077 56.6357 12.7795 56.6365C12.7793 56.6365 12.7793 56.6365 12.7791 56.6365ZM11.871 56.6252C11.8694 56.6252 11.8677 56.6252 11.866 56.6252C11.5537 56.6169 11.2495 56.6038 10.9534 56.5865C10.8532 56.5805 10.7767 56.4946 10.7826 56.3945C10.7882 56.298 10.8683 56.2233 10.9638 56.2233C10.9674 56.2233 10.971 56.2235 10.9746 56.2237C11.2669 56.2407 11.5672 56.2536 11.8758 56.262C11.9761 56.2645 12.0553 56.3481 12.0526 56.4484C12.0499 56.5471 11.9691 56.6252 11.871 56.6252ZM10.0593 56.518C10.0536 56.518 10.0479 56.5177 10.0421 56.5171C9.72965 56.4878 9.42684 56.4532 9.13341 56.4137H9.13346C9.03399 56.4004 8.96419 56.3091 8.9775 56.2095C8.98976 56.1183 9.06774 56.052 9.15736 56.052C9.16543 56.052 9.17355 56.0525 9.18178 56.0536C9.47034 56.0923 9.76833 56.1264 10.0762 56.1554C10.1761 56.1648 10.2494 56.2535 10.24 56.3534C10.2312 56.4475 10.152 56.518 10.0593 56.518ZM8.26151 56.2751C8.25082 56.2751 8.23997 56.2742 8.22912 56.2722C7.91845 56.2164 7.61946 56.1548 7.33164 56.0879C7.23385 56.0652 7.17306 55.9675 7.19575 55.8697C7.2153 55.7858 7.28998 55.7291 7.37257 55.7291C7.3862 55.7291 7.40009 55.7307 7.41387 55.734C7.69561 55.7994 7.98862 55.8597 8.29348 55.9146C8.39226 55.9324 8.45788 56.0269 8.44011 56.1256C8.42429 56.2135 8.34777 56.2751 8.26151 56.2751ZM6.49553 55.8626C6.47855 55.8626 6.46131 55.8603 6.44423 55.8552C6.13927 55.7656 5.84857 55.6697 5.57154 55.5681C5.47731 55.5336 5.42889 55.4293 5.46342 55.335C5.49036 55.2614 5.55996 55.2158 5.63401 55.2158C5.65476 55.2158 5.67588 55.2194 5.69653 55.2271C5.96591 55.3257 6.24906 55.4191 6.54668 55.5065C6.64296 55.5349 6.69804 55.6357 6.66979 55.732C6.64652 55.8112 6.57409 55.8626 6.49553 55.8626ZM4.79455 55.2365C4.76944 55.2365 4.74392 55.2312 4.71955 55.2202C4.42775 55.0877 4.15376 54.9487 3.89655 54.8043C3.80908 54.7552 3.77795 54.6445 3.82705 54.5569C3.86038 54.4975 3.92212 54.4641 3.98569 54.4641C4.01577 54.4641 4.04633 54.4717 4.07447 54.4873C4.32246 54.6267 4.58712 54.761 4.86975 54.8893C4.9611 54.9307 5.00156 55.0385 4.9601 55.1299C4.92971 55.1969 4.86367 55.2365 4.79455 55.2365ZM3.21693 54.3467C3.18108 54.3467 3.14481 54.336 3.11316 54.314C2.84792 54.129 2.60502 53.9385 2.3827 53.7442C2.30713 53.6781 2.29943 53.5635 2.36541 53.4878C2.40136 53.4468 2.45172 53.4257 2.50235 53.4257C2.54475 53.4257 2.58736 53.4405 2.62179 53.4706C2.83409 53.6561 3.06652 53.8385 3.32101 54.0158C3.40329 54.0733 3.42352 54.1865 3.36613 54.269C3.33081 54.3195 3.27436 54.3467 3.21693 54.3467ZM1.85606 53.153C1.80633 53.153 1.75675 53.1326 1.72085 53.0927C1.50231 52.8496 1.31134 52.6046 1.14453 52.3619C1.08766 52.2792 1.10863 52.166 1.19133 52.1093C1.22277 52.0877 1.25862 52.0773 1.2941 52.0773C1.3519 52.0773 1.40876 52.1048 1.44398 52.156C1.6021 52.386 1.78332 52.6186 1.99112 52.8497C2.05825 52.9244 2.05212 53.0392 1.97749 53.1065C1.94274 53.1375 1.89935 53.153 1.85606 53.153ZM0.83223 51.6596C0.765725 51.6596 0.701631 51.6229 0.669715 51.5595C0.518362 51.2581 0.401074 50.9681 0.3102 50.6977C0.278284 50.6025 0.329433 50.4995 0.424605 50.4675C0.443786 50.4611 0.463282 50.4581 0.482463 50.4581C0.558349 50.4581 0.629151 50.506 0.654674 50.582C0.740465 50.8373 0.851306 51.1113 0.994484 51.3964C1.0395 51.4859 1.00334 51.5953 0.913671 51.6404C0.887467 51.6535 0.859639 51.6596 0.83223 51.6596ZM0.256954 49.9408C0.170429 49.9408 0.0937571 49.8786 0.0781921 49.7905C0.00901431 49.3971 0 49.1113 0 48.9885C0 48.9478 0.000995537 48.9249 0.00110035 48.9222L0.00125773 48.9191L0.00152002 48.916C0.00372113 48.8889 0.0061318 48.8618 0.00864735 48.8348C0.0175566 48.7407 0.0966917 48.6702 0.189348 48.6702C0.195061 48.6702 0.200826 48.6705 0.206643 48.6711C0.306584 48.6806 0.379902 48.7692 0.370468 48.869C0.368163 48.8933 0.366013 48.9174 0.364022 48.9416C0.363969 48.9434 0.363865 48.9462 0.363813 48.9498C0.363603 48.9582 0.363393 48.971 0.363393 48.9885C0.363393 49.0935 0.371149 49.3584 0.436135 49.7274C0.453534 49.8263 0.3875 49.9206 0.28866 49.9379C0.278021 49.9399 0.267383 49.9408 0.256954 49.9408ZM66.7058 48.8919C66.7687 48.7897 66.8305 48.6898 66.8919 48.5915C66.9327 48.6767 66.9013 48.7803 66.8185 48.8279C66.7807 48.8493 66.743 48.8706 66.7058 48.8919ZM67.515 48.3993C67.4521 48.3993 67.3913 48.3667 67.3578 48.3086C67.3074 48.2217 67.3368 48.1106 67.4238 48.0602C67.6806 47.9118 67.9421 47.7601 68.2094 47.6056C68.2382 47.5891 68.2691 47.5811 68.3 47.5811C68.3629 47.5811 68.4237 47.6138 68.4578 47.6719C68.5081 47.759 68.4782 47.87 68.3912 47.9201C68.124 48.0746 67.863 48.2261 67.6062 48.3748C67.5773 48.3914 67.5459 48.3993 67.515 48.3993ZM0.340596 48.1392C0.326498 48.1392 0.312087 48.1375 0.297779 48.134C0.200249 48.1106 0.140242 48.0123 0.163773 47.9148C0.235991 47.6158 0.328437 47.3196 0.43886 47.0265C0.466269 46.9537 0.535395 46.9088 0.60887 46.9088C0.630147 46.9088 0.651791 46.9126 0.672912 46.9205C0.766826 46.9559 0.814254 47.0607 0.778879 47.1547C0.673383 47.4346 0.585496 47.7166 0.517052 48.0001C0.496927 48.0833 0.422561 48.1392 0.340596 48.1392ZM69.0877 47.4928C69.0243 47.4928 68.963 47.4597 68.9295 47.4008C68.8797 47.3136 68.9101 47.2028 68.9976 47.1532C69.2549 47.0063 69.519 46.8576 69.79 46.7067C69.8178 46.6911 69.8482 46.6837 69.878 46.6837C69.942 46.6837 70.0038 46.7175 70.0368 46.7773C70.0856 46.8648 70.0541 46.9755 69.9666 47.0244C69.6967 47.1744 69.4341 47.3227 69.1773 47.4688C69.149 47.485 69.1181 47.4928 69.0877 47.4928ZM70.6741 46.611C70.6096 46.611 70.5473 46.5765 70.5143 46.5154C70.4666 46.4271 70.4996 46.317 70.5876 46.2694C70.8486 46.1286 71.1164 45.9863 71.3921 45.843C71.4188 45.829 71.4476 45.8224 71.4759 45.8224C71.5414 45.8224 71.6049 45.858 71.6373 45.9202C71.6835 46.0092 71.6489 46.119 71.5598 46.1653C71.2862 46.3078 71.02 46.4491 70.7606 46.5892C70.7328 46.6039 70.7034 46.611 70.6741 46.611ZM0.973573 46.4409C0.946216 46.4409 0.918493 46.4347 0.892446 46.4217C0.802673 46.3768 0.766302 46.2676 0.811162 46.1778C0.947265 45.9058 1.09762 45.6366 1.2604 45.3708H1.26045C1.29467 45.3148 1.35442 45.2839 1.41558 45.2839C1.44791 45.2839 1.48067 45.2926 1.51028 45.3106C1.59586 45.3631 1.62274 45.4748 1.57034 45.5604C1.41254 45.8183 1.26726 46.0783 1.13625 46.3405C1.10438 46.404 1.04018 46.4409 0.973573 46.4409ZM72.2825 45.7677C72.218 45.7677 72.1551 45.7331 72.1226 45.672C72.075 45.5837 72.108 45.4734 72.1965 45.426C72.4628 45.2828 72.7227 45.1338 72.9764 44.9795C73.0057 44.9616 73.0387 44.953 73.0707 44.953C73.132 44.953 73.1917 44.9841 73.2258 45.0404C73.2782 45.126 73.251 45.2379 73.1656 45.2901C72.9061 45.4478 72.6404 45.5998 72.3684 45.7461C72.3412 45.7608 72.3118 45.7677 72.2825 45.7677ZM1.91764 44.8905C1.88111 44.8905 1.84417 44.8794 1.81214 44.8565C1.73049 44.7982 1.71163 44.6849 1.76996 44.6031C1.94641 44.3562 2.13256 44.1123 2.32694 43.8718C2.36284 43.8274 2.41541 43.8044 2.46839 43.8044C2.50848 43.8044 2.54884 43.8174 2.58243 43.8447C2.66052 43.9077 2.67267 44.022 2.60963 44.1001C2.41944 44.3356 2.23759 44.5738 2.06564 44.8144C2.03016 44.864 1.97435 44.8905 1.91764 44.8905ZM73.8343 44.8236C73.7761 44.8236 73.719 44.796 73.6839 44.7446C73.6273 44.6617 73.6482 44.5488 73.731 44.492C73.981 44.3211 74.2231 44.1452 74.4584 43.9644C74.4915 43.9391 74.5302 43.9268 74.569 43.9268C74.6235 43.9268 74.6775 43.9513 74.7131 43.9978C74.7745 44.0774 74.7593 44.1915 74.6801 44.2526C74.4396 44.4374 74.1917 44.6172 73.9365 44.7919C73.905 44.8133 73.8694 44.8236 73.8343 44.8236ZM75.2739 43.7173C75.2231 43.7173 75.1722 43.6959 75.1366 43.6541C75.0711 43.578 75.0795 43.4633 75.1555 43.3977C75.385 43.2004 75.6067 42.9987 75.82 42.7932C75.8551 42.7592 75.9007 42.7423 75.9458 42.7423C75.9935 42.7423 76.0411 42.761 76.0768 42.7979C76.1465 42.8702 76.1444 42.9852 76.0721 43.055C75.8535 43.2652 75.6271 43.4715 75.3923 43.6733C75.3583 43.7028 75.3158 43.7173 75.2739 43.7173ZM3.05714 43.4757C3.01406 43.4757 2.97077 43.4604 2.93613 43.4295C2.86129 43.3626 2.85484 43.2478 2.92166 43.173C3.12422 42.9462 3.33301 42.7227 3.54673 42.5029C3.58236 42.4661 3.62969 42.4478 3.67706 42.4478C3.72271 42.4478 3.76836 42.4649 3.80368 42.499C3.87563 42.569 3.87726 42.684 3.8074 42.7559C3.59688 42.9727 3.39155 43.1924 3.19266 43.415C3.15681 43.4551 3.10708 43.4757 3.05714 43.4757ZM76.5815 42.4569C76.5374 42.4569 76.4934 42.4409 76.4583 42.4085C76.3844 42.3406 76.3802 42.2256 76.4483 42.1518C76.6538 41.9292 76.8503 41.7034 77.0374 41.4748C77.073 41.4308 77.1255 41.4081 77.1779 41.4081C77.2182 41.4081 77.2591 41.4215 77.2932 41.4492C77.3707 41.5128 77.3822 41.6272 77.3183 41.7048C77.127 41.9392 76.9258 42.1705 76.7151 42.3985C76.6795 42.4373 76.6302 42.4569 76.5815 42.4569ZM4.32236 42.1709C4.27456 42.1707 4.22687 42.152 4.19118 42.1149C4.12174 42.0424 4.12415 41.9274 4.19663 41.858C4.41685 41.6468 4.64063 41.4392 4.86655 41.2355C4.9013 41.2041 4.9448 41.1888 4.98819 41.1888C5.03782 41.1888 5.08735 41.209 5.12319 41.2488C5.19038 41.3233 5.18446 41.4381 5.10993 41.5053C4.88652 41.7069 4.66547 41.912 4.44808 42.1202C4.41286 42.154 4.36758 42.1709 4.32236 42.1709ZM77.7308 41.0509C77.6941 41.0509 77.6569 41.0398 77.6249 41.0168C77.5437 40.9582 77.5248 40.8447 77.5835 40.7631C77.7601 40.5165 77.9262 40.268 78.0819 40.0181C78.116 39.9627 78.1752 39.9324 78.236 39.9324C78.269 39.9324 78.302 39.9411 78.3319 39.9596C78.4173 40.0127 78.443 40.1246 78.3906 40.21C78.2307 40.4667 78.0604 40.722 77.8785 40.9751C77.8429 41.0246 77.7874 41.0509 77.7308 41.0509ZM78.6872 39.5076C78.6589 39.5076 78.6301 39.5009 78.6028 39.4867C78.5143 39.44 78.4797 39.3302 78.5268 39.2414C78.6678 38.9723 78.7962 38.7029 78.9115 38.4345C78.9408 38.3654 79.0079 38.3242 79.0787 38.3242C79.1023 38.3242 79.1264 38.3289 79.1499 38.3389C79.2422 38.3785 79.2846 38.4854 79.2453 38.5774C79.1264 38.8551 78.9938 39.1331 78.8481 39.4104C78.8161 39.4721 78.7527 39.5076 78.6872 39.5076ZM79.3994 37.8381C79.3811 37.8381 79.3617 37.8353 79.3428 37.8291C79.248 37.7978 79.1955 37.6953 79.227 37.5999C79.3218 37.311 79.4005 37.0245 79.4623 36.7418C79.4812 36.6569 79.5561 36.599 79.6394 36.599C79.6525 36.599 79.6656 36.6004 79.6787 36.6033C79.7767 36.6248 79.8386 36.7218 79.8176 36.8198C79.7521 37.115 79.6704 37.4132 79.5724 37.7131C79.5472 37.7897 79.4759 37.8381 79.3994 37.8381ZM79.7841 36.0662C79.7783 36.0662 79.772 36.0659 79.7663 36.0651C79.6662 36.0551 79.5933 35.9661 79.6033 35.8664C79.6253 35.6449 79.6368 35.427 79.6368 35.2134C79.6368 35.1363 79.6352 35.06 79.6321 34.9841C79.6284 34.8838 79.7065 34.7994 79.8066 34.7956C79.8092 34.7955 79.8113 34.7955 79.814 34.7955C79.9109 34.7955 79.9916 34.8723 79.9953 34.9702C79.9984 35.0507 80 35.1318 80 35.2134C80 35.4398 79.9879 35.6696 79.9649 35.9025C79.9555 35.9963 79.8768 36.0662 79.7841 36.0662ZM79.707 34.2576C79.6227 34.2576 79.5467 34.1984 79.5294 34.1124C79.4696 33.8216 79.3847 33.5428 79.2752 33.2779C79.2364 33.1852 79.2804 33.079 79.3732 33.0404C79.3963 33.031 79.4193 33.0265 79.4429 33.0265C79.5142 33.0265 79.5818 33.0686 79.6106 33.1386C79.7301 33.426 79.8213 33.7272 79.8852 34.0394C79.9051 34.1377 79.8417 34.2338 79.7437 34.254C79.7311 34.2566 79.7191 34.2576 79.707 34.2576ZM79.0106 32.5957C78.9529 32.5957 78.8963 32.5686 78.8612 32.5179C78.693 32.2762 78.5027 32.0624 78.2915 31.8692C78.2176 31.8014 78.2124 31.6866 78.28 31.6125C78.3161 31.5734 78.3649 31.5534 78.4142 31.5534C78.4582 31.5534 78.5022 31.5693 78.5368 31.6012C78.7663 31.8111 78.9749 32.0456 79.1594 32.3102C79.2165 32.3925 79.1966 32.5057 79.1138 32.5631C79.0824 32.5851 79.0462 32.5957 79.0106 32.5957ZM77.6904 31.3726C77.6579 31.3726 77.6244 31.3638 77.5945 31.345C77.3519 31.1935 77.0914 31.0561 76.8147 30.9281C76.7235 30.8859 76.6842 30.7778 76.7261 30.6867C76.757 30.6204 76.8225 30.5814 76.8912 30.5814C76.9163 30.5814 76.9426 30.5868 76.9672 30.5983C77.2549 30.7314 77.529 30.8757 77.7874 31.0369V31.0367C77.8723 31.0899 77.8979 31.202 77.845 31.2871C77.8104 31.3423 77.7512 31.3726 77.6904 31.3726ZM76.0527 30.5966C76.0312 30.5966 76.0092 30.5928 75.9882 30.5848C75.7152 30.4818 75.4316 30.3822 75.1382 30.2827C75.0428 30.2503 74.9925 30.1471 75.0244 30.0521C75.0501 29.9765 75.1209 29.9289 75.1963 29.9289C75.2157 29.9289 75.2356 29.932 75.255 29.9385C75.5506 30.0388 75.8378 30.1396 76.1166 30.2449C76.2104 30.2803 76.2581 30.3851 76.2225 30.4791C76.1947 30.5518 76.126 30.5966 76.0527 30.5966ZM63.9466 18.6297C63.8784 18.6297 63.8129 18.5914 63.782 18.5258C63.6557 18.2587 63.5184 17.9934 63.3706 17.7301C63.3219 17.6426 63.3528 17.5319 63.4403 17.4829C63.4686 17.4671 63.499 17.4596 63.5294 17.4596C63.5928 17.4596 63.6546 17.493 63.6877 17.5526C63.8391 17.8228 63.9801 18.0954 64.1106 18.3702C64.1536 18.4609 64.1148 18.5692 64.0241 18.6123C63.999 18.6241 63.9722 18.6297 63.9466 18.6297ZM63.0609 17.045C63.0011 17.045 62.943 17.0155 62.9084 16.9616C62.7475 16.7125 62.5782 16.4655 62.4 16.2208C62.3413 16.1397 62.3591 16.026 62.4404 15.9669C62.4729 15.9435 62.5101 15.9323 62.5468 15.9323C62.6028 15.9323 62.6584 15.9582 62.694 16.0071C62.8759 16.2571 63.0493 16.5097 63.2134 16.7648C63.2679 16.8491 63.2438 16.9616 63.1594 17.0159C63.129 17.0355 63.0949 17.045 63.0609 17.045ZM61.9939 15.575C61.9409 15.575 61.8885 15.552 61.8524 15.5076C61.6658 15.2765 61.4714 15.0478 61.2701 14.8219C61.203 14.7464 61.2098 14.6317 61.2848 14.5651C61.3194 14.5342 61.3629 14.519 61.4053 14.519C61.4556 14.519 61.5054 14.5399 61.5411 14.5803C61.746 14.8104 61.9446 15.0434 62.1348 15.279C62.1982 15.3572 62.1862 15.4715 62.1081 15.5347C62.0746 15.5618 62.0342 15.575 61.9939 15.575ZM60.7864 14.2176C60.7392 14.2176 60.6921 14.1993 60.6564 14.1626C60.4484 13.9483 60.2345 13.7376 60.0149 13.529C59.9421 13.4598 59.939 13.3451 60.0081 13.2722C60.0438 13.2345 60.0915 13.2156 60.1397 13.2156C60.1848 13.2156 60.2298 13.2318 60.2649 13.2654C60.4882 13.4766 60.7057 13.6915 60.9169 13.909C60.9866 13.9813 60.985 14.096 60.9132 14.1657C60.8781 14.2003 60.832 14.2176 60.7864 14.2176ZM59.4683 12.9667C59.4259 12.9667 59.3829 12.9515 59.3483 12.9211C59.124 12.724 58.894 12.5296 58.6597 12.3383C58.5821 12.2749 58.5706 12.1601 58.634 12.0826C58.6702 12.0385 58.7221 12.016 58.775 12.016C58.8153 12.016 58.8557 12.0291 58.8898 12.0569C59.1272 12.2508 59.3604 12.4478 59.5884 12.648C59.6638 12.7146 59.6712 12.8294 59.6051 12.9048C59.569 12.9457 59.5192 12.9667 59.4683 12.9667ZM58.0607 11.8168C58.0224 11.8168 57.9836 11.8048 57.9511 11.7796C57.7122 11.5983 57.4695 11.4201 57.2232 11.2451C57.1415 11.1869 57.1221 11.0737 57.1802 10.992C57.2159 10.9422 57.2719 10.9154 57.3285 10.9154C57.3647 10.9154 57.4019 10.9264 57.4339 10.949C57.6833 11.1261 57.9291 11.3064 58.1707 11.4903C58.2509 11.5511 58.2661 11.6654 58.2053 11.7451C58.1697 11.7922 58.1157 11.8168 58.0607 11.8168ZM56.5802 10.7656C56.5456 10.7656 56.511 10.7556 56.4801 10.7352C56.2301 10.5696 55.9764 10.4071 55.7202 10.2488C55.6353 10.1959 55.6085 10.0837 55.6615 9.99831C55.6961 9.94276 55.7553 9.91236 55.8161 9.91236C55.8491 9.91236 55.8816 9.92128 55.9114 9.93962C56.1709 10.1 56.4277 10.2645 56.6808 10.4322C56.7646 10.4878 56.7872 10.6005 56.7316 10.6843C56.697 10.7373 56.6389 10.7656 56.5802 10.7656ZM55.0362 9.80964C55.0053 9.80964 54.9739 9.80178 54.9456 9.78502C54.6846 9.63461 54.4215 9.48787 54.1563 9.34479C54.0678 9.2971 54.0347 9.18705 54.0824 9.099C54.1149 9.03769 54.1778 9.0031 54.2423 9.0031C54.2716 9.0031 54.301 9.00991 54.3282 9.02511C54.5971 9.16923 54.8633 9.31807 55.1274 9.47057C55.2144 9.52088 55.2438 9.63198 55.1935 9.71846C55.1599 9.77715 55.0991 9.80964 55.0362 9.80964ZM53.4347 8.94754C53.4074 8.94754 53.3796 8.94126 53.3534 8.92815C53.1627 8.83277 52.9714 8.73949 52.7791 8.6483C52.6795 8.51518 52.5789 8.38364 52.4767 8.25262C52.5113 8.21174 52.5616 8.18921 52.6145 8.18921C52.6402 8.18921 52.6659 8.19445 52.6905 8.20597C52.9672 8.33385 53.2423 8.46645 53.5159 8.60323C53.606 8.6483 53.6422 8.75731 53.5971 8.84692C53.5657 8.91086 53.5012 8.94754 53.4347 8.94754Z" fill="#F6CCD7"/>
<path d="M17.1297 60.2661C17.0243 60.136 16.9167 60.0038 16.8081 59.8707L17.0942 59.705L17.8476 54.4313L18.2704 52.3908C18.5998 52.3525 18.8375 52.3189 18.929 52.3053C18.9534 52.3018 18.9721 52.2818 18.9743 52.2571C19.0279 51.6539 19.0648 51.1024 19.0898 50.6082H25.9236H25.9267L25.9272 50.6051L25.9345 50.5597L27.4293 43.9468C27.4942 43.6601 27.3454 43.3787 27.115 43.3019L27.1292 43.2148H26.8499L26.8681 43.0703H26.5463L26.569 42.7942H26.2387L26.2488 42.5411H25.8248C25.7174 42.3561 25.5353 42.2346 25.3289 42.2346H24.6819L24.9515 41.8147L24.8452 41.3472L24.57 40.1369L24.5631 40.1063L21.7191 38.2801C21.6634 38.2443 21.601 38.2273 21.5393 38.2273C21.4297 38.2273 21.3222 38.2812 21.2585 38.3804L19.5692 41.011L19.5108 40.7852C19.5108 40.7852 19.4091 39.971 18.6396 39.6785L18.6102 40.4901L18.6356 39.7868L18.6396 39.6785C18.6145 39.669 18.5887 39.6601 18.5622 39.6517C18.5424 39.6454 18.5222 39.6394 18.5015 39.6339L18.4732 39.6243L18.2971 39.5658L17.6913 39.3638C17.6913 39.3638 17.1226 38.8948 17.0659 38.0703L15.3316 37.5159C15.3316 37.5159 15.2146 37.7298 15.1681 38.3759C15.1865 38.3944 15.2624 38.561 15.3196 38.6771C15.3167 38.7331 15.3133 38.7892 15.3093 38.845C15.2935 39.0652 15.2693 39.2813 15.2335 39.4646L15.232 39.4633L14.2218 39.81L14.0296 39.876L13.7823 39.9608C13.7823 39.9608 13.7734 39.9657 13.7572 39.9786C13.879 40.2553 14.069 40.7528 14.1968 41.4002C14.276 41.8016 14.3314 42.2608 14.3316 42.7604C14.3316 42.8641 14.3292 42.9695 14.3243 43.0767C14.3239 43.0775 14.3234 43.0784 14.323 43.0792C14.2563 43.2177 14.2385 43.2997 14.2385 43.2997C14.2387 43.302 14.2387 43.3046 14.2389 43.3069C14.2389 43.3071 14.2389 43.3067 14.2389 43.3069C14.2422 43.3741 14.2451 43.4416 14.2476 43.5079C14.2478 43.5128 14.248 43.5177 14.2482 43.5226C14.2482 43.5233 14.2484 43.5239 14.2484 43.5246C14.2485 43.529 14.2487 43.5331 14.2487 43.5375C14.2489 43.5386 14.2489 43.5397 14.2489 43.5408C14.2491 43.5444 14.2492 43.5482 14.2492 43.552C14.2495 43.5538 14.2495 43.5557 14.2496 43.5577C14.2496 43.5608 14.2498 43.5638 14.25 43.5669C14.25 43.5691 14.25 43.5713 14.2502 43.5735C14.2502 43.5762 14.2503 43.5789 14.2505 43.5817C14.2505 43.5846 14.2507 43.5873 14.2507 43.5902C14.2509 43.5922 14.2509 43.5944 14.2509 43.5964C14.2511 43.5997 14.2513 43.6029 14.2513 43.6064C14.2514 43.608 14.2514 43.6096 14.2514 43.6113C14.2516 43.6149 14.2518 43.6185 14.2518 43.6222C14.252 43.6236 14.252 43.6251 14.252 43.6264C14.2522 43.6303 14.2524 43.6344 14.2524 43.6382C14.2525 43.6392 14.2525 43.6402 14.2525 43.6412C14.2527 43.6456 14.2529 43.6502 14.2531 43.6545C14.2531 43.6551 14.2531 43.6556 14.2531 43.6562C14.2533 43.6609 14.2535 43.6656 14.2535 43.6703C14.2533 43.67 14.2535 43.6705 14.2535 43.6703C14.26 43.8737 14.2641 44.0735 14.266 44.2665L14.256 44.5474L14.2669 44.5461C14.2662 45.0012 14.2535 45.4204 14.2354 45.7907C14.2078 46.3536 14.1679 46.8029 14.1373 47.0917C14.107 47.38 14.0883 47.6695 14.0814 47.9593C13.9998 51.3441 14.1817 52.2299 14.2271 52.3952C14.2325 52.4146 14.2484 52.4294 14.2684 52.4332C14.7133 52.5195 15.248 52.5515 15.7951 52.5515C15.9923 52.5515 16.1909 52.5473 16.3875 52.54L16.4265 54.057C16.4271 54.0783 16.4272 54.0995 16.4272 54.1208C16.4272 54.4011 16.3796 54.6791 16.2923 54.9459C16.2077 55.2035 16.1625 55.485 16.1384 55.7285C16.1271 55.8425 16.1217 55.9572 16.1215 56.0717C16.1215 56.2564 16.1355 56.441 16.1615 56.6242C16.2098 56.9632 16.2272 57.4004 16.2272 57.8534C16.227 58.2842 16.2114 58.7293 16.1916 59.1187C9.76054 51.2992 -0.710836 39.105 10.1201 33.9131C10.1201 33.9131 10.9618 33.6567 12.2239 33.106C16.2183 31.3626 24.4266 26.6714 23.5136 17.8262C23.5136 17.8262 23.2025 16.1757 23.2025 13.8793C23.2025 8.62813 24.8298 1.52588e-05 35.5123 1.52588e-05C35.755 1.52588e-05 36.0007 0.00418091 36.2529 0.0135536C42.6628 0.243198 48.6006 3.30098 52.4759 8.25268C52.5785 8.38338 52.679 8.51513 52.7785 8.64844C52.9514 8.88017 53.1196 9.11658 53.2836 9.35612C56.2664 13.7194 60.6697 18.8822 64.8049 18.8822C65.8735 18.8822 66.9238 18.5379 67.9273 17.7459C68.7396 17.1047 69.7405 16.754 70.757 16.754C71.1527 16.754 71.5506 16.8071 71.9406 16.9168C75.4587 17.905 79.4559 23.0211 68.8558 45.6839C68.8558 45.6839 67.9955 46.8242 66.8915 48.5916C66.8301 48.6899 66.7686 48.7898 66.7056 48.8919C66.3218 49.5159 65.9136 50.2092 65.5053 50.9515C64.8487 52.1463 64.2602 53.5216 63.7843 54.9488L63.5968 51.6313L63.7827 48.2985C63.8707 47.2483 63.8488 46.4456 63.791 45.8598C63.8478 45.8425 63.904 45.8243 63.9592 45.8049C64.1004 45.7555 64.1951 45.6232 64.1977 45.474L64.2014 45.3105L64.2733 41.7456C64.2733 41.7449 64.2733 41.7443 64.2733 41.7438L64.2738 41.7326L64.2733 41.7224C64.2733 41.7215 64.2733 41.7205 64.2727 41.7194L64.2545 41.371L64.153 39.4404L62.8152 38.5657L62.7527 38.5247L62.3762 38.2787C62.1596 38.0984 61.9101 37.8154 61.9414 37.4835L61.945 37.4547C61.9461 37.453 61.9471 37.4516 61.9482 37.45L62.1153 36.2235L60.3396 36.9943L60.5604 38.3561C60.563 38.3711 60.564 38.3863 60.564 38.4013C60.564 38.4584 60.5474 38.5144 60.5156 38.5621L60.0964 38.7433L60.0495 38.7633L58.8919 39.2629C58.8737 39.2709 58.8576 39.2818 58.8435 39.2952C58.8373 39.2974 58.8305 39.3001 58.8232 39.3034C58.7102 39.3536 58.5175 39.5362 58.2894 40.1538L57.1199 38.639C57.0543 38.5539 56.9558 38.5092 56.8559 38.5092C56.7845 38.5092 56.7132 38.532 56.6522 38.5788L53.2518 41.2045C53.106 41.317 53.0789 41.5263 53.1914 41.6721L53.2779 41.7834C53.1388 41.7378 52.9857 41.7031 52.8404 41.7031C52.7405 41.7031 52.6436 41.7197 52.5582 41.7605C52.5582 41.7605 52.0177 42.0623 52.2187 42.5411H52.039L52.0489 42.7942H51.7188L51.7412 43.0703H51.4199L51.4376 43.2148H51.1585L51.1725 43.3019C50.9423 43.3787 50.7934 43.6601 50.8585 43.9468L52.353 50.5597L52.3603 50.6051V50.6082H52.364H58.9242C58.9471 51.0312 58.9971 51.4526 59.0737 51.8697L60.237 58.184L60.5802 58.1319C60.6286 58.6379 60.6968 59.6013 60.5463 59.8797L62.0653 60.1598L61.7008 57.9611L61.7852 57.9482L61.3852 53.5117L62.3366 58.2798L62.9105 58.246C62.7761 58.9338 62.6756 59.6107 62.6131 60.2627C58.4004 60.2085 53.5179 60.1691 48.2194 60.1487C45.6249 60.1226 42.8637 60.1084 39.9996 60.1084C37.1365 60.1084 34.3769 60.1226 31.7831 60.1487C26.3758 60.1695 21.4014 60.2101 17.1297 60.2661ZM28.8293 30.3475C28.7592 30.3475 28.6885 30.3694 28.6282 30.415L24.0303 33.8912C23.8832 34.0025 23.8541 34.212 23.9653 34.3589L26.5614 37.7926C26.6271 37.8795 26.7269 37.9253 26.8281 37.9253C26.8982 37.9253 26.9689 37.9033 27.0293 37.8577L30.9123 34.9218L31.1341 33.2122L31.1381 33.1812L29.0959 30.4799C29.0303 30.3931 28.9303 30.3475 28.8293 30.3475ZM49.7322 37.3017L51.4433 37.0908L51.474 37.0869L53.5815 34.4363C53.6965 34.2921 53.6726 34.082 53.5283 33.9672L49.0167 30.3798C48.9547 30.3311 48.8818 30.3073 48.8089 30.3073C48.7105 30.3073 48.6131 30.3505 48.547 30.4334L45.8682 33.8028C45.7534 33.9472 45.7774 34.1572 45.9216 34.2719L49.7322 37.3017ZM40.4413 31.6775L41.6493 30.4477L41.6712 30.4254V27.0389C41.6712 26.8545 41.5217 26.705 41.3373 26.705H35.5731C35.3887 26.705 35.2392 26.8545 35.2392 27.0389V31.3437C35.2392 31.5281 35.3887 31.6775 35.5731 31.6775H40.4413Z" fill="#C0C0C0"/>
<path d="M40.0008 61.4495C28.1645 61.4495 17.5927 61.3557 10.6266 61.2086C9.02215 61.1748 7.60914 61.138 6.416 61.099C5.63013 61.0734 4.93965 61.0467 4.35262 61.0189C2.84239 60.9482 2.01758 60.8715 2.01758 60.7914C2.01758 60.6894 3.35634 60.5928 5.74578 60.5069C6.72436 60.4714 7.87901 60.4378 9.19014 60.4066C11.4176 60.3531 14.0972 60.3057 17.1308 60.2661C17.1937 60.3437 17.2556 60.4202 17.3174 60.4967C17.4809 60.4888 17.6483 60.4812 17.8193 60.4736C21.2284 60.3217 26.1073 60.2063 31.7842 60.1487C34.4303 60.1387 37.1794 60.1333 40.0008 60.1333C42.8229 60.1333 45.5739 60.1387 48.2203 60.1487C52.9008 60.1962 57.0379 60.2828 60.257 60.3971C61.1013 60.4271 61.8827 60.4587 62.594 60.4923C62.6006 60.4162 62.6073 60.3395 62.6144 60.2626C64.6157 60.2883 66.465 60.3173 68.1367 60.3493C74.2556 60.4661 77.9839 60.6213 77.9839 60.7914C77.9839 61.1548 60.9785 61.4495 40.0008 61.4495Z" fill="#DADBDF"/>
<path d="M17.3155 60.4966C17.2537 60.4201 17.1918 60.3436 17.1289 60.266C21.4005 60.21 26.375 60.1693 31.7823 60.1486C26.1054 60.2062 21.2265 60.3216 17.8173 60.4735C17.6464 60.4811 17.479 60.4888 17.3155 60.4966ZM62.5921 60.4922C61.8808 60.4586 61.0994 60.427 60.255 60.397C57.0359 60.2827 52.899 60.196 48.2186 60.1486C53.5172 60.169 58.3992 60.2084 62.6125 60.2625C62.6054 60.3394 62.5983 60.4161 62.5921 60.4922Z" fill="#CBD0DF"/>
<path d="M7.93003 44.3601H4.30026C3.89713 44.3601 3.57031 44.0332 3.57031 43.6302V40.4624C3.57031 40.0594 3.89713 39.7325 4.30026 39.7325H7.93003C8.33318 39.7325 8.65998 40.0594 8.65998 40.4624V43.6302C8.65998 44.0332 8.33318 44.3601 7.93003 44.3601Z" fill="#F6CCD7"/>
<path d="M7.13863 42.4274C7.05356 42.4255 6.97169 42.4501 6.9013 42.4973C6.87717 42.5135 6.85438 42.5324 6.83327 42.5538C6.7506 42.6378 6.70359 42.7506 6.70092 42.8716C6.69825 42.9926 6.74022 43.1073 6.81912 43.1945C6.89801 43.2817 7.00437 43.3309 7.1186 43.3333C7.23284 43.3355 7.34129 43.2906 7.42396 43.2067C7.50664 43.1227 7.55364 43.0099 7.55631 42.8889C7.55898 42.7679 7.51703 42.6532 7.43814 42.566C7.43009 42.5571 7.42177 42.5487 7.41317 42.5406C7.33748 42.4693 7.24123 42.4294 7.13863 42.4274ZM7.67981 42.7982L7.667 43.0351L7.66673 43.0399L7.66793 43.0402L7.77655 43.0773C7.75705 43.1483 7.72747 43.2148 7.68959 43.275L7.68753 43.2781L7.64571 43.2577L7.57683 43.2239L7.43463 43.4138L7.4851 43.4854C7.42584 43.5248 7.36046 43.5548 7.29093 43.5733L7.26829 43.4618L7.03991 43.4572L7.00544 43.5835C6.92881 43.5688 6.85682 43.5406 6.79175 43.501L6.85807 43.3894L6.70239 43.213L6.57544 43.2897L6.57433 43.2904C6.57132 43.2857 6.56836 43.2812 6.56543 43.2764C6.51625 43.1979 6.48141 43.1085 6.46484 43.0124L6.5766 42.9875L6.58929 42.7459L6.47389 42.7099C6.49424 42.6232 6.52944 42.5429 6.57641 42.4721L6.69489 42.5429L6.8548 42.3694L6.79144 42.2627C6.87313 42.2124 6.96554 42.1795 7.0639 42.1692L7.08912 42.3129L7.31725 42.3242L7.35316 42.2051C7.37378 42.1966 7.49833 42.2749 7.55882 42.3278L7.48534 42.4352L7.63813 42.6212L7.73646 42.5669C7.76606 42.6316 7.78667 42.7017 7.79659 42.7755L7.67981 42.7982Z" fill="white"/>
<path d="M6.89209 40.8117C6.79908 40.8097 6.70953 40.8386 6.63245 40.8942C6.60605 40.9132 6.5811 40.9354 6.55797 40.9607C6.46741 41.0591 6.41583 41.1916 6.41271 41.3337C6.40956 41.4756 6.45524 41.61 6.54137 41.7122C6.62747 41.8143 6.74368 41.872 6.8686 41.8746C6.99352 41.8771 7.11218 41.8241 7.20274 41.7256C7.29328 41.6269 7.34486 41.4945 7.34801 41.3526C7.35115 41.2105 7.30545 41.076 7.21935 40.9739C7.21057 40.9636 7.20149 40.9536 7.19211 40.9441C7.10946 40.8605 7.00429 40.8138 6.89209 40.8117ZM7.48322 41.2459L7.46878 41.5239L7.46849 41.5294L7.46978 41.5299L7.5885 41.5732C7.56704 41.6566 7.53459 41.7347 7.49305 41.8052L7.4908 41.809L7.4451 41.785L7.36985 41.7456L7.21402 41.9687L7.2691 42.0525C7.20421 42.0988 7.13268 42.1341 7.0566 42.1559L7.03204 42.0252L6.78233 42.0201L6.74441 42.1682C6.66065 42.1513 6.58197 42.1182 6.51089 42.0719L6.58363 41.9409L6.4137 41.7343L6.27474 41.8243L6.27353 41.8252C6.27026 41.8197 6.267 41.8143 6.26384 41.8088C6.21019 41.7167 6.17227 41.6119 6.1543 41.4992L6.27656 41.4698L6.29086 41.1863L6.16473 41.1444C6.18713 41.0426 6.22576 40.9483 6.27723 40.8651L6.40669 40.9479L6.58183 40.7443L6.51275 40.6191C6.60216 40.5598 6.70327 40.5213 6.81084 40.509L6.83817 40.6774L7.0876 40.6905L7.12708 40.5508C7.14963 40.5408 7.28568 40.6323 7.35173 40.6941L7.2712 40.8204L7.43793 41.0382L7.54555 40.9745C7.57782 41.0502 7.60022 41.1325 7.61094 41.219L7.48322 41.2459Z" fill="white"/>
<path d="M5.4481 41.663C5.3202 41.6605 5.19705 41.7003 5.0911 41.7768C5.05478 41.803 5.02046 41.8335 4.98866 41.8682C4.86416 42.0041 4.79323 42.1865 4.7889 42.382C4.78458 42.5773 4.84739 42.7625 4.9658 42.9031C5.08419 43.0439 5.244 43.1233 5.41574 43.1268C5.58751 43.1302 5.75068 43.0574 5.87519 42.9215C5.99969 42.7857 6.07062 42.6033 6.07495 42.4078C6.07927 42.2125 6.01646 42.0273 5.89807 41.8865C5.886 41.8722 5.8735 41.8586 5.8606 41.8455C5.74697 41.7306 5.60236 41.6663 5.4481 41.663ZM6.26088 42.2612L6.24102 42.6438L6.2406 42.6515L6.24238 42.652L6.40564 42.7118C6.37613 42.8266 6.33149 42.9342 6.27438 43.0312C6.27334 43.033 6.27233 43.0347 6.27129 43.0365L6.20846 43.0034L6.10497 42.9491L5.89071 43.2563L5.96642 43.3717C5.87721 43.4355 5.77886 43.484 5.67424 43.5142L5.64046 43.3341L5.29712 43.3272L5.24498 43.5312C5.1298 43.5078 5.02162 43.4624 4.92388 43.3986L5.02389 43.218L4.79026 42.9336L4.59919 43.0577L4.59754 43.0587C4.59301 43.0514 4.58854 43.0439 4.58418 43.0363C4.51041 42.9095 4.45829 42.765 4.43359 42.6099L4.6017 42.5695L4.62138 42.1792L4.44795 42.1213C4.47875 41.9812 4.53187 41.8515 4.60268 41.7366L4.78065 41.8509L5.02149 41.5702L4.92652 41.3981C5.04945 41.3166 5.18847 41.2633 5.33637 41.2464L5.37395 41.4783L5.71692 41.4961L5.77122 41.3038C5.80222 41.29 5.9893 41.4163 6.08011 41.5013L5.96938 41.6752L6.19863 41.9752L6.3466 41.8873C6.39097 41.9917 6.42177 42.1051 6.43651 42.2241L6.26088 42.2612Z" fill="white"/>
<path d="M76.6563 32.655H73.0264C72.6235 32.655 72.2969 32.3284 72.2969 31.9252V28.7575C72.2969 28.3543 72.6235 28.0274 73.0264 28.0274H76.6563C77.0597 28.0274 77.3864 28.3543 77.3864 28.7575V31.9252C77.3864 32.3284 77.0597 32.655 76.6563 32.655Z" fill="#F6CCD7"/>
<path d="M74.0847 31.6612L73.1573 30.7098C72.9966 30.5447 73.0001 30.2805 73.1654 30.1197C73.3301 29.9589 73.5945 29.9623 73.7552 30.1273L74.3003 30.6862L75.9313 29.0547C76.094 28.8918 76.3585 28.8918 76.5212 29.0547C76.6844 29.2177 76.6844 29.482 76.5212 29.6449L74.5028 31.6638C74.3869 31.7795 74.199 31.7782 74.0847 31.6612Z" fill="white"/>
<path d="M65.6739 21.2302H62.0442C61.641 21.2302 61.3145 20.9033 61.3145 20.5001V17.3321C61.3145 16.9294 61.641 16.6024 62.0442 16.6024H65.6739C66.0771 16.6024 66.4041 16.9294 66.4041 17.3321V20.5001C66.4041 20.9033 66.0771 21.2302 65.6739 21.2302Z" fill="#F6CCD7"/>
<path d="M65.4026 18.2588H63.1113V18.0806H65.4026V18.2588Z" fill="white"/>
<path d="M64.4888 18.8114C64.4692 18.7804 64.4784 18.7391 64.5097 18.719L65.3725 18.1694L64.5097 17.6198C64.4784 17.6002 64.4692 17.5584 64.4888 17.5275C64.5088 17.4966 64.5507 17.4874 64.5816 17.507L65.5332 18.1132C65.5523 18.1254 65.5641 18.1468 65.5641 18.1694C65.5641 18.1925 65.5523 18.2138 65.5332 18.226L64.5816 18.8318C64.5703 18.8392 64.5581 18.8423 64.5454 18.8423C64.5237 18.8423 64.5019 18.8314 64.4888 18.8114Z" fill="white"/>
<path d="M62.3145 19.752H64.6057V19.5737H62.3145V19.752Z" fill="white"/>
<path d="M63.2271 20.3049C63.2469 20.2738 63.2376 20.2325 63.2064 20.2127L62.3436 19.6629L63.2064 19.1131C63.2376 19.0933 63.2469 19.052 63.2271 19.0208C63.2073 18.9901 63.1656 18.9808 63.1348 19.0006L62.1831 19.6064C62.1637 19.6186 62.1523 19.6401 62.1523 19.6629C62.1523 19.6856 62.1637 19.7071 62.1831 19.7193L63.1348 20.3256C63.1458 20.3323 63.1584 20.3357 63.1706 20.3357C63.1925 20.3357 63.2144 20.3252 63.2271 20.3049Z" fill="white"/>
<path d="M49.7313 37.3018L45.9207 34.272C45.7767 34.1573 45.7528 33.9473 45.8674 33.8028L48.5463 30.4336C48.6613 30.2893 48.8713 30.2653 49.0157 30.3799L53.5273 33.9673C53.6717 34.0821 53.6956 34.2921 53.5807 34.4364L51.4734 37.087L51.4422 37.0908L49.7313 37.3018Z" fill="white"/>
<path d="M49.7324 37.3018L50.3287 36.5519C50.3824 36.4843 50.4616 36.4493 50.5415 36.4493C50.6008 36.4493 50.6604 36.4685 50.7107 36.5083L51.4433 37.0908L49.7324 37.3018Z" fill="#E5E5E5"/>
<path d="M49.3037 36.2617L51.7162 33.2276C51.7578 33.1751 51.8342 33.1664 51.8867 33.2082L51.9131 33.2291C51.9656 33.2709 51.9744 33.3472 51.9325 33.3997L49.5203 36.434C49.4784 36.4863 49.4019 36.495 49.3495 36.4535L49.3231 36.4324C49.2706 36.3906 49.2621 36.3142 49.3037 36.2617Z" fill="#EEF2FE"/>
<path d="M48.7589 35.8343L51.1715 32.8001C51.213 32.7476 51.2894 32.7389 51.3417 32.7807L51.3682 32.8016C51.4209 32.8434 51.4296 32.9197 51.3877 32.9722L48.9751 36.0063C48.9336 36.0589 48.8573 36.0676 48.8046 36.026L48.7784 36.0049C48.7258 35.9631 48.717 35.8868 48.7589 35.8343Z" fill="#EEF2FE"/>
<path d="M48.2314 35.4007L50.6438 32.3665C50.6856 32.314 50.7623 32.3054 50.8145 32.3468L50.8411 32.3679C50.8936 32.4097 50.9023 32.4861 50.8605 32.5386L48.4477 35.5728C48.4063 35.6253 48.3299 35.634 48.2774 35.5922L48.2511 35.5713C48.1986 35.5295 48.1896 35.453 48.2314 35.4007Z" fill="#EEF2FE"/>
<path d="M47.6845 34.973L50.0974 31.9389C50.1392 31.8862 50.2155 31.8777 50.2678 31.9194L50.2942 31.9407C50.3469 31.9821 50.3555 32.0587 50.3137 32.1111L47.9012 35.1453C47.8594 35.1978 47.7831 35.2065 47.7307 35.1647L47.704 35.1437C47.6517 35.1021 47.6428 35.0256 47.6845 34.973Z" fill="#EEF2FE"/>
<path d="M47.1377 34.5455L49.5503 31.5114C49.5919 31.4589 49.6685 31.4501 49.7207 31.4921L49.7471 31.5131C49.7996 31.5548 49.8085 31.631 49.7668 31.6835L47.3542 34.7178C47.3122 34.7703 47.2359 34.779 47.1834 34.7373L47.157 34.7162C47.1048 34.6745 47.096 34.5981 47.1377 34.5455Z" fill="#EEF2FE"/>
<path d="M30.9111 34.9216L27.0279 37.8576C26.8808 37.9686 26.6712 37.9396 26.5601 37.7924L23.9641 34.3587C23.8528 34.2118 23.8819 34.0022 24.0291 33.8911L28.6268 30.4149C28.774 30.3036 28.9834 30.3327 29.0946 30.4796L31.1368 33.181L31.1329 33.2121L30.9111 34.9216Z" fill="white"/>
<path d="M30.9121 34.9216L30.3343 34.1575C30.2437 34.0377 30.2675 33.8673 30.3871 33.7767L31.1339 33.2121L30.9121 34.9216Z" fill="#E5E5E5"/>
<path d="M29.7998 35.0769L27.4619 31.9847C27.4217 31.9313 27.4322 31.8551 27.4857 31.8148L27.5125 31.7945C27.5662 31.7539 27.6423 31.7643 27.6825 31.818L30.0204 34.91C30.0609 34.9636 30.0502 35.0396 29.9968 35.0802L29.97 35.1004C29.9163 35.1408 29.8401 35.1303 29.7998 35.0769Z" fill="#EEF2FE"/>
<path d="M29.2471 35.5001L26.9092 32.4079C26.8689 32.3547 26.8795 32.2783 26.933 32.238L26.9597 32.2176C27.0134 32.1772 27.0895 32.1878 27.1298 32.2413L29.4677 35.3333C29.5082 35.3869 29.4976 35.463 29.4442 35.5034L29.4172 35.5236C29.3637 35.5642 29.2874 35.5538 29.2471 35.5001Z" fill="#EEF2FE"/>
<path d="M28.6982 35.902L26.3606 32.8099C26.3201 32.7564 26.3305 32.6803 26.3842 32.6398L26.4111 32.6194C26.4644 32.5789 26.5407 32.5895 26.5812 32.643L28.919 35.7351C28.9592 35.7886 28.9488 35.8647 28.8953 35.9052L28.8682 35.9256C28.8149 35.9661 28.7386 35.9554 28.6982 35.902Z" fill="#EEF2FE"/>
<path d="M28.1474 36.3253L25.8097 33.2333C25.7692 33.1796 25.78 33.1036 25.8332 33.0632L25.8602 33.0428C25.9137 33.0024 25.9899 33.0129 26.0303 33.0666L28.3682 36.1586C28.4084 36.2121 28.3979 36.2881 28.3446 36.3287L28.3177 36.3491C28.264 36.3893 28.188 36.3788 28.1474 36.3253Z" fill="#EEF2FE"/>
<path d="M27.5969 36.749L25.2589 33.6568C25.2184 33.6034 25.2292 33.5273 25.2827 33.4868L25.3095 33.4664C25.3629 33.426 25.4392 33.4367 25.4796 33.4901L27.8175 36.5822C27.8579 36.6357 27.8473 36.7118 27.7938 36.7521L27.767 36.7725C27.7134 36.813 27.6373 36.8024 27.5969 36.749Z" fill="#EEF2FE"/>
<path d="M40.4405 31.6775H35.5723C35.3879 31.6775 35.2383 31.5281 35.2383 31.3438V27.039C35.2383 26.8547 35.3879 26.705 35.5723 26.705H41.3364C41.5208 26.705 41.6704 26.8547 41.6704 27.039V30.4256L41.6485 30.4478L40.4405 31.6775Z" fill="white"/>
<path d="M40.4414 31.6777V30.7195C40.4414 30.5693 40.563 30.4478 40.7135 30.4478H41.6494L40.4414 31.6777Z" fill="#E5E5E5"/>
<path d="M39.4609 31.1294V27.2531C39.4609 27.186 39.5152 27.1314 39.5823 27.1314H39.6161C39.6831 27.1314 39.7374 27.186 39.7374 27.2531V31.1294C39.7374 31.1964 39.6831 31.2507 39.6161 31.2507H39.5823C39.5152 31.2507 39.4609 31.1964 39.4609 31.1294Z" fill="#EEF2FE"/>
<path d="M38.7656 31.1354V27.259C38.7656 27.1919 38.8199 27.1376 38.887 27.1376H38.9206C38.9877 27.1376 39.0422 27.1919 39.0422 27.259V31.1354C39.0422 31.2023 38.9877 31.2568 38.9206 31.2568H38.887C38.8199 31.2568 38.7656 31.2023 38.7656 31.1354Z" fill="#EEF2FE"/>
<path d="M38.084 31.1237V27.2471C38.084 27.1802 38.1382 27.1256 38.2051 27.1256H38.239C38.3061 27.1256 38.3604 27.1802 38.3604 27.2471V31.1237C38.3604 31.1906 38.3061 31.2449 38.239 31.2449H38.2051C38.1382 31.2449 38.084 31.1906 38.084 31.1237Z" fill="#EEF2FE"/>
<path d="M37.3906 31.1296V27.2534C37.3906 27.1862 37.4448 27.1318 37.512 27.1318H37.5458C37.6127 27.1318 37.6671 27.1862 37.6671 27.2534V31.1296C37.6671 31.1968 37.6127 31.251 37.5458 31.251H37.512C37.4448 31.251 37.3906 31.1968 37.3906 31.1296Z" fill="#EEF2FE"/>
<path d="M36.6934 31.1354V27.2589C36.6934 27.1918 36.7477 27.1377 36.8146 27.1377H36.8484C36.9155 27.1377 36.9698 27.1918 36.9698 27.2589V31.1354C36.9698 31.2025 36.9155 31.2568 36.8484 31.2568H36.8146C36.7477 31.2568 36.6934 31.2025 36.6934 31.1354Z" fill="#EEF2FE"/>
<path d="M14.4712 37.5942C14.4712 37.5942 13.0213 42.2141 12.1543 42.271C12.1543 42.271 15.2389 41.9583 14.4712 37.5942Z" fill="#011C3E"/>
<path d="M17.6903 39.3639L17.4628 40.4584L16.7957 40.4732L15.558 40.501L15.0605 39.9181C15.1364 39.8358 15.192 39.6711 15.2324 39.4647C15.2683 39.2813 15.2924 39.0653 15.3083 38.845C15.3544 38.1989 15.3306 37.516 15.3306 37.516L17.0648 38.0703C17.1215 38.8949 17.6903 39.3639 17.6903 39.3639Z" fill="#C9885B"/>
<path d="M15.3195 38.6772C15.2623 38.5611 15.1864 38.3946 15.168 38.3759C15.2146 37.73 15.3316 37.516 15.3316 37.516C15.3316 37.516 15.3515 38.0859 15.3195 38.6772Z" fill="#CBCED8"/>
<path d="M16.7192 40.0466C16.6985 39.8773 16.6909 39.7232 16.6898 39.5963C16.6883 39.4435 16.5532 39.3703 16.4023 39.3469C15.8228 39.257 15.6295 39.0184 15.3821 38.788C15.3719 38.7787 15.3485 38.7339 15.3203 38.677C15.3523 38.0857 15.3324 37.5158 15.3324 37.5158L17.0666 38.0702C17.1233 38.8948 17.6921 39.3637 17.6921 39.3637C17.6921 39.3637 17.35 39.9395 16.7192 40.0466Z" fill="#AB744D"/>
<path d="M15.1906 36.2934C15.1906 36.2934 14.4521 38.5228 16.1545 39.064C16.228 39.0873 16.3068 39.0863 16.3799 39.0616C16.6935 38.9563 17.4938 38.5247 17.4367 36.876C17.4367 36.876 16.7117 34.3176 15.1906 36.2934Z" fill="#DB965F"/>
<path d="M18.5013 51.2755L17.8474 54.4312L17.0941 59.7049L16.2804 60.1764L16.1133 60.2734C16.1133 60.2734 16.3331 57.8298 16.1612 56.6241C16.1191 56.3274 16.1086 56.0266 16.1382 55.7283C16.1623 55.4848 16.2076 55.2034 16.2921 54.9457C16.386 54.6588 16.434 54.3589 16.4263 54.0569L16.3784 52.1918L16.3549 51.2755H18.5013Z" fill="#DB965F"/>
<path d="M16.1133 60.2734C16.1133 60.2734 16.2268 59.011 16.227 57.8532C16.227 57.4003 16.2096 56.9631 16.1612 56.6241C16.1353 56.4409 16.1213 56.2563 16.1213 56.0715C16.1215 55.9571 16.1269 55.8424 16.1382 55.7283C16.1623 55.4848 16.2076 55.2034 16.2921 54.9457C16.3795 54.679 16.4271 54.401 16.4271 54.1207C16.4271 54.0994 16.4269 54.0781 16.4263 54.0569L16.3873 52.5399C16.5315 52.5346 16.6747 52.5277 16.8154 52.5195C16.8206 53.0199 16.7919 53.8332 16.6086 54.6834C16.4767 55.2957 16.4073 55.9196 16.4109 56.5459C16.4171 57.6201 16.4056 59.1863 16.2981 59.8043L16.2804 60.1764L16.1133 60.2734Z" fill="#BA8051"/>
<path d="M15.4869 56.4071C14.908 57.7193 14.7859 58.6583 14.7952 59.2426C14.801 59.6018 14.468 59.8707 14.1188 59.7872C13.8284 59.7178 13.6467 59.429 13.7098 59.1374L13.8891 58.3067C13.9469 58.0394 13.9758 57.7671 13.9772 57.4936C13.9874 55.6087 14.3502 54.825 14.5492 54.5365C14.6795 54.3473 14.7661 54.1344 14.8717 53.9305C15.0674 53.5519 15.0752 53.2268 15.0619 53.064C15.0569 53.0021 15.041 52.9416 15.0156 52.8849L14.6847 52.1472C14.5592 51.8674 14.6871 51.539 14.9689 51.418L15.921 51.009C16.2928 50.8495 16.7036 51.133 16.6863 51.537L16.6136 53.2375C16.5924 53.735 16.4759 54.2238 16.2704 54.6773L15.4869 56.4071Z" fill="#DB965F"/>
<path d="M13.7846 58.7964C13.7846 58.7964 13.1995 59.3211 13.4697 60.1315C13.4697 60.1315 13.7824 60.4584 13.8393 60.7142C13.8393 60.7142 14.0417 61.2273 15.4206 61.0691C15.5016 61.0598 15.5688 61.0024 15.5908 60.9237C15.6304 60.7825 15.6417 60.528 15.4313 60.1599C15.4313 60.1599 14.8769 59.307 14.8059 58.9516C14.8059 58.9516 13.8011 59.4514 13.7846 58.7964Z" fill="#012553"/>
<path d="M16.1952 59.0812C16.1952 59.0812 15.8131 59.8881 15.9021 60.441C15.917 60.5342 15.9915 60.6063 16.0849 60.6194C16.3793 60.6605 17.059 60.7642 17.3661 60.8849C17.3661 60.8849 18.2729 61.0342 18.691 60.917C18.7896 60.8894 18.8572 60.7977 18.8536 60.6954C18.8478 60.5342 18.7891 60.2791 18.5033 60.1316L17.1715 59.1771C17.1715 59.1771 16.2612 59.6513 16.1952 59.0812Z" fill="#012553"/>
<path d="M18.6382 39.6784L18.6342 39.7867L18.5626 41.7654L18.545 42.2545L18.4776 44.1196L14.429 44.5297L14.2655 44.5461L14.2546 44.5474L14.2646 44.2665L14.2926 43.4719C14.3069 43.338 14.3168 43.2061 14.3229 43.0767C14.3518 42.4537 14.2911 41.885 14.1954 41.4002C14.0677 40.7528 13.8776 40.2553 13.7559 39.9786C13.772 39.9657 13.7809 39.9608 13.7809 39.9608L14.0282 39.8759L14.2205 39.81L15.2307 39.4633L15.2321 39.4646C15.8288 40.001 16.328 40.1131 16.7171 40.0467C17.348 39.9395 17.69 39.3637 17.69 39.3637L18.2957 39.5658L18.4718 39.6243L18.5001 39.6339C18.5208 39.6394 18.541 39.6454 18.5608 39.6517C18.5874 39.6601 18.6132 39.669 18.6382 39.6784Z" fill="white"/>
<path d="M15.4734 42.3489L15.3313 42.3916L15.2034 42.0362C14.578 40.2167 14.0293 39.876 14.0293 39.876L14.2215 39.8101C15.1 40.7783 15.3882 42.0362 15.3882 42.0362L15.4734 42.3489Z" fill="#012553"/>
<path d="M18.4729 39.6243V42.0361H18.3875L18.2969 39.5658L18.4729 39.6243Z" fill="#262C84"/>
<path d="M19.5674 44.5521L18.9469 44.8712L18.6293 45.0345L18.5723 45.064L18.5799 44.9073L18.5919 44.6688L18.6202 44.0943L18.7084 42.3134L18.7358 41.7589L19.2972 41.5956L19.5031 43.8493L19.544 44.2967L19.5674 44.5521Z" fill="#DB965F"/>
<path d="M23.526 42.9772C23.3216 43.3987 22.4346 43.7952 22.4346 43.7952L19.6973 45.5981C19.5218 45.7137 19.3152 45.7326 19.1341 45.6732C18.9562 45.615 18.803 45.4811 18.7285 45.2885L18.63 45.0345L18.5806 44.9073L18.502 44.704L18.5926 44.6688L18.8906 44.5521L19.5447 44.2967L21.0537 43.7069C21.3241 43.5622 21.5833 43.3288 21.7434 43.17C21.8303 43.0838 21.9066 42.9875 21.9682 42.882C22.0934 42.6676 22.2711 42.4602 22.4171 42.3064C22.5634 42.1526 22.6782 42.0523 22.6782 42.0523C22.7537 42.1267 22.7602 42.246 22.693 42.328L22.4139 42.6687L22.7804 42.4524C22.9045 42.3792 23.0473 42.3418 23.191 42.3503C23.729 42.3823 23.526 42.9772 23.526 42.9772Z" fill="#DB965F"/>
<path d="M20.2495 43.6423L19.5029 43.8493L18.8192 44.039L18.6201 44.0942L18.5579 44.1115L18.4785 44.1196L18.5479 42.1976L18.6391 39.6784C19.4086 39.971 19.5104 40.7851 19.5104 40.7851L20.2495 43.6423Z" fill="white"/>
<path d="M18.929 52.3052C18.5616 52.3593 15.8483 52.7396 14.2683 52.4331C14.2483 52.4293 14.2325 52.4146 14.227 52.3951C14.1816 52.2298 13.9997 51.344 14.0813 47.9592C14.0882 47.6694 14.1069 47.3799 14.1373 47.0916C14.1678 46.8029 14.2078 46.3535 14.2354 45.7906C14.2534 45.4203 14.2661 45.0012 14.2668 44.546C14.267 44.4543 14.2668 44.361 14.2659 44.2664C14.263 43.9597 14.2547 43.6386 14.2389 43.3074C14.2387 43.3019 14.2392 43.2967 14.2405 43.2914C14.2467 43.2674 14.2688 43.1911 14.3243 43.0766C14.3459 43.0316 14.3728 42.9807 14.4058 42.9247C14.5419 42.6947 14.7827 42.3789 15.2013 42.0381C15.2031 42.0366 15.2049 42.0351 15.2069 42.0339C15.2525 42.0063 15.7682 41.7424 16.876 43.196C16.9361 43.275 17.0568 43.2696 17.1088 43.1851C17.3257 42.8335 17.8412 42.0646 18.3654 41.7702C18.3735 41.7657 18.3828 41.7633 18.3921 41.7635L18.564 41.7653C18.5927 41.7657 18.6159 41.7886 18.6168 41.8171C18.6223 42.0143 18.6394 42.7923 18.6154 44.3605C18.6152 44.365 18.6157 44.3692 18.6166 44.3736C18.6464 44.4999 19.1123 46.496 19.1127 47.7346L19.1129 47.7375C19.1163 47.7933 19.2212 49.4729 18.9742 52.257C18.972 52.2817 18.9533 52.3017 18.929 52.3052Z" fill="#012553"/>
<path d="M18.6104 40.49H18.4734V39.6242L18.5017 39.6338C18.5225 39.6393 18.5426 39.6453 18.5624 39.6516C18.5695 39.6647 18.5768 39.6776 18.5839 39.6905C18.6017 39.7223 18.6189 39.7543 18.6358 39.7866L18.6104 40.49ZM18.3313 40.49H16.8012C16.7998 40.4844 16.7983 40.4787 16.7971 40.4731C16.7602 40.3254 16.7353 40.1811 16.7188 40.0467C17.3496 39.9395 17.6916 39.3637 17.6916 39.3637L18.2973 39.5657L18.3313 40.49Z" fill="#D9D9D9"/>
<path d="M18.4729 40.49H18.3309L18.2969 39.5657L18.4729 39.6242V40.49Z" fill="#202570"/>
<path d="M14.2559 44.5474L14.2659 44.2665C14.2668 44.3611 14.2669 44.4543 14.2668 44.5461L14.2559 44.5474Z" fill="#D9D9D9"/>
<path d="M14.2551 43.6704C14.2551 43.6657 14.255 43.661 14.2548 43.6562C14.255 43.661 14.2551 43.6655 14.2551 43.6704ZM14.2406 43.307C14.2404 43.3047 14.2404 43.3021 14.2402 43.2997C14.2402 43.2997 14.258 43.218 14.3247 43.0795C14.2704 43.1925 14.2484 43.2678 14.2422 43.2916C14.241 43.2967 14.2404 43.3017 14.2406 43.307Z" fill="#CBCED8"/>
<path d="M14.3248 43.0767C14.3297 42.9695 14.3321 42.8641 14.3321 42.7603C14.3319 42.2607 14.2765 41.8015 14.1973 41.4001L14.3157 41.2899C14.3157 41.2899 14.6054 41.9832 14.5121 42.7612C14.4713 42.8196 14.4364 42.8743 14.4064 42.9248C14.3733 42.9807 14.3464 43.0316 14.3248 43.0767Z" fill="#D9D9D9"/>
<path d="M14.2363 45.7908C14.2543 45.4205 14.267 45.0013 14.2678 44.5462C14.2679 44.4544 14.2678 44.3612 14.2669 44.2665C14.265 44.0736 14.261 43.8746 14.2545 43.6713C14.2543 43.6709 14.2543 43.6706 14.2543 43.6704C14.2543 43.6655 14.2541 43.6609 14.254 43.6562C14.254 43.6557 14.254 43.6551 14.254 43.6546C14.2538 43.6502 14.2536 43.6457 14.2534 43.6413C14.2534 43.6402 14.2534 43.6393 14.2532 43.6382C14.2532 43.6344 14.253 43.6304 14.2529 43.6264C14.2529 43.6251 14.2529 43.6237 14.2527 43.6222C14.2527 43.6186 14.2525 43.615 14.2523 43.6113C14.2523 43.6097 14.2523 43.6081 14.2521 43.6064C14.2521 43.603 14.252 43.5997 14.2518 43.5964C14.2518 43.5944 14.2518 43.5922 14.2516 43.5902C14.2516 43.5873 14.2514 43.5846 14.2514 43.5817C14.2512 43.579 14.251 43.5763 14.251 43.5735C14.2509 43.5713 14.2509 43.5692 14.2509 43.567C14.2507 43.5639 14.2505 43.5608 14.2505 43.5577C14.2503 43.5557 14.2503 43.5539 14.2501 43.5521C14.2501 43.5483 14.25 43.5445 14.2498 43.5408C14.2498 43.5397 14.2498 43.5386 14.2496 43.5376C14.2496 43.5332 14.2494 43.529 14.2492 43.5247C14.2492 43.5239 14.249 43.5234 14.249 43.5227C14.2489 43.5177 14.2487 43.513 14.2485 43.5081C14.2485 43.5081 14.2485 43.5081 14.2485 43.5079C14.246 43.4414 14.243 43.3744 14.2398 43.307C14.2396 43.3017 14.2401 43.2966 14.2414 43.2915C14.2476 43.2677 14.2696 43.1925 14.3239 43.0795C14.3239 43.0793 14.3239 43.0793 14.3239 43.0793C14.3243 43.0784 14.3248 43.0775 14.3252 43.0768C14.3468 43.0317 14.3737 42.9808 14.4068 42.9249C14.4367 42.8744 14.4716 42.8197 14.5125 42.7613C14.5032 42.8387 14.4902 42.9172 14.4725 42.9957C14.365 43.4772 14.4644 43.9776 14.4313 44.5298C14.4049 44.9686 14.3455 45.4021 14.2363 45.7908Z" fill="#012553"/>
<path d="M13.2529 41.7623L11.5518 44.0906C11.2958 44.4407 11.3975 44.9353 11.7708 45.1562L13.1515 43.3584L13.2529 41.7623Z" fill="#DB965F"/>
<path d="M11.7695 43.6219L13.0702 41.4394C13.584 40.429 13.6712 40.008 13.7762 39.9537C13.9045 40.5151 14.9956 41.5749 14.1883 43.4646L13.5488 44.7439L11.7719 43.6494" fill="white"/>
<path d="M19.9368 42.761C19.5922 42.7558 19.1826 42.5833 18.8004 42.365C18.1253 41.9802 17.5344 41.4532 17.5344 41.4532C17.2364 41.1318 17.0597 40.793 16.9603 40.4695C16.6939 39.6048 16.9802 38.852 16.9802 38.852C17.0377 38.7014 17.0867 38.5669 17.1293 38.444C17.1373 38.4208 17.145 38.3981 17.1527 38.3759L17.1529 38.3755C17.2589 38.0619 17.3229 37.8211 17.3826 37.5682C17.408 37.4619 17.3715 37.3502 17.2886 37.279L16.9518 36.9897C16.8764 36.9596 16.7772 36.7142 16.7005 36.4901C16.6324 36.2909 16.5822 36.1084 16.5822 36.1084C16.5961 36.2449 16.6011 36.3828 16.6011 36.5063C16.6011 36.7563 16.5822 36.9471 16.5822 36.9471L16.0845 36.9614C16.1357 36.8691 16.1446 36.7271 16.1347 36.5829C16.1175 36.3274 16.0419 36.0658 16.0419 36.0658C16.0129 36.3058 15.9772 36.4835 15.9403 36.6148C15.8332 36.9975 15.715 36.9897 15.715 36.9897C15.7701 36.8672 15.8076 36.7464 15.832 36.6327C15.9217 36.2187 15.8429 35.8952 15.8429 35.8952L15.5216 36.6835L15.3738 37.0467C15.0326 37.5868 15.2175 38.127 15.2175 38.127C15.2578 38.243 15.2899 38.3517 15.3155 38.4529C15.3196 38.469 15.3236 38.4848 15.3274 38.5005V38.5007C15.3657 38.6628 15.3867 38.8056 15.3956 38.93C15.4315 39.4275 15.2742 39.6338 15.2742 39.6338C15.2288 39.7012 15.1776 39.7655 15.1223 39.8264L15.1221 39.8266C14.5708 40.4326 13.5971 40.7141 13.5971 40.7141C13.7677 40.4867 13.7533 39.6762 13.7533 39.6762C13.4548 41.0836 13 40.9842 13 40.9842C13.2725 40.9023 13.3125 40.4326 13.4193 39.9819C13.4913 39.6782 13.7359 39.2099 13.8402 38.9157C13.9461 38.6163 14.0667 38.248 14.1703 37.9227C14.3115 37.4801 14.4214 37.1177 14.4214 37.1177C14.4413 37.0253 14.4619 36.9374 14.4835 36.8541C14.962 35.0097 15.8856 35.2697 15.8856 35.2697C16.7899 34.9849 17.3406 35.5744 17.6742 36.3304C18.1063 37.3095 18.1741 38.5675 18.1741 38.5675C18.1965 38.9236 18.3967 39.3572 18.5832 39.6905C18.7785 40.0392 18.916 40.4175 18.9827 40.8117C18.9981 40.9025 19.0152 40.989 19.0336 41.0713C19.2624 41.3433 19.5351 41.6021 19.7845 41.6714C19.7969 41.6747 19.8094 41.6779 19.8217 41.6805C19.81 41.6785 19.7973 41.6761 19.7841 41.6733C19.6234 41.6398 19.3592 41.5363 19.0697 41.2233C19.2808 42.0463 19.6097 42.3914 19.6097 42.3914C19.5246 42.4624 18.9204 41.9578 18.9204 41.9578C18.9723 42.0967 19.3397 42.3652 19.618 42.5535C19.7956 42.6737 19.9368 42.761 19.9368 42.761Z" fill="#011C3E"/>
<path d="M19.9297 41.6887C19.9388 41.6884 19.9437 41.6878 19.9437 41.6878C19.939 41.6884 19.9342 41.6884 19.9297 41.6887Z" fill="#011C3E"/>
<path d="M19.9306 41.6888C19.9117 41.6894 19.8742 41.6888 19.8223 41.6805C19.859 41.6879 19.8951 41.6908 19.9306 41.6888Z" fill="#011C3E"/>
<path d="M19.26 41.8383V40.8691C19.26 40.6596 19.114 40.49 18.9342 40.49H15.5309C15.3511 40.49 15.2051 40.6596 15.2051 40.8691V42.2345V43.6467V50.6082H25.9276V42.9308C25.9276 42.5461 25.6598 42.2345 25.3292 42.2345H19.6003C19.4124 42.2345 19.26 42.0572 19.26 41.8383Z" fill="#D9325E"/>
<path d="M25.9286 50.6084H15.209L15.531 42.5412H26.2508L25.9286 50.6084Z" fill="#D3DCEF"/>
<path d="M25.9286 50.6082H15.209L15.851 42.7941H26.5708L25.9286 50.6082Z" fill="#EEF2FA"/>
<path d="M25.9286 50.6082H15.209L16.1502 43.0703H26.87L25.9286 50.6082Z" fill="#D3DCEF"/>
<path d="M25.9266 50.6086H15.207L16.4093 43.2152H27.129L25.9266 50.6086Z" fill="#F4F6FC"/>
<path d="M15.2012 50.6082H25.9236L27.4293 43.9468C27.5055 43.6103 27.2875 43.2812 26.9883 43.2812H17.2091C17.0018 43.2812 16.8208 43.4436 16.7681 43.6767L15.2012 50.6082Z" fill="#D9325E"/>
<path d="M24.9521 41.8149L23.1528 44.6168L22.3267 45.9032C22.2272 46.0582 22.0209 46.1029 21.8662 46.0034L18.2508 43.6822C18.0959 43.5825 18.0512 43.3764 18.1505 43.2215L18.9749 41.9375L21.2591 38.3806C21.3584 38.2255 21.5647 38.1808 21.7198 38.2803L24.5635 40.1066L24.5706 40.137L24.9521 41.8149Z" fill="white"/>
<path d="M24.9509 41.8147L24.1462 41.2979C24.0201 41.2169 23.9836 41.0492 24.0646 40.923L24.5695 40.1368L24.8447 41.3471L24.9509 41.8147Z" fill="#E5E5E5"/>
<path d="M23.9488 42.3345L20.7217 40.2622C20.6576 40.221 20.6389 40.1356 20.6801 40.0715C20.7214 40.0073 20.8066 39.9886 20.8709 40.0299L24.098 42.1023C24.1621 42.1435 24.1809 42.2287 24.1396 42.2929C24.0984 42.3572 24.013 42.3757 23.9488 42.3345Z" fill="#EEF2FE"/>
<path d="M23.5797 42.9209L20.3526 40.8487C20.2884 40.8074 20.2697 40.722 20.311 40.6579C20.3522 40.5937 20.4376 40.5752 20.5018 40.6163L23.7289 42.6887C23.793 42.7299 23.8117 42.8153 23.7705 42.8795C23.7292 42.9436 23.6438 42.9622 23.5797 42.9209Z" fill="#EEF2FE"/>
<path d="M23.2009 43.4869L19.9736 41.4144C19.9095 41.3732 19.8909 41.288 19.932 41.2238C19.9732 41.1597 20.0586 41.141 20.1228 41.1822L23.3501 43.2547C23.4142 43.2957 23.4327 43.3811 23.3915 43.4453C23.3504 43.5094 23.265 43.5281 23.2009 43.4869Z" fill="#EEF2FE"/>
<path d="M22.8317 44.0733L19.6044 42.0009C19.5403 41.9598 19.5217 41.8744 19.563 41.8103C19.604 41.7461 19.6894 41.7274 19.7536 41.7687L22.9809 43.8411C23.045 43.8822 23.0635 43.9676 23.0225 44.0317C22.9812 44.0958 22.8958 44.1145 22.8317 44.0733Z" fill="#EEF2FE"/>
<path d="M22.4606 44.6597L19.2333 42.5875C19.1692 42.5462 19.1506 42.4608 19.1919 42.3967C19.2329 42.3326 19.3183 42.3138 19.3825 42.3551L22.6098 44.4275C22.6739 44.4686 22.6926 44.554 22.6514 44.6181C22.6101 44.6823 22.5247 44.701 22.4606 44.6597Z" fill="#EEF2FE"/>
<path d="M20.256 44.9697L18.4797 44.9688C18.2957 44.9686 18.1465 44.8193 18.1465 44.6352L18.147 43.577C18.1725 43.6181 18.2072 43.6542 18.2504 43.682L20.256 44.9697ZM22.9604 44.9158L23.1057 44.6894C23.091 44.7838 23.0367 44.8653 22.9604 44.9158Z" fill="#EC98AE"/>
<path d="M18.1534 43.2148H18.1465V43.1093H18.2212L18.1534 43.2148Z" fill="#F6CCD7"/>
<path d="M18.1465 43.2258L18.1467 43.2149H18.1536L18.1494 43.2215C18.1485 43.2229 18.1476 43.2244 18.1465 43.2258Z" fill="#DBDDE2"/>
<path d="M22.7759 44.9712C22.7757 44.9712 22.7757 44.9712 22.7756 44.9712L20.2554 44.9697L18.2499 43.6821C18.2066 43.6543 18.1719 43.6181 18.1465 43.577L18.1467 43.2258C18.1478 43.2244 18.1487 43.2229 18.1496 43.2215L18.1538 43.2149L18.2215 43.1093H20.0465L22.461 44.6598C22.4841 44.6747 22.5099 44.6817 22.5355 44.6817C22.581 44.6817 22.6255 44.6592 22.6518 44.6182C22.6931 44.554 22.6744 44.4686 22.6102 44.4276L20.5574 43.1093H21.3293L22.8306 44.0734C22.8537 44.0883 22.8795 44.0954 22.9051 44.0954C22.9505 44.0954 22.9951 44.0729 23.0214 44.0318C23.0625 43.9677 23.0439 43.8823 22.9798 43.8412L21.84 43.1093H22.6119L23.1097 43.4291L23.1092 44.638C23.1092 44.6556 23.1077 44.6727 23.1052 44.6894L22.9598 44.9158C22.9071 44.9508 22.8439 44.9712 22.7759 44.9712Z" fill="#E5E5E5"/>
<path d="M23.1111 43.429L22.6133 43.1092H23.1113L23.1111 43.429Z" fill="#F6CCD7"/>
<path d="M22.9059 44.0952C22.8803 44.0952 22.8545 44.0881 22.8314 44.0732L21.3301 43.1091H21.8408L22.9806 43.841C23.0447 43.8821 23.0633 43.9675 23.0222 44.0316C22.9959 44.0727 22.9514 44.0952 22.9059 44.0952Z" fill="#F6CCD7"/>
<path d="M22.5359 44.6816C22.5103 44.6816 22.4845 44.6746 22.4614 44.6597L20.0469 43.1092H20.5578L22.6106 44.4274C22.6748 44.4685 22.6935 44.5539 22.6522 44.618C22.6259 44.6591 22.5814 44.6816 22.5359 44.6816Z" fill="#F6CCD7"/>
<path d="M15.2012 50.6082H25.9234L27.4291 43.9468C27.5053 43.6103 27.2873 43.2812 26.9881 43.2812H17.2089C17.0016 43.2812 16.8206 43.4436 16.7677 43.6767L15.2012 50.6082Z" fill="#D9325E"/>
<path d="M21.6089 47.595H21.457L21.7187 45.9386H21.8704L21.6089 47.595Z" fill="#E3E9F7"/>
<path d="M22.2489 46.7589C22.2178 46.7767 22.1815 46.7685 22.1678 46.7405L21.7914 45.966L21.17 46.7405C21.1476 46.7685 21.1087 46.7767 21.0833 46.7589C21.0579 46.7411 21.0555 46.7038 21.0777 46.676L21.7628 45.8219C21.7766 45.8046 21.7977 45.7941 21.8184 45.7941C21.8391 45.7941 21.8568 45.8046 21.8653 45.8219L22.2805 46.676C22.2854 46.686 22.2867 46.6971 22.285 46.7082C22.2818 46.728 22.2689 46.7474 22.2489 46.7589Z" fill="#E3E9F7"/>
<path d="M22.3156 47.2049L22.2115 47.865H20.7719L20.8762 47.2049H20.6524L20.5117 48.0952H22.3988L22.5395 47.2049H22.3156Z" fill="#E3E9F7"/>
<path d="M12.3898 43.9327L12.4664 43.9927L12.7185 44.1896L13.2716 44.6224L14.5477 45.6207C14.8097 45.7798 15.1427 45.8841 15.3609 45.941C15.4792 45.9717 15.601 45.9884 15.7232 45.9877C15.9714 45.9862 16.2403 46.0335 16.4471 46.0809C16.6541 46.1283 16.7987 46.1763 16.7987 46.1763C16.7734 46.2789 16.6739 46.3454 16.569 46.3293L16.1339 46.2624L16.5065 46.4677C16.6326 46.5373 16.7376 46.6412 16.8034 46.7692C17.05 47.2485 16.6472 47.2603 16.6472 47.2603C16.1802 47.2992 15.1749 46.854 15.1749 46.854L12.2291 45.4166L11.7715 45.1564L12.3898 43.9327Z" fill="#DB965F"/>
<path d="M60.5469 57.8154C60.5469 57.8154 60.7535 59.4963 60.5469 59.8795L62.0656 60.1597L61.6085 57.4026L60.5469 57.8154Z" fill="#DB965F"/>
<path d="M60.5984 60.9429C60.5984 60.9429 59.3535 61.2502 58.3997 61.0035C58.2574 60.9668 58.1684 60.8248 58.1996 60.6815C58.2374 60.5078 58.3951 60.2988 58.9051 60.216C58.9051 60.216 60.2756 59.6231 60.6571 59.1514C60.6571 59.1514 61.447 59.5461 61.9179 59.2399C61.9179 59.2399 62.2764 59.4974 62.3347 60.0046C62.3771 60.3739 62.1105 60.7071 61.7415 60.7514C61.3542 60.7979 60.8409 60.869 60.5984 60.9429Z" fill="#012553"/>
<path d="M62.5547 57.6237C62.5547 57.6237 62.761 59.3046 62.5547 59.6878L64.0734 59.968L63.6163 57.2109L62.5547 57.6237Z" fill="#DB965F"/>
<path d="M62.5788 60.9393C62.5788 60.9393 61.3338 61.2465 60.38 60.9998C60.2379 60.9631 60.1488 60.8214 60.1801 60.6778C60.2177 60.5041 60.3757 60.2952 60.8856 60.2123C60.8856 60.2123 62.2564 59.6194 62.6379 59.1478C62.6379 59.1478 63.4684 59.4525 63.9394 59.1465C63.9394 59.1465 64.2566 59.4937 64.3153 60.001C64.3576 60.3702 64.0909 60.7035 63.7219 60.7478C63.3349 60.7943 62.8216 60.8653 62.5788 60.9393Z" fill="#012553"/>
<path d="M62.1663 45.1307L61.1957 51.4023L61.7854 57.9485L61.4816 57.9948L60.2376 58.1843L59.0741 51.87C58.9554 51.2257 58.901 50.5711 58.9114 49.9158L58.999 44.3843L62.2132 44.8267L62.1663 45.1307Z" fill="#012553"/>
<path d="M61.4828 57.9946L60.3946 51.551L60.3633 50.6083H60.9484C60.9983 51.3162 61.0915 52.021 61.2288 52.718L61.3871 53.5118L61.7866 57.9483L61.4828 57.9946Z" fill="#012553"/>
<path d="M63.5337 44.5834C63.5337 44.5834 64.0057 45.6596 63.7842 48.2987L63.5985 51.6315L63.9686 58.1844L62.3381 58.28L61.2285 52.7181C61.0304 51.7099 60.9235 50.6858 60.9082 49.6584L60.8281 44.2075L63.5337 44.5834Z" fill="#012553"/>
<path d="M59.5855 41.2979L59.1129 42.7349L58.9306 43.4147C58.9254 43.4258 58.9203 43.4367 58.9147 43.447L57.8789 42.3265L57.9296 42.1267L58.19 41.0961L58.7332 41.1747L58.9988 41.213L59.5855 41.2979Z" fill="#DB965F"/>
<path d="M58.9305 43.4255C58.8641 43.5785 58.9123 44.0796 58.2135 44.0438L56.3926 43.7667L53.7777 43.2504C52.4164 43.2169 52.2711 42.6428 52.2711 42.6428C51.9406 42.1053 52.5581 41.7607 52.5581 41.7607C53.0023 41.5486 53.7457 41.9921 53.7655 42.0039L53.5685 41.7741C53.5014 41.6956 53.5341 41.5742 53.6316 41.5401C54.1208 41.9224 54.3052 42.3263 54.3052 42.3263L56.3503 42.5897L57.7314 42.7896L57.8767 42.3172L58.9305 43.4255Z" fill="#DB965F"/>
<path d="M62.6774 38.4887L62.6707 39.675L60.8478 39.9968L59.7891 39.4741L60.247 38.8995L60.5002 38.5819C60.5507 38.5183 60.5725 38.4364 60.5595 38.3561L60.3385 36.9943L62.1146 36.2235L61.9646 37.3057L61.9404 37.4836C61.8865 38.0599 62.6774 38.4887 62.6774 38.4887Z" fill="#C9885B"/>
<path d="M61.9453 37.4548L61.966 37.3058L62.1156 36.2237L61.9482 37.4501C61.9474 37.4517 61.9461 37.4532 61.9453 37.4548Z" fill="#CBCED8"/>
<path d="M60.4538 38.8188C60.46 38.7425 60.4803 38.657 60.518 38.5614L60.5159 38.5623C60.5479 38.5145 60.5644 38.4585 60.5644 38.4015C60.5644 38.3864 60.5632 38.3713 60.5607 38.3563L60.3398 36.9944L62.1158 36.2237L61.9662 37.3059L61.9455 37.4549C61.4375 38.3352 60.8205 38.6655 60.4538 38.8188Z" fill="#AB744D"/>
<path d="M59.4883 35.9554C59.4883 35.9554 59.7029 38.3949 60.4532 38.2742C60.4532 38.2742 61.2909 38.1334 62.1622 36.8601L62.3702 36.3441L61.7534 35.6873L59.4883 35.9554Z" fill="#DB965F"/>
<path d="M60.7082 34.7491C60.7082 34.7491 58.4971 35.0892 59.5759 36.6079C59.5759 36.6079 59.7698 36.639 59.9976 35.9555C59.9976 35.9555 60.1586 36.6926 61.3782 36.3442C61.3782 36.3442 61.405 36.7597 61.4856 36.8803H61.606C61.606 36.8803 61.5926 36.4513 61.9412 36.3576C61.9412 36.3576 62.3701 36.2905 62.1289 36.8803L61.9747 37.1283L61.9387 37.531C61.9387 37.531 62.424 36.6659 62.5042 36.143C62.5042 36.143 62.7053 35.2852 61.9546 34.8295C61.9546 34.8295 61.3381 34.3604 60.7082 34.7491Z" fill="#011C3E"/>
<path d="M59.1141 42.5234L58.7415 42.3941L57.9702 42.1266L57.8008 42.0676C58.2244 39.84 58.6362 39.3872 58.8243 39.3034C58.892 39.2731 58.9308 39.2909 58.9308 39.2909L59.0397 41.2131L59.1141 42.5234Z" fill="white"/>
<path d="M58.8443 40.8723L58.7852 40.7957L58.8104 39.8697L58.8443 40.8723Z" fill="#D9D9D9"/>
<path d="M64.2729 41.7457L64.2007 45.3106L64.1977 45.4741C64.1947 45.6233 64.0998 45.7555 63.9591 45.805C63.0308 46.1309 61.86 46.1311 60.8539 46.0328H60.853V46.0326C60.0398 45.9532 59.3338 45.8093 58.9502 45.7216C58.7745 45.6812 58.6561 45.5166 58.6736 45.3373L58.9092 42.8953C58.9109 42.8797 58.9113 42.8642 58.9109 42.8486L58.7946 39.4162C58.7925 39.3498 58.8309 39.2892 58.8917 39.263L60.0492 38.7633L60.0958 38.7433L60.5174 38.5613C60.3549 38.9728 60.5165 39.1961 60.7188 39.3162C60.8128 39.3724 60.9167 39.4047 61.0228 39.4144C61.048 39.4167 61.0732 39.4178 61.0989 39.4174C61.2054 39.4163 61.3123 39.3923 61.4115 39.3462C62.6438 38.7739 62.3757 38.2788 62.3757 38.2788L62.752 38.5248L62.8148 38.5658L64.1523 39.4405L64.2541 41.371L64.2725 41.7195C64.2729 41.7282 64.2729 41.737 64.2729 41.7457Z" fill="white"/>
<path d="M61.0743 40.4902H61L61.0278 39.4348L61.0241 39.4144C61.0461 39.4164 61.0677 39.4175 61.0894 39.4175C61.0931 39.4175 61.0967 39.4175 61.1 39.4175L61.0743 40.4902Z" fill="#D9D9D9"/>
<path d="M60.658 39.9119C60.658 39.9119 60.0103 39.6947 60.0506 38.7632L60.0971 38.7432C60.0718 39.0181 60.1354 39.4453 60.6356 39.8225L60.7159 39.474C60.7159 39.474 60.7657 39.5147 60.8386 39.5147C60.8916 39.5147 60.9569 39.4934 61.0241 39.4204C61.0213 39.426 60.9263 39.6039 60.8203 39.6039C60.795 39.6039 60.7685 39.5936 60.7428 39.5678L60.658 39.9119Z" fill="#D9D9D9"/>
<path d="M61.2291 39.5779C61.1223 39.5536 61.1047 39.4302 61.1035 39.4209C61.1219 39.4936 61.1759 39.5441 61.2291 39.5779Z" fill="#D9D9D9"/>
<path d="M61.48 39.9163L61.3594 39.6348C61.3594 39.6348 61.2954 39.6186 61.2305 39.5777C61.2422 39.5803 61.2548 39.5818 61.269 39.5818C61.3012 39.5818 61.3402 39.5738 61.3862 39.5543L61.48 39.8225C61.48 39.8225 62.5609 39.2636 62.7539 38.5246L62.8167 38.5657C62.666 38.9378 62.3089 39.4338 61.48 39.9163Z" fill="#D9D9D9"/>
<path d="M63.9661 45.325L63.4277 41.3131L64.2556 41.3711L64.2739 41.7225C64.2744 41.7296 64.2744 41.7367 64.2744 41.7439L64.2021 45.3106L63.9661 45.325Z" fill="#D9D9D9"/>
<path d="M59.0269 41.8386V40.8693C59.0269 40.6599 59.1727 40.4903 59.3526 40.4903H62.7561C62.936 40.4903 63.0818 40.6599 63.0818 40.8693V42.2347V43.6469V50.6084H52.3594V42.931C52.3594 42.5463 52.6271 42.2347 52.9579 42.2347H58.6864C58.8747 42.2347 59.0269 42.0574 59.0269 41.8386Z" fill="#D9325E"/>
<path d="M52.361 50.6082H63.0806L62.7586 42.541H52.0391L52.361 50.6082Z" fill="#D3DCEF"/>
<path d="M52.3609 50.6082H63.0805L62.4383 42.7941H51.7188L52.3609 50.6082Z" fill="#EEF2FA"/>
<path d="M52.3613 50.6082H63.0809L62.1399 43.0703H51.4199L52.3613 50.6082Z" fill="#D3DCEF"/>
<path d="M52.3606 50.6082H63.0802L61.8778 43.2147H51.1582L52.3606 50.6082Z" fill="#F4F6FC"/>
<path d="M63.0872 50.6084H52.3646L50.859 43.947C50.7829 43.6105 51.0011 43.2815 51.2999 43.2815H61.0793C61.2865 43.2815 61.4677 43.4439 61.5202 43.677L63.0872 50.6084Z" fill="#D9325E"/>
<path d="M56.1618 45.5179L53.1926 41.672C53.0801 41.5262 53.1069 41.3169 53.2526 41.2044L56.6534 38.5788C56.7992 38.4663 57.0087 38.4932 57.1211 38.6389L60.6368 43.1925C60.7492 43.3383 60.7225 43.5476 60.5767 43.6601L57.9014 45.7256L57.8701 45.722L56.1618 45.5179Z" fill="white"/>
<path d="M57.8683 45.7222L56.1602 45.5182L56.8704 44.9696L57.287 44.9698C57.2905 44.9739 57.294 44.9781 57.2975 44.9827L57.8683 45.7222Z" fill="#E5E5E5"/>
<path d="M56.0088 44.3974L59.0445 42.0536C59.1049 42.0069 59.1914 42.0181 59.2383 42.0784C59.2847 42.1388 59.2736 42.2255 59.2132 42.2721L56.1775 44.616C56.1171 44.6626 56.0302 44.6514 55.9838 44.5911C55.9373 44.5306 55.9484 44.444 56.0088 44.3974Z" fill="#EEF2FE"/>
<path d="M55.581 43.8525L58.6167 41.5086C58.6771 41.4621 58.7638 41.4732 58.8104 41.5335C58.8569 41.594 58.8459 41.6807 58.7855 41.7272L55.7498 44.0711C55.6894 44.1176 55.6027 44.1065 55.5561 44.0462C55.5096 43.9859 55.5206 43.8992 55.581 43.8525Z" fill="#EEF2FE"/>
<path d="M55.1747 43.3066L58.2105 40.9627C58.2708 40.9162 58.3574 40.9273 58.404 40.9876C58.4507 41.048 58.4397 41.1346 58.3793 41.1813L55.3436 43.5252C55.2832 43.5717 55.1966 43.5606 55.15 43.5003C55.1033 43.44 55.1143 43.3533 55.1747 43.3066Z" fill="#EEF2FE"/>
<path d="M54.7451 42.7623L57.7808 40.4184C57.8412 40.3717 57.928 40.383 57.9743 40.4433C58.021 40.5036 58.0097 40.5903 57.9494 40.6368L54.9137 42.9807C54.8534 43.0274 54.7666 43.0161 54.7202 42.9558C54.6735 42.8955 54.6848 42.8088 54.7451 42.7623Z" fill="#EEF2FE"/>
<path d="M54.3173 42.217L57.3534 39.8731C57.4137 39.8266 57.5003 39.8377 57.5467 39.898C57.5935 39.9583 57.5823 40.0452 57.522 40.0917L54.4863 42.4356C54.426 42.4821 54.339 42.4711 54.2926 42.4107C54.2458 42.3504 54.257 42.2637 54.3173 42.217Z" fill="#EEF2FE"/>
<path d="M59.8055 44.9712L58.8787 44.9706L60.1393 43.9975L60.1389 44.6381C60.1389 44.8222 59.9897 44.9712 59.8055 44.9712ZM55.7373 44.969L55.5088 44.9688C55.325 44.9688 55.1758 44.8195 55.1758 44.6354L55.1762 44.242L55.7373 44.969Z" fill="#EC98AE"/>
<path d="M58.8783 44.9705L57.2879 44.9696C57.2348 44.9087 57.1592 44.8769 57.0836 44.8769C57.0252 44.8769 56.9669 44.8952 56.9178 44.9334L56.8712 44.9694L55.7369 44.9689L55.1758 44.2419L55.1762 43.5273C55.1999 43.5451 55.2289 43.5542 55.2582 43.5542C55.2876 43.5542 55.3174 43.5449 55.3423 43.5254L55.8813 43.1092H56.543L55.58 43.8525C55.5197 43.8992 55.5084 43.9859 55.5551 44.0462C55.5824 44.0814 55.6231 44.0998 55.6645 44.0998C55.6939 44.0998 55.7236 44.0905 55.749 44.0711L56.9947 43.1092H57.6769L56.0084 44.3976C55.9481 44.4441 55.9368 44.5308 55.9835 44.5913C56.0108 44.6263 56.0514 44.6449 56.0929 44.6449C56.1222 44.6449 56.152 44.6354 56.1769 44.6162L58.129 43.1092H60.1393L60.1389 43.9973L58.8783 44.9705Z" fill="#E5E5E5"/>
<path d="M57.2878 44.9697L56.8711 44.9695L56.9176 44.9336C56.9669 44.8954 57.0254 44.877 57.0835 44.877C57.1593 44.877 57.2347 44.9089 57.2878 44.9697Z" fill="#CECECE"/>
<path d="M56.0933 44.6453C56.052 44.6453 56.0111 44.6267 55.9838 44.5917C55.9374 44.5311 55.9483 44.4445 56.0087 44.398L57.6775 43.1095H58.1294L56.1776 44.6165C56.1522 44.6358 56.1226 44.6453 56.0933 44.6453Z" fill="#F6CCD7"/>
<path d="M55.6654 44.0999C55.6244 44.0999 55.5834 44.0815 55.5562 44.0462C55.5095 43.9859 55.5206 43.8993 55.5811 43.8526L56.5438 43.1093H56.9957L55.75 44.0711C55.7247 44.0906 55.6949 44.0999 55.6654 44.0999Z" fill="#F6CCD7"/>
<path d="M55.1758 43.3049V43.1093H55.4293L55.1758 43.3049Z" fill="#E5E5E5"/>
<path d="M55.2578 43.5544C55.2284 43.5544 55.1995 43.5453 55.1758 43.5276V43.3052L55.4293 43.1095H55.881L55.342 43.5257C55.3168 43.5452 55.2871 43.5544 55.2578 43.5544Z" fill="#F6CCD7"/>
<path d="M63.0872 50.6084H52.3646L50.859 43.947C50.7829 43.6105 51.0011 43.2815 51.2999 43.2815H61.0793C61.2865 43.2815 61.4677 43.4439 61.5202 43.677L63.0872 50.6084Z" fill="#D9325E"/>
<path d="M56.4721 46.2943H56.3203L56.5819 47.9507H56.7337L56.4721 46.2943Z" fill="#E3E9F7"/>
<path d="M57.1123 47.1304C57.0812 47.1126 57.0447 47.1208 57.0313 47.1487L56.6547 47.9233L56.0336 47.1487C56.0109 47.1208 55.9722 47.1126 55.9464 47.1304C55.9211 47.1482 55.9188 47.1856 55.9411 47.2133L56.6259 48.0674C56.6401 48.0847 56.6609 48.0952 56.6816 48.0952C56.7027 48.0952 56.7204 48.0847 56.7284 48.0674L57.1438 47.2133C57.1488 47.2032 57.1499 47.1922 57.1484 47.1811C57.1453 47.1613 57.1323 47.1418 57.1123 47.1304Z" fill="#E3E9F7"/>
<path d="M57.1789 46.6846L57.0744 46.0243H55.6348L55.7392 46.6846H55.5153L55.375 45.7941H57.2617L57.4024 46.6846H57.1789Z" fill="#E3E9F7"/>
<path d="M64.8917 41.1696L63.6585 41.8532L64.4224 43.6493L62.68 46.6652C62.68 46.6652 62.2378 46.7054 61.715 47.0404C61.715 47.1436 61.8186 47.2147 61.9148 47.1772L62.1977 47.0673C62.1977 47.0673 61.5139 47.6302 61.5674 48.1263C61.5674 48.1263 61.688 48.8232 62.3048 48.6892C62.3048 48.6892 62.8946 48.7428 63.3769 47.4694L65.4009 43.9759C65.4997 43.8053 65.5272 43.6026 65.4775 43.412L64.8917 41.1696Z" fill="#DB965F"/>
<path d="M64.0826 39.4345C64.0826 39.4345 64.9032 39.4137 65.1983 42.2285L63.7776 42.7512C63.7776 42.7512 62.6849 39.6164 64.0826 39.4345Z" fill="white"/>
</svg>
