<svg width="67" height="65" viewBox="0 0 67 65" fill="none" xmlns="http://www.w3.org/2000/svg">
<path fill-rule="evenodd" clip-rule="evenodd" d="M38.6948 58.4477H32.0566L33.7162 51.6139H37.0352L38.6948 58.4477Z" fill="#5D6B85"/>
<path d="M38.6948 58.4477H32.0566L33.7162 51.6139H37.0352L38.6948 58.4477Z" stroke="#416D96" stroke-width="0.5" stroke-miterlimit="10" stroke-linecap="round" stroke-linejoin="round"/>
<path fill-rule="evenodd" clip-rule="evenodd" d="M50.4548 32.743V52.0058C50.4548 53.0571 49.6176 53.9106 48.5865 53.9106H22.1613C21.1301 53.9106 20.293 53.0571 20.293 52.0058V32.743C20.293 31.6917 21.1301 30.8383 22.1613 30.8383H48.5865C49.6176 30.8383 50.4548 31.6917 50.4548 32.743Z" fill="#5D6B85"/>
<mask id="mask0_5378_489" style="mask-type:luminance" maskUnits="userSpaceOnUse" x="20" y="30" width="31" height="24">
<path d="M50.4548 32.743V52.0058C50.4548 53.0571 49.6176 53.9106 48.5865 53.9106H22.1613C21.1301 53.9106 20.293 53.0571 20.293 52.0058V32.743C20.293 31.6917 21.1301 30.8383 22.1613 30.8383H48.5865C49.6176 30.8383 50.4548 31.6917 50.4548 32.743Z" fill="white"/>
</mask>
<g mask="url(#mask0_5378_489)">
<path fill-rule="evenodd" clip-rule="evenodd" d="M21.1228 52.6817L11.7383 43.3585L36.3477 27.182L38.6938 29.5128L21.1228 52.6817Z" fill="#9FA9BC"/>
</g>
<mask id="mask1_5378_489" style="mask-type:luminance" maskUnits="userSpaceOnUse" x="20" y="30" width="31" height="24">
<path d="M50.4548 32.743V52.0058C50.4548 53.0571 49.6176 53.9106 48.5865 53.9106H22.1613C21.1301 53.9106 20.293 53.0571 20.293 52.0058V32.743C20.293 31.6917 21.1301 30.8383 22.1613 30.8383H48.5865C49.6176 30.8383 50.4548 31.6917 50.4548 32.743Z" fill="white"/>
</mask>
<g mask="url(#mask1_5378_489)">
<path fill-rule="evenodd" clip-rule="evenodd" d="M35.2714 58.4476L28.8027 52.0211L55.355 30.8383L56.9722 32.4449L35.2714 58.4476Z" fill="#9FA9BC"/>
</g>
<mask id="mask2_5378_489" style="mask-type:luminance" maskUnits="userSpaceOnUse" x="20" y="30" width="31" height="24">
<path d="M50.4548 32.743V52.0058C50.4548 53.0571 49.6176 53.9106 48.5865 53.9106H22.1613C21.1301 53.9106 20.293 53.0571 20.293 52.0058V32.743C20.293 31.6917 21.1301 30.8383 22.1613 30.8383H48.5865C49.6176 30.8383 50.4548 31.6917 50.4548 32.743Z" fill="white"/>
</mask>
<g mask="url(#mask2_5378_489)">
<path fill-rule="evenodd" clip-rule="evenodd" d="M52.7202 48.8846V51.5733C52.7202 52.6246 51.8039 53.4781 50.6753 53.4781H21.752C20.6233 53.4781 19.707 52.6246 19.707 51.5733V48.8846H52.7202Z" fill="#3F4F6D"/>
</g>
<path d="M50.4548 32.743V52.0058C50.4548 53.0571 49.6176 53.9106 48.5865 53.9106H22.1613C21.1301 53.9106 20.293 53.0571 20.293 52.0058V32.743C20.293 31.6917 21.1301 30.8383 22.1613 30.8383H48.5865C49.6176 30.8383 50.4548 31.6917 50.4548 32.743Z" stroke="#416D96" stroke-width="0.5" stroke-miterlimit="10" stroke-linecap="round" stroke-linejoin="round"/>
<path fill-rule="evenodd" clip-rule="evenodd" d="M50.4548 49.3171V52.0058C50.4548 53.0571 49.6176 53.9106 48.5865 53.9106H22.1613C21.1301 53.9106 20.293 53.0571 20.293 52.0058V49.3171H50.4548Z" fill="#8392AF" stroke="#416D96" stroke-width="0.5" stroke-miterlimit="10" stroke-linecap="round" stroke-linejoin="round"/>
<path fill-rule="evenodd" clip-rule="evenodd" d="M39.6902 56.9222C40.087 56.9222 40.4676 57.0829 40.7482 57.369C41.0288 57.6551 41.1864 58.0431 41.1864 58.4476H29.5605C29.5605 58.0431 29.7182 57.6551 29.9988 57.369C30.2794 57.0829 30.6599 56.9222 31.0567 56.9222C33.2871 56.9222 37.4598 56.9222 39.6902 56.9222Z" fill="#3F4F6D" stroke="#416D96" stroke-width="0.5" stroke-miterlimit="10" stroke-linecap="round" stroke-linejoin="round"/>
<path fill-rule="evenodd" clip-rule="evenodd" d="M57.5913 33.0392C58.605 33.0392 59.4267 33.8901 59.4267 34.9398C59.4267 39.6524 59.4267 51.8345 59.4267 56.5471C59.4267 57.5968 58.605 58.4477 57.5913 58.4477C55.0291 58.4477 50.4073 58.4477 47.8452 58.4477C46.8315 58.4477 46.0098 57.5968 46.0098 56.5471C46.0098 51.8345 46.0098 39.6524 46.0098 34.9398C46.0098 33.8901 46.8315 33.0392 47.8452 33.0392C50.4073 33.0392 55.0291 33.0392 57.5913 33.0392Z" fill="#3B507B"/>
<mask id="mask3_5378_489" style="mask-type:luminance" maskUnits="userSpaceOnUse" x="46" y="33" width="14" height="26">
<path d="M57.5913 33.0392C58.605 33.0392 59.4267 33.8901 59.4267 34.9398C59.4267 39.6524 59.4267 51.8345 59.4267 56.5471C59.4267 57.5968 58.605 58.4477 57.5913 58.4477C55.0291 58.4477 50.4073 58.4477 47.8452 58.4477C46.8315 58.4477 46.0098 57.5968 46.0098 56.5471C46.0098 51.8345 46.0098 39.6524 46.0098 34.9398C46.0098 33.8901 46.8315 33.0392 47.8452 33.0392C50.4073 33.0392 55.0291 33.0392 57.5913 33.0392Z" fill="white"/>
</mask>
<g mask="url(#mask3_5378_489)">
<path fill-rule="evenodd" clip-rule="evenodd" d="M57.2182 32.6735C58.2319 32.6735 59.0536 33.5244 59.0536 34.5741C59.0536 39.2867 59.0536 51.4687 59.0536 56.1813C59.0536 57.231 58.2319 58.082 57.2182 58.082C54.6561 58.082 50.0343 58.082 47.4721 58.082C46.4584 58.082 45.6367 57.231 45.6367 56.1813C45.6367 51.4687 45.6367 39.2867 45.6367 34.5741C45.6367 33.5244 46.4584 32.6735 47.4721 32.6735C50.0343 32.6735 54.6561 32.6735 57.2182 32.6735Z" fill="#3F4F6D"/>
</g>
<path d="M57.5913 33.0392C58.605 33.0392 59.4267 33.8901 59.4267 34.9398C59.4267 39.6524 59.4267 51.8345 59.4267 56.5471C59.4267 57.5968 58.605 58.4477 57.5913 58.4477C55.0291 58.4477 50.4073 58.4477 47.8452 58.4477C46.8315 58.4477 46.0098 57.5968 46.0098 56.5471C46.0098 51.8345 46.0098 39.6524 46.0098 34.9398C46.0098 33.8901 46.8315 33.0392 47.8452 33.0392C50.4073 33.0392 55.0291 33.0392 57.5913 33.0392Z" stroke="#416D96" stroke-width="0.5" stroke-miterlimit="10" stroke-linecap="round" stroke-linejoin="round"/>
<path fill-rule="evenodd" clip-rule="evenodd" d="M58.7306 36.057V55.4298H46.707V36.057H58.7306Z" fill="#2E394D"/>
<mask id="mask4_5378_489" style="mask-type:luminance" maskUnits="userSpaceOnUse" x="46" y="36" width="13" height="20">
<path d="M58.7306 36.057V55.4298H46.707V36.057H58.7306Z" fill="white"/>
</mask>
<g mask="url(#mask4_5378_489)">
<path fill-rule="evenodd" clip-rule="evenodd" d="M45.1988 52.6817L40.1465 47.6624L58.9909 33.0992L60.254 34.3541L45.1988 52.6817Z" fill="#9FA9BC"/>
</g>
<mask id="mask5_5378_489" style="mask-type:luminance" maskUnits="userSpaceOnUse" x="46" y="36" width="13" height="20">
<path d="M58.7306 36.057V55.4298H46.707V36.057H58.7306Z" fill="white"/>
</mask>
<g mask="url(#mask5_5378_489)">
<path fill-rule="evenodd" clip-rule="evenodd" d="M49.4923 64.2182L46.0098 60.7583L65.3304 44.0961L66.201 44.961L49.4923 64.2182Z" fill="#9FA9BC"/>
</g>
<mask id="mask6_5378_489" style="mask-type:luminance" maskUnits="userSpaceOnUse" x="46" y="44" width="13" height="12">
<mask id="mask7_5378_489" style="mask-type:luminance" maskUnits="userSpaceOnUse" x="46" y="44" width="21" height="21">
<path d="M49.4923 64.2182L46.0098 60.7583L65.3304 44.0961L66.201 44.961L49.4923 64.2182Z" fill="white"/>
</mask>
<g mask="url(#mask7_5378_489)">
<path d="M58.7306 36.057V55.4298H46.707V36.057H58.7306Z" fill="white"/>
</g>
</mask>
<g mask="url(#mask6_5378_489)">
<path fill-rule="evenodd" clip-rule="evenodd" d="M58.338 42.1473V50.4999H48.291V42.1473H58.338Z" fill="#8E9AB0"/>
</g>
<path d="M58.7306 36.057V55.4298H46.707V36.057H58.7306Z" stroke="#416D96" stroke-width="0.5" stroke-miterlimit="10" stroke-linecap="round" stroke-linejoin="round"/>
<path fill-rule="evenodd" clip-rule="evenodd" d="M53.5017 56.0983C53.6096 56.0983 53.713 56.1426 53.7892 56.2216C53.8654 56.3005 53.9083 56.4076 53.9083 56.5193C53.9083 56.8112 53.9083 57.1984 53.9083 57.4903C53.9083 57.6019 53.8654 57.709 53.7892 57.7879C53.713 57.8669 53.6096 57.9113 53.5017 57.9113C53.0644 57.9113 52.3731 57.9113 51.9358 57.9113C51.828 57.9113 51.7246 57.8669 51.6484 57.7879C51.5721 57.709 51.5293 57.6019 51.5293 57.4903C51.5293 57.1984 51.5293 56.8112 51.5293 56.5193C51.5293 56.4076 51.5721 56.3005 51.6484 56.2216C51.7246 56.1426 51.828 56.0983 51.9358 56.0983C52.3731 56.0983 53.0644 56.0983 53.5017 56.0983Z" fill="#2E394D" stroke="#416D96" stroke-width="0.5" stroke-miterlimit="10" stroke-linecap="round" stroke-linejoin="round"/>
<path fill-rule="evenodd" clip-rule="evenodd" d="M52.7197 34.1566C53.048 34.1566 53.3145 34.4326 53.3145 34.7725C53.3145 35.1124 53.048 35.3884 52.7197 35.3884C52.3915 35.3884 52.125 35.1124 52.125 34.7725C52.125 34.4326 52.3915 34.1566 52.7197 34.1566Z" fill="#2E394D" stroke="#416D96" stroke-width="0.5" stroke-miterlimit="10" stroke-linecap="round" stroke-linejoin="round"/>
<path fill-rule="evenodd" clip-rule="evenodd" d="M31.0689 44.7343C31.3228 44.7343 31.5663 44.8371 31.7459 45.0201C31.9254 45.2032 32.0263 45.4515 32.0263 45.7103C32.0263 48.5672 32.0263 56.7112 32.0263 56.7112H13.3086C13.3086 56.7112 13.3086 48.5672 13.3086 45.7103C13.3086 45.4515 13.4095 45.2032 13.589 45.0201C13.7686 44.8371 14.0121 44.7343 14.266 44.7343C17.4791 44.7343 27.8558 44.7343 31.0689 44.7343Z" fill="#3F4F6D"/>
<mask id="mask8_5378_489" style="mask-type:luminance" maskUnits="userSpaceOnUse" x="13" y="44" width="20" height="13">
<path d="M31.0689 44.7343C31.3228 44.7343 31.5663 44.8371 31.7459 45.0201C31.9254 45.2032 32.0263 45.4515 32.0263 45.7103C32.0263 48.5672 32.0263 56.7112 32.0263 56.7112H13.3086C13.3086 56.7112 13.3086 48.5672 13.3086 45.7103C13.3086 45.4515 13.4095 45.2032 13.589 45.0201C13.7686 44.8371 14.0121 44.7343 14.266 44.7343C17.4791 44.7343 27.8558 44.7343 31.0689 44.7343Z" fill="white"/>
</mask>
<g mask="url(#mask8_5378_489)">
<path fill-rule="evenodd" clip-rule="evenodd" d="M13.5922 56.7112H13.3086V45.7103C13.3086 45.4515 13.4095 45.2032 13.589 45.0201C13.7686 44.8371 14.0121 44.7343 14.266 44.7343H31.0689C31.3228 44.7343 31.5663 44.8371 31.7459 45.0201C31.8721 45.1489 14.5378 45.0046 14.5378 45.0046C14.2839 45.0046 14.0403 45.1075 13.8608 45.2905C13.6812 45.4736 13.5804 45.7219 13.5804 45.9807L13.5922 56.7112Z" fill="#6A7C9E"/>
</g>
<path d="M31.0689 44.7343C31.3228 44.7343 31.5663 44.8371 31.7459 45.0201C31.9254 45.2032 32.0263 45.4515 32.0263 45.7103C32.0263 48.5672 32.0263 56.7112 32.0263 56.7112H13.3086C13.3086 56.7112 13.3086 48.5672 13.3086 45.7103C13.3086 45.4515 13.4095 45.2032 13.589 45.0201C13.7686 44.8371 14.0121 44.7343 14.266 44.7343C17.4791 44.7343 27.8558 44.7343 31.0689 44.7343Z" stroke="#416D96" stroke-width="0.5" stroke-miterlimit="10" stroke-linecap="round" stroke-linejoin="round"/>
<path fill-rule="evenodd" clip-rule="evenodd" d="M30.2616 45.476C30.7903 45.476 31.219 45.913 31.219 46.452C31.219 49.0558 31.219 55.9698 31.219 55.9698H14.1152C14.1152 55.9698 14.1152 49.0558 14.1152 46.452C14.1152 45.913 14.5439 45.476 15.0726 45.476C18.0717 45.476 27.2625 45.476 30.2616 45.476Z" fill="#5D6B85"/>
<mask id="mask9_5378_489" style="mask-type:luminance" maskUnits="userSpaceOnUse" x="14" y="45" width="18" height="11">
<path d="M30.2616 45.476C30.7903 45.476 31.219 45.913 31.219 46.452C31.219 49.0558 31.219 55.9698 31.219 55.9698H14.1152C14.1152 55.9698 14.1152 49.0558 14.1152 46.452C14.1152 45.913 14.5439 45.476 15.0726 45.476C18.0717 45.476 27.2625 45.476 30.2616 45.476Z" fill="white"/>
</mask>
<g mask="url(#mask9_5378_489)">
<path fill-rule="evenodd" clip-rule="evenodd" d="M14.8266 60.0565L9.73242 54.9956L26.2963 42.8612L27.5698 44.1265L14.8266 60.0565ZM23.1614 62.5022L19.65 59.0137L37.8157 43.5891L38.6936 44.4613L23.1614 62.5022Z" fill="#9FA9BC"/>
</g>
<path d="M30.2616 45.476C30.7903 45.476 31.219 45.913 31.219 46.452C31.219 49.0558 31.219 55.9698 31.219 55.9698H14.1152C14.1152 55.9698 14.1152 49.0558 14.1152 46.452C14.1152 45.913 14.5439 45.476 15.0726 45.476C18.0717 45.476 27.2625 45.476 30.2616 45.476Z" stroke="#416D96" stroke-width="0.5" stroke-miterlimit="10" stroke-linecap="round" stroke-linejoin="round"/>
<path fill-rule="evenodd" clip-rule="evenodd" d="M34.121 56.7113C34.121 56.7113 34.121 57.0139 34.121 57.3664C34.121 57.9636 33.6461 58.4477 33.0604 58.4477C29.2265 58.4477 16.1113 58.4477 12.2774 58.4477C11.6916 58.4477 11.2168 57.9636 11.2168 57.3664C11.2168 57.0139 11.2168 56.7113 11.2168 56.7113H34.121Z" fill="#8392AF"/>
<mask id="mask10_5378_489" style="mask-type:luminance" maskUnits="userSpaceOnUse" x="11" y="56" width="24" height="3">
<path d="M34.121 56.7113C34.121 56.7113 34.121 57.0139 34.121 57.3664C34.121 57.9636 33.6461 58.4477 33.0604 58.4477C29.2265 58.4477 16.1113 58.4477 12.2774 58.4477C11.6916 58.4477 11.2168 57.9636 11.2168 57.3664C11.2168 57.0139 11.2168 56.7113 11.2168 56.7113H34.121Z" fill="white"/>
</mask>
<g mask="url(#mask10_5378_489)">
<path fill-rule="evenodd" clip-rule="evenodd" d="M33.9439 56.7225H34.1386V57.3776C34.1386 57.9748 33.6637 58.4589 33.078 58.4589H12.295C11.9633 58.4589 11.6671 58.3037 11.4727 58.0605C11.6484 58.1923 11.8486 58.2128 12.0835 58.2128L32.9466 58.1358C33.5323 58.1358 33.9439 57.786 33.9439 57.1888V56.7225Z" fill="#69799A"/>
</g>
<path d="M34.121 56.7113C34.121 56.7113 34.121 57.0139 34.121 57.3664C34.121 57.9636 33.6461 58.4477 33.0604 58.4477C29.2265 58.4477 16.1113 58.4477 12.2774 58.4477C11.6916 58.4477 11.2168 57.9636 11.2168 57.3664C11.2168 57.0139 11.2168 56.7113 11.2168 56.7113H34.121Z" stroke="#416D96" stroke-width="0.5" stroke-miterlimit="10" stroke-linecap="round" stroke-linejoin="round"/>
<path fill-rule="evenodd" clip-rule="evenodd" d="M27.2403 56.7113V57.1137C27.2403 57.3358 27.0634 57.5162 26.8455 57.5162H18.4924C18.2745 57.5162 18.0977 57.3358 18.0977 57.1137V56.7113H27.2403Z" fill="#627597" stroke="#416D96" stroke-width="0.5" stroke-miterlimit="10" stroke-linecap="round" stroke-linejoin="round"/>
<path d="M18.4883 38.359C18.4883 38.359 18.4883 29.5184 18.4883 26.7986C18.4883 26.2541 18.7004 25.7319 19.0781 25.3469C19.4557 24.9619 19.9679 24.7456 20.502 24.7456C23.0706 24.7456 27.4867 24.7456 30.0553 24.7456C30.5893 24.7456 31.1015 24.5293 31.4792 24.1443C31.8568 23.7593 32.069 23.2371 32.069 22.6926C32.069 21.1713 32.069 19.3611 32.069 19.3611M52.1867 32.1351C52.1867 32.1351 52.1867 29.5184 52.1867 26.7986C52.1867 26.2541 51.9745 25.7319 51.5969 25.3469C51.2192 24.9619 50.7071 24.7456 50.173 24.7456C47.6044 24.7456 43.1883 24.7456 40.6197 24.7456C40.0856 24.7456 39.5734 24.5293 39.1958 24.1443C38.8181 23.7593 38.606 23.2371 38.606 22.6926C38.606 21.1713 38.606 19.3611 38.606 19.3611M35.0869 18.5919V26.284" stroke="#416D96" stroke-width="0.5" stroke-miterlimit="10" stroke-linecap="round" stroke-linejoin="round"/>
<path fill-rule="evenodd" clip-rule="evenodd" d="M32.071 18.5919C32.3775 18.5919 32.6264 18.8456 32.6264 19.1581C32.6264 19.4706 32.3775 19.7243 32.071 19.7243C31.7645 19.7243 31.5156 19.4706 31.5156 19.1581C31.5156 18.8456 31.7645 18.5919 32.071 18.5919Z" fill="#467D9C" stroke="#416D96" stroke-width="0.5" stroke-miterlimit="10" stroke-linecap="round" stroke-linejoin="round"/>
<path fill-rule="evenodd" clip-rule="evenodd" d="M38.6081 18.5919C38.3016 18.5919 38.0527 18.8456 38.0527 19.1581C38.0527 19.4706 38.3016 19.7243 38.6081 19.7243C38.9146 19.7243 39.1634 19.4706 39.1634 19.1581C39.1634 18.8456 38.9146 18.5919 38.6081 18.5919Z" fill="#467D9C" stroke="#416D96" stroke-width="0.5" stroke-miterlimit="10" stroke-linecap="round" stroke-linejoin="round"/>
<path fill-rule="evenodd" clip-rule="evenodd" d="M35.0866 18.0258C35.3931 18.0258 35.642 18.2795 35.642 18.592C35.642 18.9045 35.3931 19.1581 35.0866 19.1581C34.7801 19.1581 34.5312 18.9045 34.5312 18.592C34.5312 18.2795 34.7801 18.0258 35.0866 18.0258Z" fill="#467D9C" stroke="#416D96" stroke-width="0.5" stroke-miterlimit="10" stroke-linecap="round" stroke-linejoin="round"/>
<path fill-rule="evenodd" clip-rule="evenodd" d="M43.6345 27.3069V43.2214C43.6345 43.5205 43.3964 43.7633 43.103 43.7633H26.0276C25.7342 43.7633 25.4961 43.5205 25.4961 43.2214V27.3069C25.4961 27.0078 25.7342 26.765 26.0276 26.765H43.103C43.3964 26.765 43.6345 27.0078 43.6345 27.3069Z" fill="white" stroke="#416D96" stroke-width="0.5" stroke-miterlimit="10" stroke-linecap="round" stroke-linejoin="round"/>
<path fill-rule="evenodd" clip-rule="evenodd" d="M39.0887 28.056C39.0887 28.2448 38.9384 28.3982 38.7532 28.3982H32.3239C32.1387 28.3982 31.9883 28.2448 31.9883 28.056C31.9883 27.8672 32.1387 27.7139 32.3239 27.7139H38.7532C38.9384 27.7139 39.0887 27.8672 39.0887 28.056Z" fill="#85A6BE" stroke="#416D96" stroke-width="0.5" stroke-miterlimit="10" stroke-linejoin="round"/>
<path fill-rule="evenodd" clip-rule="evenodd" d="M42.4655 28.056C42.4655 28.2448 42.3151 28.3982 42.1299 28.3982H39.695C39.5097 28.3982 39.3594 28.2448 39.3594 28.056C39.3594 27.8672 39.5097 27.7139 39.695 27.7139H42.1299C42.3151 27.7139 42.4655 27.8672 42.4655 28.056Z" fill="#85A6BE" stroke="#416D96" stroke-width="0.5" stroke-miterlimit="10" stroke-linejoin="round"/>
<path fill-rule="evenodd" clip-rule="evenodd" d="M27.0189 27.7139C27.2168 27.7139 27.3776 27.8777 27.3776 28.0796C27.3776 28.2814 27.2168 28.4453 27.0189 28.4453C26.8209 28.4453 26.6602 28.2814 26.6602 28.0796C26.6602 27.8777 26.8209 27.7139 27.0189 27.7139Z" fill="#85A6BE" stroke="#416D96" stroke-width="0.5" stroke-miterlimit="10" stroke-linecap="round" stroke-linejoin="round"/>
<path fill-rule="evenodd" clip-rule="evenodd" d="M28.0071 27.7139C28.2051 27.7139 28.3659 27.8777 28.3659 28.0796C28.3659 28.2814 28.2051 28.4453 28.0071 28.4453C27.8092 28.4453 27.6484 28.2814 27.6484 28.0796C27.6484 27.8777 27.8092 27.7139 28.0071 27.7139Z" fill="#85A6BE" stroke="#416D96" stroke-width="0.5" stroke-miterlimit="10" stroke-linecap="round" stroke-linejoin="round"/>
<path fill-rule="evenodd" clip-rule="evenodd" d="M28.9915 27.7139C29.1895 27.7139 29.3502 27.8777 29.3502 28.0796C29.3502 28.2814 29.1895 28.4453 28.9915 28.4453C28.7935 28.4453 28.6328 28.2814 28.6328 28.0796C28.6328 27.8777 28.7935 27.7139 28.9915 27.7139Z" fill="#85A6BE" stroke="#416D96" stroke-width="0.5" stroke-miterlimit="10" stroke-linecap="round" stroke-linejoin="round"/>
<path fill-rule="evenodd" clip-rule="evenodd" d="M29.2528 34.5103C29.2116 34.3155 29.259 34.1121 29.3818 33.957C29.5046 33.8019 29.6896 33.7118 29.8851 33.7118C31.9146 33.7118 37.2402 33.7118 39.2697 33.7118C39.4652 33.7118 39.6502 33.8019 39.773 33.957C39.8958 34.1121 39.9432 34.3155 39.902 34.5103C39.4487 36.6529 38.2398 42.3675 38.2398 42.3675H30.9151C30.9151 42.3675 29.7061 36.6529 29.2528 34.5103Z" fill="#BD7708" stroke="#416D96" stroke-width="0.5" stroke-miterlimit="10" stroke-linecap="round" stroke-linejoin="round"/>
<path fill-rule="evenodd" clip-rule="evenodd" d="M38.1826 29.6V38.9493H30.3125V29.6H38.1826Z" fill="#F6F6F6"/>
<mask id="mask11_5378_489" style="mask-type:luminance" maskUnits="userSpaceOnUse" x="30" y="29" width="9" height="10">
<path d="M38.1826 29.6V38.9493H30.3125V29.6H38.1826Z" fill="white"/>
</mask>
<g mask="url(#mask11_5378_489)">
<path fill-rule="evenodd" clip-rule="evenodd" d="M38.5342 30.0546V39.4039H30.6641V30.0546H38.5342Z" fill="#E4E4E4"/>
</g>
<path d="M38.1826 29.6V38.9493H30.3125V29.6H38.1826Z" stroke="#416D96" stroke-width="0.5" stroke-miterlimit="10" stroke-linecap="round" stroke-linejoin="round"/>
<path fill-rule="evenodd" clip-rule="evenodd" d="M38.8428 30.3409V39.6903H30.9727V30.3409H38.8428Z" fill="white" stroke="#416D96" stroke-width="0.5" stroke-miterlimit="10" stroke-linecap="round" stroke-linejoin="round"/>
<path fill-rule="evenodd" clip-rule="evenodd" d="M38.8428 30.3409V39.6903H30.9727V30.3409H38.8428Z" fill="white"/>
<path fill-rule="evenodd" clip-rule="evenodd" d="M36.6374 31.4427V32.1328H33.1777V31.4427H36.6374Z" fill="#0063B0"/>
<path fill-rule="evenodd" clip-rule="evenodd" d="M38.1818 32.7787V33.0656H31.4473V32.7787H38.1818Z" fill="#6EA6D1"/>
<path fill-rule="evenodd" clip-rule="evenodd" d="M38.1818 33.9878V34.2747H31.4473V33.9878H38.1818Z" fill="#6EA6D1"/>
<path fill-rule="evenodd" clip-rule="evenodd" d="M38.1818 35.1969V35.4838H31.4473V35.1969H38.1818Z" fill="#6EA6D1"/>
<path d="M38.8428 30.3409V39.6903H30.9727V30.3409H38.8428Z" stroke="#416D96" stroke-width="0.5" stroke-miterlimit="10" stroke-linecap="round" stroke-linejoin="round"/>
<path fill-rule="evenodd" clip-rule="evenodd" d="M28.6945 35.2926C28.6674 35.1544 28.7025 35.0111 28.7901 34.9021C28.8777 34.7932 29.0087 34.73 29.1469 34.73C30.3359 34.73 32.9956 34.73 32.9956 34.73L34.5771 36.2575C34.5771 36.2575 38.4673 36.2575 39.9791 36.2575C40.1212 36.2575 40.2553 36.3242 40.3428 36.4384C40.4302 36.5525 40.4611 36.7014 40.4267 36.8419C40.12 38.0927 39.4076 40.9979 39.1591 42.0111C39.1078 42.2205 38.9233 42.3674 38.7116 42.3674C37.2712 42.3674 31.9329 42.3674 30.4606 42.3674C30.2407 42.3674 30.0513 42.2091 30.0082 41.9893C29.7641 40.7449 28.9848 36.7723 28.6945 35.2926Z" fill="#FF9C00"/>
<mask id="mask12_5378_489" style="mask-type:luminance" maskUnits="userSpaceOnUse" x="28" y="34" width="13" height="9">
<path d="M28.6945 35.2926C28.6674 35.1544 28.7025 35.0111 28.7901 34.9021C28.8777 34.7932 29.0087 34.73 29.1469 34.73C30.3359 34.73 32.9956 34.73 32.9956 34.73L34.5771 36.2575C34.5771 36.2575 38.4673 36.2575 39.9791 36.2575C40.1212 36.2575 40.2553 36.3242 40.3428 36.4384C40.4302 36.5525 40.4611 36.7014 40.4267 36.8419C40.12 38.0927 39.4076 40.9979 39.1591 42.0111C39.1078 42.2205 38.9233 42.3674 38.7116 42.3674C37.2712 42.3674 31.9329 42.3674 30.4606 42.3674C30.2407 42.3674 30.0513 42.2091 30.0082 41.9893C29.7641 40.7449 28.9848 36.7723 28.6945 35.2926Z" fill="white"/>
</mask>
<g mask="url(#mask12_5378_489)">
<path fill-rule="evenodd" clip-rule="evenodd" d="M39.3831 35.5162C39.3043 36.3748 39.2755 40.1165 36.9523 41.2863C34.9352 42.302 31.8684 41.9844 29.8652 42.1754C29.9233 42.243 30.523 44.0061 35.1334 44.1252C39.4607 44.237 41.0809 42.89 41.9865 40.4386C43.4171 36.5662 41.144 35.9139 40.7476 35.6415" fill="#E88E00"/>
</g>
<path d="M28.6945 35.2926C28.6674 35.1544 28.7025 35.0111 28.7901 34.9021C28.8777 34.7932 29.0087 34.73 29.1469 34.73C30.3359 34.73 32.9956 34.73 32.9956 34.73L34.5771 36.2575C34.5771 36.2575 38.4673 36.2575 39.9791 36.2575C40.1212 36.2575 40.2553 36.3242 40.3428 36.4384C40.4302 36.5525 40.4611 36.7014 40.4267 36.8419C40.12 38.0927 39.4076 40.9979 39.1591 42.0111C39.1078 42.2205 38.9233 42.3674 38.7116 42.3674C37.2712 42.3674 31.9329 42.3674 30.4606 42.3674C30.2407 42.3674 30.0513 42.2091 30.0082 41.9893C29.7641 40.7449 28.9848 36.7723 28.6945 35.2926Z" stroke="#416D96" stroke-width="0.5" stroke-miterlimit="10" stroke-linecap="round" stroke-linejoin="round"/>
<path fill-rule="evenodd" clip-rule="evenodd" d="M25.0175 39.6062V54.5458C25.0175 54.8266 24.794 55.0545 24.5186 55.0545H8.48916C8.21379 55.0545 7.99023 54.8266 7.99023 54.5458V39.6062C7.99023 39.3255 8.21379 39.0975 8.48916 39.0975H24.5186C24.794 39.0975 25.0175 39.3255 25.0175 39.6062Z" fill="white" stroke="#416D96" stroke-width="0.5" stroke-miterlimit="10" stroke-linecap="round" stroke-linejoin="round"/>
<path fill-rule="evenodd" clip-rule="evenodd" d="M20.7534 40.3093C20.7534 40.4866 20.6122 40.6305 20.4384 40.6305H14.4029C14.2291 40.6305 14.0879 40.4866 14.0879 40.3093C14.0879 40.1321 14.2291 39.9882 14.4029 39.9882H20.4384C20.6122 39.9882 20.7534 40.1321 20.7534 40.3093Z" fill="#85A6BE" stroke="#416D96" stroke-width="0.5" stroke-miterlimit="10" stroke-linejoin="round"/>
<path fill-rule="evenodd" clip-rule="evenodd" d="M23.9217 40.3093C23.9217 40.4866 23.7805 40.6305 23.6067 40.6305H21.3209C21.147 40.6305 21.0059 40.4866 21.0059 40.3093C21.0059 40.1321 21.147 39.9882 21.3209 39.9882H23.6067C23.7805 39.9882 23.9217 40.1321 23.9217 40.3093Z" fill="#85A6BE" stroke="#416D96" stroke-width="0.5" stroke-miterlimit="10" stroke-linejoin="round"/>
<path fill-rule="evenodd" clip-rule="evenodd" d="M9.42462 39.9882C9.61047 39.9882 9.76136 40.142 9.76136 40.3315C9.76136 40.5209 9.61047 40.6748 9.42462 40.6748C9.23877 40.6748 9.08789 40.5209 9.08789 40.3315C9.08789 40.142 9.23877 39.9882 9.42462 39.9882Z" fill="#85A6BE" stroke="#416D96" stroke-width="0.5" stroke-miterlimit="10" stroke-linecap="round" stroke-linejoin="round"/>
<path fill-rule="evenodd" clip-rule="evenodd" d="M10.3485 39.9882C10.5343 39.9882 10.6852 40.142 10.6852 40.3315C10.6852 40.5209 10.5343 40.6748 10.3485 40.6748C10.1626 40.6748 10.0117 40.5209 10.0117 40.3315C10.0117 40.142 10.1626 39.9882 10.3485 39.9882Z" fill="#85A6BE" stroke="#416D96" stroke-width="0.5" stroke-miterlimit="10" stroke-linecap="round" stroke-linejoin="round"/>
<path fill-rule="evenodd" clip-rule="evenodd" d="M11.2742 39.9882C11.4601 39.9882 11.611 40.142 11.611 40.3315C11.611 40.5209 11.4601 40.6748 11.2742 40.6748C11.0884 40.6748 10.9375 40.5209 10.9375 40.3315C10.9375 40.142 11.0884 39.9882 11.2742 39.9882Z" fill="#85A6BE" stroke="#416D96" stroke-width="0.5" stroke-miterlimit="10" stroke-linecap="round" stroke-linejoin="round"/>
<path fill-rule="evenodd" clip-rule="evenodd" d="M11.5176 46.3682C11.4789 46.1854 11.5234 45.9944 11.6387 45.8488C11.7539 45.7033 11.9276 45.6187 12.1111 45.6187C14.0163 45.6187 19.0156 45.6187 20.9208 45.6187C21.1043 45.6187 21.278 45.7033 21.3933 45.8488C21.5085 45.9944 21.5531 46.1854 21.5144 46.3682C21.0889 48.3796 19.954 53.7441 19.954 53.7441H13.078C13.078 53.7441 11.9431 48.3796 11.5176 46.3682Z" fill="#BD7708" stroke="#416D96" stroke-width="0.5" stroke-miterlimit="10" stroke-linecap="round" stroke-linejoin="round"/>
<path fill-rule="evenodd" clip-rule="evenodd" d="M19.9017 41.7589V50.5355H12.5137V41.7589H19.9017Z" fill="#F6F6F6"/>
<mask id="mask13_5378_489" style="mask-type:luminance" maskUnits="userSpaceOnUse" x="12" y="41" width="8" height="10">
<path d="M19.9017 41.7589V50.5355H12.5137V41.7589H19.9017Z" fill="white"/>
</mask>
<g mask="url(#mask13_5378_489)">
<path fill-rule="evenodd" clip-rule="evenodd" d="M20.2337 42.1857V50.9623H12.8457V42.1857H20.2337Z" fill="#E4E4E4"/>
</g>
<path d="M19.9017 41.7589V50.5355H12.5137V41.7589H19.9017Z" stroke="#416D96" stroke-width="0.5" stroke-miterlimit="10" stroke-linecap="round" stroke-linejoin="round"/>
<path fill-rule="evenodd" clip-rule="evenodd" d="M20.5189 42.4543V51.231H13.1309V42.4543H20.5189Z" fill="white" stroke="#416D96" stroke-width="0.5" stroke-miterlimit="10" stroke-linecap="round" stroke-linejoin="round"/>
<path fill-rule="evenodd" clip-rule="evenodd" d="M20.5189 42.4543V51.231H13.1309V42.4543H20.5189Z" fill="white"/>
<path fill-rule="evenodd" clip-rule="evenodd" d="M18.4489 43.4886V44.1365H15.2012V43.4886H18.4489Z" fill="#0063B0"/>
<path fill-rule="evenodd" clip-rule="evenodd" d="M19.9021 44.7428V45.0122H13.5801V44.7428H19.9021Z" fill="#6EA6D1"/>
<path fill-rule="evenodd" clip-rule="evenodd" d="M19.9021 45.8778V46.1472H13.5801V45.8778H19.9021Z" fill="#6EA6D1"/>
<path fill-rule="evenodd" clip-rule="evenodd" d="M19.9021 47.0127V47.2821H13.5801V47.0127H19.9021Z" fill="#6EA6D1"/>
<path d="M20.5189 42.4543V51.231H13.1309V42.4543H20.5189Z" stroke="#416D96" stroke-width="0.5" stroke-miterlimit="10" stroke-linecap="round" stroke-linejoin="round"/>
<path fill-rule="evenodd" clip-rule="evenodd" d="M10.9967 47.1027C10.9713 46.973 11.0042 46.8385 11.0864 46.7362C11.1687 46.6339 11.2916 46.5746 11.4213 46.5746C12.5376 46.5746 15.0343 46.5746 15.0343 46.5746L16.5189 48.0085C16.5189 48.0085 20.1708 48.0085 21.59 48.0085C21.7234 48.0085 21.8493 48.0711 21.9314 48.1783C22.0134 48.2854 22.0425 48.4252 22.0102 48.5571C21.7222 49.7313 21.0535 52.4585 20.8203 53.4097C20.7721 53.6062 20.5988 53.7441 20.4001 53.7441C19.048 53.7441 14.0367 53.7441 12.6546 53.7441C12.4481 53.7441 12.2704 53.5955 12.2299 53.3892C12.0008 52.221 11.2692 48.4918 10.9967 47.1027Z" fill="#FF9C00"/>
<mask id="mask14_5378_489" style="mask-type:luminance" maskUnits="userSpaceOnUse" x="10" y="46" width="13" height="8">
<path d="M10.9967 47.1027C10.9713 46.973 11.0042 46.8385 11.0864 46.7362C11.1687 46.6339 11.2916 46.5746 11.4213 46.5746C12.5376 46.5746 15.0343 46.5746 15.0343 46.5746L16.5189 48.0085C16.5189 48.0085 20.1708 48.0085 21.59 48.0085C21.7234 48.0085 21.8493 48.0711 21.9314 48.1783C22.0134 48.2854 22.0425 48.4252 22.0102 48.5571C21.7222 49.7313 21.0535 52.4585 20.8203 53.4097C20.7721 53.6062 20.5988 53.7441 20.4001 53.7441C19.048 53.7441 14.0367 53.7441 12.6546 53.7441C12.4481 53.7441 12.2704 53.5955 12.2299 53.3892C12.0008 52.221 11.2692 48.4918 10.9967 47.1027Z" fill="white"/>
</mask>
<g mask="url(#mask14_5378_489)">
<path fill-rule="evenodd" clip-rule="evenodd" d="M21.0285 47.3125C20.9546 48.1185 20.9276 51.631 18.7467 52.7291C16.8532 53.6826 13.9742 53.3844 12.0938 53.5638C12.1482 53.6272 12.7112 55.2823 17.0391 55.3941C21.1014 55.499 22.6223 54.2346 23.4725 51.9333C24.8154 48.2981 22.6815 47.6859 22.3095 47.4301" fill="#E88E00"/>
</g>
<path d="M10.9967 47.1027C10.9713 46.973 11.0042 46.8385 11.0864 46.7362C11.1687 46.6339 11.2916 46.5746 11.4213 46.5746C12.5376 46.5746 15.0343 46.5746 15.0343 46.5746L16.5189 48.0085C16.5189 48.0085 20.1708 48.0085 21.59 48.0085C21.7234 48.0085 21.8493 48.0711 21.9314 48.1783C22.0134 48.2854 22.0425 48.4252 22.0102 48.5571C21.7222 49.7313 21.0535 52.4585 20.8203 53.4097C20.7721 53.6062 20.5988 53.7441 20.4001 53.7441C19.048 53.7441 14.0367 53.7441 12.6546 53.7441C12.4481 53.7441 12.2704 53.5955 12.2299 53.3892C12.0008 52.221 11.2692 48.4918 10.9967 47.1027Z" stroke="#416D96" stroke-width="0.5" stroke-miterlimit="10" stroke-linecap="round" stroke-linejoin="round"/>
<path fill-rule="evenodd" clip-rule="evenodd" d="M62.2038 40.1297V52.0453C62.2038 52.2693 62.0255 52.451 61.8058 52.451H49.021C48.8013 52.451 48.623 52.2693 48.623 52.0453V40.1297C48.623 39.9058 48.8013 39.724 49.021 39.724H61.8058C62.0255 39.724 62.2038 39.9058 62.2038 40.1297Z" fill="white" stroke="#416D96" stroke-width="0.5" stroke-miterlimit="10" stroke-linecap="round" stroke-linejoin="round"/>
<path fill-rule="evenodd" clip-rule="evenodd" d="M58.8026 40.6905C58.8026 40.8319 58.69 40.9467 58.5514 40.9467H53.7376C53.5989 40.9467 53.4863 40.8319 53.4863 40.6905C53.4863 40.5491 53.5989 40.4343 53.7376 40.4343H58.5514C58.6901 40.4343 58.8026 40.5491 58.8026 40.6905Z" fill="#85A6BE" stroke="#416D96" stroke-width="0.5" stroke-miterlimit="10" stroke-linejoin="round"/>
<path fill-rule="evenodd" clip-rule="evenodd" d="M61.3295 40.6905C61.3295 40.8319 61.217 40.9467 61.0783 40.9467H59.2552C59.1165 40.9467 59.0039 40.8319 59.0039 40.6905C59.0039 40.5491 59.1165 40.4343 59.2552 40.4343H61.0783C61.217 40.4343 61.3295 40.5491 61.3295 40.6905Z" fill="#85A6BE" stroke="#416D96" stroke-width="0.5" stroke-miterlimit="10" stroke-linejoin="round"/>
<path fill-rule="evenodd" clip-rule="evenodd" d="M49.7647 40.4343C49.9129 40.4343 50.0332 40.557 50.0332 40.7081C50.0332 40.8593 49.9129 40.982 49.7647 40.982C49.6164 40.982 49.4961 40.8593 49.4961 40.7081C49.4961 40.557 49.6164 40.4343 49.7647 40.4343Z" fill="#85A6BE" stroke="#416D96" stroke-width="0.5" stroke-miterlimit="10" stroke-linecap="round" stroke-linejoin="round"/>
<path fill-rule="evenodd" clip-rule="evenodd" d="M50.5029 40.4343C50.6512 40.4343 50.7715 40.557 50.7715 40.7081C50.7715 40.8593 50.6512 40.982 50.5029 40.982C50.3547 40.982 50.2344 40.8593 50.2344 40.7081C50.2344 40.557 50.3547 40.4343 50.5029 40.4343Z" fill="#85A6BE" stroke="#416D96" stroke-width="0.5" stroke-miterlimit="10" stroke-linecap="round" stroke-linejoin="round"/>
<path fill-rule="evenodd" clip-rule="evenodd" d="M51.2412 40.4343C51.3895 40.4343 51.5098 40.557 51.5098 40.7081C51.5098 40.8593 51.3895 40.982 51.2412 40.982C51.093 40.982 50.9727 40.8593 50.9727 40.7081C50.9727 40.557 51.093 40.4343 51.2412 40.4343Z" fill="#85A6BE" stroke="#416D96" stroke-width="0.5" stroke-miterlimit="10" stroke-linecap="round" stroke-linejoin="round"/>
<path fill-rule="evenodd" clip-rule="evenodd" d="M51.4367 45.523C51.4058 45.3772 51.4413 45.2249 51.5333 45.1088C51.6252 44.9927 51.7637 44.9252 51.9101 44.9252C53.4296 44.9252 57.417 44.9252 58.9366 44.9252C59.0829 44.9252 59.2215 44.9927 59.3134 45.1088C59.4054 45.2249 59.4408 45.3772 59.41 45.523C59.0706 47.1272 58.1654 51.4059 58.1654 51.4059H52.6812C52.6812 51.4059 51.776 47.1272 51.4367 45.523Z" fill="#BD7708" stroke="#416D96" stroke-width="0.5" stroke-miterlimit="10" stroke-linecap="round" stroke-linejoin="round"/>
<path fill-rule="evenodd" clip-rule="evenodd" d="M58.1211 41.8466V48.8467H52.2285V41.8466H58.1211Z" fill="#F6F6F6"/>
<mask id="mask15_5378_489" style="mask-type:luminance" maskUnits="userSpaceOnUse" x="52" y="41" width="7" height="8">
<path d="M58.1211 41.8466V48.8467H52.2285V41.8466H58.1211Z" fill="white"/>
</mask>
<g mask="url(#mask15_5378_489)">
<path fill-rule="evenodd" clip-rule="evenodd" d="M58.3867 42.1869V49.187H52.4941V42.1869H58.3867Z" fill="#E4E4E4"/>
</g>
<path d="M58.1211 41.8466V48.8467H52.2285V41.8466H58.1211Z" stroke="#416D96" stroke-width="0.5" stroke-miterlimit="10" stroke-linecap="round" stroke-linejoin="round"/>
<path fill-rule="evenodd" clip-rule="evenodd" d="M58.6152 42.4012V49.4013H52.7227V42.4012H58.6152Z" fill="white" stroke="#416D96" stroke-width="0.5" stroke-miterlimit="10" stroke-linecap="round" stroke-linejoin="round"/>
<path fill-rule="evenodd" clip-rule="evenodd" d="M58.6152 42.4012V49.4013H52.7227V42.4012H58.6152Z" fill="white"/>
<path fill-rule="evenodd" clip-rule="evenodd" d="M56.9653 43.2262V43.7429H54.375V43.2262H56.9653Z" fill="#0063B0"/>
<path fill-rule="evenodd" clip-rule="evenodd" d="M58.1224 44.2267V44.4415H53.0801V44.2267H58.1224Z" fill="#6EA6D1"/>
<path fill-rule="evenodd" clip-rule="evenodd" d="M58.1224 45.1317V45.3466H53.0801V45.1317H58.1224Z" fill="#6EA6D1"/>
<path fill-rule="evenodd" clip-rule="evenodd" d="M58.1224 46.037V46.2518H53.0801V46.037H58.1224Z" fill="#6EA6D1"/>
<path d="M58.6152 42.4012V49.4013H52.7227V42.4012H58.6152Z" stroke="#416D96" stroke-width="0.5" stroke-miterlimit="10" stroke-linecap="round" stroke-linejoin="round"/>
<path fill-rule="evenodd" clip-rule="evenodd" d="M51.0204 46.1088C51.0001 46.0054 51.0264 45.8981 51.092 45.8165C51.1576 45.7349 51.2556 45.6876 51.3591 45.6876C52.2494 45.6876 54.2407 45.6876 54.2407 45.6876L55.4248 46.8313C55.4248 46.8313 58.3375 46.8313 59.4695 46.8313C59.5758 46.8313 59.6763 46.8812 59.7417 46.9667C59.8072 47.0522 59.8304 47.1637 59.8046 47.2689C59.5749 48.2054 59.0415 50.3806 58.8555 51.1392C58.8171 51.296 58.6789 51.4059 58.5204 51.4059C57.442 51.4059 53.445 51.4059 52.3427 51.4059C52.178 51.4059 52.0362 51.2874 52.004 51.1228C51.8212 50.1911 51.2377 47.2168 51.0204 46.1088Z" fill="#FF9C00"/>
<mask id="mask16_5378_489" style="mask-type:luminance" maskUnits="userSpaceOnUse" x="51" y="45" width="9" height="7">
<path d="M51.0204 46.1088C51.0001 46.0054 51.0264 45.8981 51.092 45.8165C51.1576 45.7349 51.2556 45.6876 51.3591 45.6876C52.2494 45.6876 54.2407 45.6876 54.2407 45.6876L55.4248 46.8313C55.4248 46.8313 58.3375 46.8313 59.4695 46.8313C59.5758 46.8313 59.6763 46.8812 59.7417 46.9667C59.8072 47.0522 59.8304 47.1637 59.8046 47.2689C59.5749 48.2054 59.0415 50.3806 58.8555 51.1392C58.8171 51.296 58.6789 51.4059 58.5204 51.4059C57.442 51.4059 53.445 51.4059 52.3427 51.4059C52.178 51.4059 52.0362 51.2874 52.004 51.1228C51.8212 50.1911 51.2377 47.2168 51.0204 46.1088Z" fill="white"/>
</mask>
<g mask="url(#mask16_5378_489)">
<path fill-rule="evenodd" clip-rule="evenodd" d="M59.0188 46.2762C58.9598 46.9191 58.9383 49.7206 57.1989 50.5965C55.6886 51.3569 53.3923 51.1191 51.8926 51.2622C51.936 51.3127 52.3851 52.6329 55.8369 52.722C59.0769 52.8057 60.29 51.7972 60.9681 49.9618C62.0392 47.0624 60.3372 46.574 60.0405 46.37" fill="#E88E00"/>
</g>
<path d="M51.0204 46.1088C51.0001 46.0054 51.0264 45.8981 51.092 45.8165C51.1576 45.7349 51.2556 45.6876 51.3591 45.6876C52.2494 45.6876 54.2407 45.6876 54.2407 45.6876L55.4248 46.8313C55.4248 46.8313 58.3375 46.8313 59.4695 46.8313C59.5758 46.8313 59.6763 46.8812 59.7417 46.9667C59.8072 47.0522 59.8304 47.1637 59.8046 47.2689C59.5749 48.2054 59.0415 50.3806 58.8555 51.1392C58.8171 51.296 58.6789 51.4059 58.5204 51.4059C57.442 51.4059 53.445 51.4059 52.3427 51.4059C52.178 51.4059 52.0362 51.2874 52.004 51.1228C51.8212 50.1911 51.2377 47.2168 51.0204 46.1088Z" stroke="#416D96" stroke-width="0.5" stroke-miterlimit="10" stroke-linecap="round" stroke-linejoin="round"/>
<path fill-rule="evenodd" clip-rule="evenodd" d="M29.6065 16.6923C26.7925 16.6923 24.5078 14.3241 24.5078 11.4071C24.5078 8.49003 26.7925 6.12179 29.6065 6.12179C29.6598 6.12179 29.7129 6.12263 29.7657 6.12432C30.4596 2.76888 33.3395 0.25 36.7825 0.25C40.743 0.25 43.9585 3.58309 43.9585 7.6885V9.25234C44.3267 9.25227 44.7012 9.31147 45.0701 9.4361C46.953 10.0721 47.9834 12.173 47.3699 14.1247C46.8766 15.6939 45.4696 16.692 43.9585 16.6923H29.6065Z" fill="#EAEAEA" stroke="#416D96" stroke-width="0.5" stroke-miterlimit="10" stroke-linecap="round" stroke-linejoin="round"/>
<path fill-rule="evenodd" clip-rule="evenodd" d="M29.7637 6.12439C31.5024 6.47463 32.6868 7.25109 33.2638 8.47122L29.7637 6.12439Z" fill="#78B2CC"/>
<path d="M29.7637 6.12439C31.5024 6.47463 32.6868 7.25109 33.2638 8.47122" stroke="#416D96" stroke-width="0.5" stroke-miterlimit="10" stroke-linecap="round" stroke-linejoin="round"/>
<path fill-rule="evenodd" clip-rule="evenodd" d="M28.1964 16.6923C25.3823 16.6923 23.0977 14.3241 23.0977 11.4071C23.0977 8.49003 25.3823 6.12179 28.1964 6.12179C28.2496 6.12179 28.3027 6.12263 28.3556 6.12432C29.0495 2.76888 31.9294 0.25 35.3724 0.25C39.3329 0.25 42.5483 3.58309 42.5483 7.6885V9.25234C42.9166 9.25227 43.2911 9.31147 43.66 9.4361C45.5428 10.0721 46.5733 12.173 45.9598 14.1247C45.4664 15.6939 44.0595 16.692 42.5483 16.6923H28.1964Z" fill="white" stroke="#416D96" stroke-width="0.5" stroke-miterlimit="10" stroke-linecap="round" stroke-linejoin="round"/>
<path fill-rule="evenodd" clip-rule="evenodd" d="M40.2164 5.91546V14.504C40.2164 14.6654 40.0878 14.7964 39.9295 14.7964H30.7145C30.5563 14.7964 30.4277 14.6654 30.4277 14.504V5.91546C30.4277 5.75408 30.5563 5.62305 30.7145 5.62305H39.9295C40.0878 5.62305 40.2164 5.75408 40.2164 5.91546Z" fill="white" stroke="#416D96" stroke-width="0.5" stroke-miterlimit="10" stroke-linecap="round" stroke-linejoin="round"/>
<path fill-rule="evenodd" clip-rule="evenodd" d="M37.7655 6.31965C37.7655 6.42156 37.6843 6.5043 37.5843 6.5043H34.1147C34.0147 6.5043 33.9336 6.42156 33.9336 6.31965C33.9336 6.21775 34.0147 6.13501 34.1147 6.13501H37.5843C37.6843 6.13501 37.7655 6.21775 37.7655 6.31965Z" fill="#85A6BE" stroke="#416D96" stroke-width="0.5" stroke-miterlimit="10" stroke-linejoin="round"/>
<path fill-rule="evenodd" clip-rule="evenodd" d="M39.5864 6.31965C39.5864 6.42156 39.5053 6.5043 39.4053 6.5043H38.0912C37.9913 6.5043 37.9102 6.42156 37.9102 6.31965C37.9102 6.21775 37.9913 6.13501 38.0912 6.13501H39.4053C39.5053 6.13501 39.5864 6.21775 39.5864 6.31965Z" fill="#85A6BE" stroke="#416D96" stroke-width="0.5" stroke-miterlimit="10" stroke-linejoin="round"/>
<path fill-rule="evenodd" clip-rule="evenodd" d="M31.2502 6.13501C31.3571 6.13501 31.4438 6.22345 31.4438 6.33238C31.4438 6.4413 31.3571 6.52974 31.2502 6.52974C31.1434 6.52974 31.0566 6.4413 31.0566 6.33238C31.0566 6.22345 31.1434 6.13501 31.2502 6.13501Z" fill="#85A6BE" stroke="#416D96" stroke-width="0.5" stroke-miterlimit="10" stroke-linecap="round" stroke-linejoin="round"/>
<path fill-rule="evenodd" clip-rule="evenodd" d="M31.7834 6.13501C31.8903 6.13501 31.977 6.22345 31.977 6.33238C31.977 6.4413 31.8903 6.52974 31.7834 6.52974C31.6766 6.52974 31.5898 6.4413 31.5898 6.33238C31.5898 6.22345 31.6766 6.13501 31.7834 6.13501Z" fill="#85A6BE" stroke="#416D96" stroke-width="0.5" stroke-miterlimit="10" stroke-linecap="round" stroke-linejoin="round"/>
<path fill-rule="evenodd" clip-rule="evenodd" d="M32.3166 6.13501C32.4235 6.13501 32.5102 6.22345 32.5102 6.33238C32.5102 6.4413 32.4235 6.52974 32.3166 6.52974C32.2098 6.52974 32.123 6.4413 32.123 6.33238C32.123 6.22345 32.2098 6.13501 32.3166 6.13501Z" fill="#85A6BE" stroke="#416D96" stroke-width="0.5" stroke-miterlimit="10" stroke-linecap="round" stroke-linejoin="round"/>
<path fill-rule="evenodd" clip-rule="evenodd" d="M32.4571 9.80287C32.4348 9.69772 32.4604 9.58796 32.5267 9.50429C32.593 9.42059 32.6928 9.37195 32.7983 9.37195C33.8935 9.37195 36.7676 9.37195 37.8628 9.37195C37.9683 9.37195 38.0681 9.42059 38.1344 9.50429C38.2007 9.58796 38.2263 9.69772 38.204 9.80287C37.9594 10.9591 37.307 14.0431 37.307 14.0431H33.3541C33.3541 14.0431 32.7017 10.9591 32.4571 9.80287Z" fill="#BD7708" stroke="#416D96" stroke-width="0.5" stroke-miterlimit="10" stroke-linecap="round" stroke-linejoin="round"/>
<path fill-rule="evenodd" clip-rule="evenodd" d="M37.2745 7.15295V12.1985H33.0273V7.15295H37.2745Z" fill="#F6F6F6"/>
<mask id="mask17_5378_489" style="mask-type:luminance" maskUnits="userSpaceOnUse" x="33" y="7" width="5" height="6">
<path d="M37.2745 7.15295V12.1985H33.0273V7.15295H37.2745Z" fill="white"/>
</mask>
<g mask="url(#mask17_5378_489)">
<path fill-rule="evenodd" clip-rule="evenodd" d="M37.466 7.39819V12.4437H33.2188V7.39819H37.466Z" fill="#E4E4E4"/>
</g>
<path d="M37.2745 7.15295V12.1985H33.0273V7.15295H37.2745Z" stroke="#416D96" stroke-width="0.5" stroke-miterlimit="10" stroke-linecap="round" stroke-linejoin="round"/>
<path fill-rule="evenodd" clip-rule="evenodd" d="M37.632 7.55286V12.5984H33.3848V7.55286H37.632Z" fill="white" stroke="#416D96" stroke-width="0.5" stroke-miterlimit="10" stroke-linecap="round" stroke-linejoin="round"/>
<path fill-rule="evenodd" clip-rule="evenodd" d="M37.632 7.55286V12.5984H33.3848V7.55286H37.632Z" fill="white"/>
<path fill-rule="evenodd" clip-rule="evenodd" d="M36.4413 8.14746V8.51987H34.5742V8.14746H36.4413Z" fill="#0063B0"/>
<path fill-rule="evenodd" clip-rule="evenodd" d="M37.275 8.86853V9.0234H33.6406V8.86853H37.275Z" fill="#6EA6D1"/>
<path fill-rule="evenodd" clip-rule="evenodd" d="M37.275 9.52087V9.67574H33.6406V9.52087H37.275Z" fill="#6EA6D1"/>
<path fill-rule="evenodd" clip-rule="evenodd" d="M37.275 10.1732V10.3281H33.6406V10.1732H37.275Z" fill="#6EA6D1"/>
<path d="M37.632 7.55286V12.5984H33.3848V7.55286H37.632Z" stroke="#416D96" stroke-width="0.5" stroke-miterlimit="10" stroke-linecap="round" stroke-linejoin="round"/>
<path fill-rule="evenodd" clip-rule="evenodd" d="M32.1572 10.2251C32.1426 10.1505 32.1615 10.0732 32.2088 10.0144C32.2561 9.95559 32.3267 9.92151 32.4013 9.92151C33.043 9.92151 34.4783 9.92151 34.4783 9.92151L35.3318 10.7458C35.3318 10.7458 37.4312 10.7458 38.2471 10.7458C38.3237 10.7458 38.3961 10.7818 38.4433 10.8434C38.4905 10.905 38.5072 10.9854 38.4886 11.0612C38.3231 11.7363 37.9386 13.3041 37.8046 13.8508C37.7769 13.9638 37.6773 14.0431 37.563 14.0431C36.7857 14.0431 33.9048 14.0431 33.1103 14.0431C32.9916 14.0431 32.8894 13.9577 32.8661 13.8391C32.7344 13.1675 32.3138 11.0237 32.1572 10.2251Z" fill="#FF9C00"/>
<mask id="mask18_5378_489" style="mask-type:luminance" maskUnits="userSpaceOnUse" x="32" y="9" width="7" height="6">
<path d="M32.1572 10.2251C32.1426 10.1505 32.1615 10.0732 32.2088 10.0144C32.2561 9.95559 32.3267 9.92151 32.4013 9.92151C33.043 9.92151 34.4783 9.92151 34.4783 9.92151L35.3318 10.7458C35.3318 10.7458 37.4312 10.7458 38.2471 10.7458C38.3237 10.7458 38.3961 10.7818 38.4433 10.8434C38.4905 10.905 38.5072 10.9854 38.4886 11.0612C38.3231 11.7363 37.9386 13.3041 37.8046 13.8508C37.7769 13.9638 37.6773 14.0431 37.563 14.0431C36.7857 14.0431 33.9048 14.0431 33.1103 14.0431C32.9916 14.0431 32.8894 13.9577 32.8661 13.8391C32.7344 13.1675 32.3138 11.0237 32.1572 10.2251Z" fill="white"/>
</mask>
<g mask="url(#mask18_5378_489)">
<path fill-rule="evenodd" clip-rule="evenodd" d="M37.9216 10.3457C37.8791 10.8091 37.8636 12.8283 36.6098 13.4596C35.5213 14.0077 33.8662 13.8363 32.7852 13.9394C32.8165 13.9759 33.1402 14.9274 35.6282 14.9917C37.9635 15.052 38.8378 14.3251 39.3266 13.0021C40.0986 10.9123 38.8719 10.5603 38.658 10.4133" fill="#E88E00"/>
</g>
<path d="M32.1572 10.2251C32.1426 10.1505 32.1615 10.0732 32.2088 10.0144C32.2561 9.95559 32.3267 9.92151 32.4013 9.92151C33.043 9.92151 34.4783 9.92151 34.4783 9.92151L35.3318 10.7458C35.3318 10.7458 37.4312 10.7458 38.2471 10.7458C38.3237 10.7458 38.3961 10.7818 38.4433 10.8434C38.4905 10.905 38.5072 10.9854 38.4886 11.0612C38.3231 11.7363 37.9386 13.3041 37.8046 13.8508C37.7769 13.9638 37.6773 14.0431 37.563 14.0431C36.7857 14.0431 33.9048 14.0431 33.1103 14.0431C32.9916 14.0431 32.8894 13.9577 32.8661 13.8391C32.7344 13.1675 32.3138 11.0237 32.1572 10.2251Z" stroke="#416D96" stroke-width="0.5" stroke-miterlimit="10" stroke-linecap="round" stroke-linejoin="round"/>
<path d="M2.74805 58.4476H65.7722M23.7815 61.695H44.7388M20.9584 61.695H15.6991M52.8212 61.695H47.5619" stroke="#416D96" stroke-width="0.5" stroke-miterlimit="10" stroke-linecap="round" stroke-linejoin="round"/>
<path fill-rule="evenodd" clip-rule="evenodd" d="M12.6837 11.0562C12.1508 10.7652 11.9499 10.0878 12.2353 9.5445C12.5208 9.00117 13.1852 8.79632 13.7181 9.08733C14.251 9.37836 14.452 10.0557 14.1665 10.5991C13.8811 11.1424 13.2166 11.3472 12.6837 11.0562Z" fill="#90BBE6"/>
<path fill-rule="evenodd" clip-rule="evenodd" d="M62.9506 38.1932C62.4393 38.2277 61.9968 37.8326 61.963 37.3113C61.9292 36.7901 62.3168 36.339 62.828 36.3045C63.3392 36.27 63.7818 36.6651 63.8156 37.1864C63.8494 37.7076 63.4618 38.1587 62.9506 38.1932Z" fill="#90BBE6"/>
<path fill-rule="evenodd" clip-rule="evenodd" d="M55.9358 11.0905C56.3891 10.8617 56.5769 10.3049 56.355 9.84791C56.133 9.39091 55.5848 9.20569 55.1315 9.4345C54.6782 9.66333 54.4904 10.2201 54.7124 10.6771C54.9344 11.1341 55.4826 11.3193 55.9358 11.0905Z" fill="#90BBE6" stroke="#357BAA" stroke-width="0.5" stroke-miterlimit="10" stroke-linecap="round" stroke-linejoin="round"/>
<path fill-rule="evenodd" clip-rule="evenodd" d="M0.934077 33.4666C0.409669 33.4757 -0.00881605 33.9172 0.000141148 34.4518C0.00909835 34.9865 0.442137 35.4132 0.966545 35.404C1.49097 35.3949 1.90945 34.9534 1.9005 34.4187C1.89152 33.8841 1.4585 33.4574 0.934077 33.4666Z" fill="#90BBE6"/>
</svg>
