<svg width="80" height="80" viewBox="0 0 80 80" fill="none" xmlns="http://www.w3.org/2000/svg">
<rect width="80" height="80" fill="white"/>
<path d="M39.2293 67.7943C56.3624 67.7943 70.2515 66.9831 70.2515 65.9826C70.2515 64.982 56.3624 64.1709 39.2293 64.1709C22.0962 64.1709 8.20703 64.982 8.20703 65.9826C8.20703 66.9831 22.0962 67.7943 39.2293 67.7943Z" fill="#F5F5F5"/>
<path d="M58.3202 50.4043H20.9069C19.8559 50.4043 19.0039 49.5523 19.0039 48.5012V20.0566C19.0039 19.0056 19.8559 18.1536 20.9069 18.1536H58.3201C59.3711 18.1536 60.2231 19.0056 60.2231 20.0566V48.5012C60.2233 49.5523 59.3713 50.4043 58.3202 50.4043Z" fill="#2CA38E"/>
<path opacity="0.4" d="M58.3202 50.4043H20.9069C19.8559 50.4043 19.0039 49.5523 19.0039 48.5012V20.0566C19.0039 19.0056 19.8559 18.1536 20.9069 18.1536H58.3201C59.3711 18.1536 60.2231 19.0056 60.2231 20.0566V48.5012C60.2233 49.5523 59.3713 50.4043 58.3202 50.4043Z" fill="white"/>
<path opacity="0.8" d="M20.9076 20.3368C20.2111 20.3368 19.6445 20.9035 19.6445 21.6V48.5013C19.6445 49.1977 20.2111 49.7645 20.9076 49.7645H58.3207C59.0172 49.7645 59.5837 49.1979 59.5837 48.5013V21.6C59.5837 20.9035 59.0172 20.3368 58.3207 20.3368H20.9076Z" fill="white"/>
<path opacity="0.3" d="M21.945 19.7201H21.4951C21.3284 19.7201 21.1934 19.5849 21.1934 19.4183V18.9684C21.1934 18.8017 21.3286 18.6666 21.4951 18.6666H21.945C22.1118 18.6666 22.2468 18.8018 22.2468 18.9684V19.4183C22.2468 19.585 22.1118 19.7201 21.945 19.7201Z" fill="white"/>
<path opacity="0.5" d="M23.654 19.7201H23.2041C23.0374 19.7201 22.9023 19.5849 22.9023 19.4183V18.9684C22.9023 18.8017 23.0375 18.6666 23.2041 18.6666H23.654C23.8207 18.6666 23.9558 18.8018 23.9558 18.9684V19.4183C23.9558 19.585 23.8206 19.7201 23.654 19.7201Z" fill="white"/>
<path opacity="0.7" d="M25.3611 19.7201H24.9111C24.7444 19.7201 24.6094 19.5849 24.6094 19.4183V18.9684C24.6094 18.8017 24.7446 18.6666 24.9111 18.6666H25.3611C25.5278 18.6666 25.663 18.8018 25.663 18.9684V19.4183C25.663 19.585 25.5278 19.7201 25.3611 19.7201Z" fill="white"/>
<path d="M37.6857 19.7018L37.6842 19.0337L37.353 19.5866H37.2695L36.9383 19.0423V19.7018H36.7598V18.6938H36.9138L37.3142 19.362L37.7073 18.6938H37.8614L37.8628 19.7018H37.6857Z" fill="white"/>
<path d="M38.8372 18.933L38.4772 19.7639C38.4436 19.8474 38.4028 19.9061 38.3548 19.9402C38.3068 19.9743 38.2487 19.9914 38.1805 19.9914C38.1421 19.9914 38.1042 19.9851 38.0668 19.9727C38.0293 19.9602 37.9986 19.9429 37.9746 19.9208L38.0466 19.7883C38.0639 19.8047 38.0842 19.8176 38.1079 19.8272C38.1314 19.8368 38.1551 19.8416 38.1791 19.8416C38.2108 19.8416 38.2368 19.8335 38.2576 19.8171C38.2783 19.8007 38.2972 19.7735 38.3145 19.7351L38.3274 19.7048L37.9919 18.933H38.1791L38.421 19.5018L38.6644 18.933H38.8372Z" fill="white"/>
<path d="M39.5524 18.8508V19.1575H40.0392V19.3159H39.5524V19.7018H39.3652V18.6938H40.1011V18.8508H39.5524Z" fill="white"/>
<path d="M40.2597 18.7753C40.2376 18.7547 40.2266 18.7289 40.2266 18.6984C40.2266 18.6676 40.2376 18.6419 40.2597 18.6212C40.2818 18.6006 40.3091 18.5902 40.3418 18.5902C40.3744 18.5902 40.4018 18.6001 40.4238 18.6196C40.4459 18.6393 40.457 18.6641 40.457 18.6939C40.457 18.7256 40.4462 18.7521 40.4245 18.7737C40.4029 18.7953 40.3754 18.806 40.3418 18.806C40.3091 18.8062 40.2818 18.796 40.2597 18.7753ZM40.2509 18.9329H40.4309V19.7019H40.2509V18.9329Z" fill="white"/>
<path d="M40.666 18.6334H40.846V19.7019H40.666V18.6334Z" fill="white"/>
<path d="M41.8029 19.375H41.1995C41.2101 19.4317 41.2378 19.4765 41.2824 19.5096C41.3271 19.5427 41.3824 19.5594 41.4488 19.5594C41.5333 19.5594 41.6029 19.5315 41.6576 19.4758L41.7541 19.5867C41.7195 19.628 41.6759 19.6592 41.6231 19.6803C41.5703 19.7014 41.5107 19.712 41.4445 19.712C41.36 19.712 41.2856 19.6952 41.2213 19.6616C41.157 19.628 41.1074 19.5811 41.0722 19.5211C41.0371 19.4611 41.0195 19.3933 41.0195 19.3174C41.0195 19.2426 41.0365 19.175 41.0707 19.115C41.1048 19.055 41.152 19.0082 41.2125 18.9747C41.273 18.9411 41.3411 18.9243 41.417 18.9243C41.4919 18.9243 41.5587 18.941 41.6178 18.9741C41.6768 19.0072 41.7229 19.0538 41.756 19.1138C41.7891 19.1738 41.8056 19.2432 41.8056 19.3218C41.8058 19.3342 41.8048 19.352 41.8029 19.375ZM41.2707 19.1195C41.2309 19.1536 41.2067 19.199 41.1979 19.2557H41.6343C41.6266 19.2 41.6031 19.1549 41.5637 19.1203C41.5243 19.0858 41.4754 19.0685 41.4168 19.0685C41.3594 19.0683 41.3106 19.0854 41.2707 19.1195Z" fill="white"/>
<path d="M42.0332 19.6875C41.9737 19.6712 41.9261 19.6506 41.8906 19.6256L41.9597 19.4888C41.9943 19.5118 42.0359 19.5304 42.0842 19.5443C42.1327 19.5582 42.1805 19.5651 42.2276 19.5651C42.3351 19.5651 42.3889 19.5368 42.3889 19.4802C42.3889 19.4534 42.3751 19.4346 42.3477 19.424C42.3204 19.4134 42.2765 19.4034 42.2161 19.3938C42.1527 19.3842 42.101 19.3731 42.0612 19.3606C42.0213 19.3482 41.9868 19.3262 41.9575 19.295C41.9282 19.2638 41.9137 19.2205 41.9137 19.1648C41.9137 19.0918 41.9442 19.0336 42.005 18.9898C42.066 18.9461 42.1482 18.9243 42.2521 18.9243C42.3049 18.9243 42.3577 18.9304 42.4105 18.9422C42.4633 18.9542 42.5065 18.9704 42.5401 18.9906L42.4709 19.1274C42.4057 19.089 42.3322 19.0698 42.2506 19.0698C42.1978 19.0698 42.1577 19.0778 42.1305 19.0936C42.1031 19.1094 42.0895 19.1302 42.0895 19.1563C42.0895 19.1851 42.1041 19.2056 42.1333 19.2176C42.1626 19.2296 42.2079 19.241 42.2695 19.2514C42.3309 19.261 42.3813 19.272 42.4207 19.2845C42.4601 19.297 42.494 19.3181 42.5223 19.3478C42.5506 19.3776 42.5647 19.4198 42.5647 19.4746C42.5647 19.5466 42.5335 19.6042 42.4711 19.6474C42.4087 19.6906 42.3237 19.7122 42.2162 19.7122C42.1537 19.712 42.0927 19.7038 42.0332 19.6875Z" fill="white"/>
<path d="M27.1698 26.921L26.992 26.5983C26.933 26.4909 26.82 26.4242 26.6975 26.4242H24.0354C23.8498 26.4242 23.6992 26.5748 23.6992 26.7604V31.8487C23.6992 32.0416 23.8557 32.1981 24.0487 32.1981H30.0981C30.2911 32.1981 30.4475 32.0416 30.4475 31.8487V27.4079C30.4475 27.2221 30.297 27.0717 30.1114 27.0717H27.4247C27.3186 27.0717 27.221 27.014 27.1698 26.921Z" fill="#2CA38E"/>
<path opacity="0.3" d="M27.1698 26.921L26.992 26.5983C26.933 26.4909 26.82 26.4242 26.6975 26.4242H24.0354C23.8498 26.4242 23.6992 26.5748 23.6992 26.7604V31.8487C23.6992 32.0416 23.8557 32.1981 24.0487 32.1981H30.0981C30.2911 32.1981 30.4475 32.0416 30.4475 31.8487V27.4079C30.4475 27.2221 30.297 27.0717 30.1114 27.0717H27.4247C27.3186 27.0717 27.221 27.014 27.1698 26.921Z" fill="white"/>
<path d="M29.6069 27.275H24.4473V31.1333H29.6069V27.275Z" fill="#263238"/>
<path opacity="0.8" d="M29.6069 27.275H24.4473V31.1333H29.6069V27.275Z" fill="white"/>
<path d="M29.9797 27.6625H24.0742V32.0783H29.9797V27.6625Z" fill="#263238"/>
<path opacity="0.9" d="M29.9797 27.6625H24.0742V32.0783H29.9797V27.6625Z" fill="white"/>
<path d="M31.0414 27.7734C29.6258 27.7734 28.9176 27.7734 27.5019 27.7734C27.3389 27.7734 27.1878 27.831 27.1094 27.9237C27.015 28.035 26.9686 28.0909 26.8773 28.2022C26.8115 28.2824 26.6867 28.3323 26.5502 28.3323C25.1674 28.3323 24.4758 28.3323 23.0928 28.3323C22.8538 28.3323 22.6936 28.4622 22.735 28.6226C23.073 29.9322 23.2418 30.587 23.5797 31.8966C23.6227 32.0632 23.8125 32.1982 24.0038 32.1982C26.0029 32.1982 28.0018 32.1982 30.0008 32.1982C30.1922 32.1982 30.3819 32.0632 30.425 31.8966C30.7546 30.619 31.0842 29.3413 31.4138 28.0637C31.455 27.9034 31.2883 27.7734 31.0414 27.7734Z" fill="#2CA38E"/>
<g opacity="0.6">
<path d="M31.0414 27.7734C29.6258 27.7734 28.9176 27.7734 27.5019 27.7734C27.3389 27.7734 27.1878 27.831 27.1094 27.9237C27.015 28.035 26.9686 28.0909 26.8773 28.2022C26.8115 28.2824 26.6867 28.3323 26.5502 28.3323C25.1674 28.3323 24.4758 28.3323 23.0928 28.3323C22.8538 28.3323 22.6936 28.4622 22.735 28.6226C23.073 29.9322 23.2418 30.587 23.5797 31.8966C23.6227 32.0632 23.8125 32.1982 24.0038 32.1982C26.0029 32.1982 28.0018 32.1982 30.0008 32.1982C30.1922 32.1982 30.3819 32.0632 30.425 31.8966C30.7546 30.619 31.0842 29.3413 31.4138 28.0637C31.455 27.9034 31.2883 27.7734 31.0414 27.7734Z" fill="white"/>
</g>
<path d="M23.8311 34.1151C23.6082 34.1151 23.4277 33.9344 23.4277 33.7117C23.4277 33.489 23.6084 33.3083 23.8311 33.3083H30.2837C30.5066 33.3083 30.6871 33.489 30.6871 33.7117C30.6871 33.9344 30.5065 34.1151 30.2837 34.1151H23.8311Z" fill="#263238"/>
<path opacity="0.6" d="M23.8311 34.1151C23.6082 34.1151 23.4277 33.9344 23.4277 33.7117C23.4277 33.489 23.6084 33.3083 23.8311 33.3083H30.2837C30.5066 33.3083 30.6871 33.489 30.6871 33.7117C30.6871 33.9344 30.5065 34.1151 30.2837 34.1151H23.8311Z" fill="white"/>
<path d="M39.2049 26.921L39.0272 26.5983C38.9681 26.4909 38.8552 26.4242 38.7326 26.4242H36.0705C35.8848 26.4242 35.7344 26.5748 35.7344 26.7604V31.8487C35.7344 32.0416 35.8909 32.1981 36.0838 32.1981H42.1333C42.3262 32.1981 42.4827 32.0416 42.4827 31.8487V27.4079C42.4827 27.2221 42.3321 27.0717 42.1465 27.0717H39.4598C39.3537 27.0717 39.2561 27.014 39.2049 26.921Z" fill="#2CA38E"/>
<path opacity="0.3" d="M39.2049 26.921L39.0272 26.5983C38.9681 26.4909 38.8552 26.4242 38.7326 26.4242H36.0705C35.8848 26.4242 35.7344 26.5748 35.7344 26.7604V31.8487C35.7344 32.0416 35.8909 32.1981 36.0838 32.1981H42.1333C42.3262 32.1981 42.4827 32.0416 42.4827 31.8487V27.4079C42.4827 27.2221 42.3321 27.0717 42.1465 27.0717H39.4598C39.3537 27.0717 39.2561 27.014 39.2049 26.921Z" fill="white"/>
<path d="M41.6421 27.275H36.4824V31.1333H41.6421V27.275Z" fill="#263238"/>
<path opacity="0.8" d="M41.6421 27.275H36.4824V31.1333H41.6421V27.275Z" fill="white"/>
<path d="M42.0148 27.6625H36.1094V32.0783H42.0148V27.6625Z" fill="#263238"/>
<path opacity="0.9" d="M42.0148 27.6625H36.1094V32.0783H42.0148V27.6625Z" fill="white"/>
<path d="M43.0766 27.7734C41.6608 27.7734 40.9528 27.7734 39.5371 27.7734C39.374 27.7734 39.223 27.831 39.1446 27.9237C39.0502 28.035 39.0038 28.0909 38.9124 28.2022C38.8467 28.2824 38.7219 28.3323 38.5854 28.3323C37.2025 28.3323 36.511 28.3323 35.128 28.3323C34.8889 28.3323 34.7288 28.4622 34.7702 28.6226C35.1081 29.9322 35.2769 30.587 35.6148 31.8966C35.6577 32.0632 35.8476 32.1982 36.039 32.1982C38.038 32.1982 40.0369 32.1982 42.036 32.1982C42.2273 32.1982 42.4172 32.0632 42.4601 31.8966C42.7897 30.619 43.1193 29.3413 43.4489 28.0637C43.49 27.9034 43.3235 27.7734 43.0766 27.7734Z" fill="#2CA38E"/>
<g opacity="0.6">
<path d="M43.0766 27.7734C41.6608 27.7734 40.9528 27.7734 39.5371 27.7734C39.374 27.7734 39.223 27.831 39.1446 27.9237C39.0502 28.035 39.0038 28.0909 38.9124 28.2022C38.8467 28.2824 38.7219 28.3323 38.5854 28.3323C37.2025 28.3323 36.511 28.3323 35.128 28.3323C34.8889 28.3323 34.7288 28.4622 34.7702 28.6226C35.1081 29.9322 35.2769 30.587 35.6148 31.8966C35.6577 32.0632 35.8476 32.1982 36.039 32.1982C38.038 32.1982 40.0369 32.1982 42.036 32.1982C42.2273 32.1982 42.4172 32.0632 42.4601 31.8966C42.7897 30.619 43.1193 29.3413 43.4489 28.0637C43.49 27.9034 43.3235 27.7734 43.0766 27.7734Z" fill="white"/>
</g>
<path d="M35.8838 34.1151C35.661 34.1151 35.4805 33.9344 35.4805 33.7117C35.4805 33.489 35.6611 33.3083 35.8838 33.3083H42.3365C42.5592 33.3083 42.7398 33.489 42.7398 33.7117C42.7398 33.9344 42.5592 34.1151 42.3365 34.1151H35.8838Z" fill="#263238"/>
<path opacity="0.6" d="M35.8838 34.1151C35.661 34.1151 35.4805 33.9344 35.4805 33.7117C35.4805 33.489 35.6611 33.3083 35.8838 33.3083H42.3365C42.5592 33.3083 42.7398 33.489 42.7398 33.7117C42.7398 33.9344 42.5592 34.1151 42.3365 34.1151H35.8838Z" fill="white"/>
<path d="M27.1698 39.7669L26.992 39.4442C26.933 39.3369 26.82 39.2701 26.6975 39.2701H24.0354C23.8498 39.2701 23.6992 39.4207 23.6992 39.6063V44.6946C23.6992 44.8876 23.8557 45.0441 24.0487 45.0441H30.0981C30.2911 45.0441 30.4475 44.8876 30.4475 44.6946V40.2537C30.4475 40.0681 30.297 39.9175 30.1114 39.9175H27.4247C27.3186 39.9175 27.221 39.8599 27.1698 39.7669Z" fill="#2CA38E"/>
<path opacity="0.3" d="M27.1698 39.7669L26.992 39.4442C26.933 39.3369 26.82 39.2701 26.6975 39.2701H24.0354C23.8498 39.2701 23.6992 39.4207 23.6992 39.6063V44.6946C23.6992 44.8876 23.8557 45.0441 24.0487 45.0441H30.0981C30.2911 45.0441 30.4475 44.8876 30.4475 44.6946V40.2537C30.4475 40.0681 30.297 39.9175 30.1114 39.9175H27.4247C27.3186 39.9175 27.221 39.8599 27.1698 39.7669Z" fill="white"/>
<path d="M29.6069 40.121H24.4473V43.9792H29.6069V40.121Z" fill="#263238"/>
<path opacity="0.8" d="M29.6069 40.121H24.4473V43.9792H29.6069V40.121Z" fill="white"/>
<path d="M29.9797 40.5084H24.0742V44.9243H29.9797V40.5084Z" fill="#263238"/>
<path opacity="0.9" d="M29.9797 40.5084H24.0742V44.9243H29.9797V40.5084Z" fill="white"/>
<path d="M31.0414 40.6193C29.6258 40.6193 28.9176 40.6193 27.5019 40.6193C27.3389 40.6193 27.1878 40.6769 27.1094 40.7695C27.015 40.881 26.9686 40.9367 26.8773 41.0481C26.8115 41.1282 26.6867 41.1781 26.5502 41.1781C25.1674 41.1781 24.4758 41.1781 23.0928 41.1781C22.8538 41.1781 22.6936 41.3081 22.735 41.4684C23.073 42.778 23.2418 43.4329 23.5797 44.7425C23.6227 44.909 23.8125 45.0441 24.0038 45.0441C26.0029 45.0441 28.0018 45.0441 30.0008 45.0441C30.1922 45.0441 30.3819 44.909 30.425 44.7425C30.7546 43.4649 31.0842 42.1871 31.4138 40.9095C31.455 40.7492 31.2883 40.6194 31.0414 40.6193Z" fill="#2CA38E"/>
<g opacity="0.6">
<path d="M31.0414 40.6193C29.6258 40.6193 28.9176 40.6193 27.5019 40.6193C27.3389 40.6193 27.1878 40.6769 27.1094 40.7695C27.015 40.881 26.9686 40.9367 26.8773 41.0481C26.8115 41.1282 26.6867 41.1781 26.5502 41.1781C25.1674 41.1781 24.4758 41.1781 23.0928 41.1781C22.8538 41.1781 22.6936 41.3081 22.735 41.4684C23.073 42.778 23.2418 43.4329 23.5797 44.7425C23.6227 44.909 23.8125 45.0441 24.0038 45.0441C26.0029 45.0441 28.0018 45.0441 30.0008 45.0441C30.1922 45.0441 30.3819 44.909 30.425 44.7425C30.7546 43.4649 31.0842 42.1871 31.4138 40.9095C31.455 40.7492 31.2883 40.6194 31.0414 40.6193Z" fill="white"/>
</g>
<path d="M23.8311 47.1218C23.6082 47.1218 23.4277 46.9411 23.4277 46.7184C23.4277 46.4957 23.6084 46.3151 23.8311 46.3151H30.2837C30.5066 46.3151 30.6871 46.4957 30.6871 46.7184C30.6871 46.9413 30.5065 47.1218 30.2837 47.1218H23.8311Z" fill="#263238"/>
<path opacity="0.6" d="M23.8311 47.1218C23.6082 47.1218 23.4277 46.9411 23.4277 46.7184C23.4277 46.4957 23.6084 46.3151 23.8311 46.3151H30.2837C30.5066 46.3151 30.6871 46.4957 30.6871 46.7184C30.6871 46.9413 30.5065 47.1218 30.2837 47.1218H23.8311Z" fill="white"/>
<path d="M39.2049 39.7669L39.0272 39.4442C38.9681 39.3369 38.8552 39.2701 38.7326 39.2701H36.0705C35.8848 39.2701 35.7344 39.4207 35.7344 39.6063V44.6946C35.7344 44.8876 35.8909 45.0441 36.0838 45.0441H42.1333C42.3262 45.0441 42.4827 44.8876 42.4827 44.6946V40.2537C42.4827 40.0681 42.3321 39.9175 42.1465 39.9175H39.4598C39.3537 39.9175 39.2561 39.8599 39.2049 39.7669Z" fill="#2CA38E"/>
<path opacity="0.3" d="M39.2049 39.7669L39.0272 39.4442C38.9681 39.3369 38.8552 39.2701 38.7326 39.2701H36.0705C35.8848 39.2701 35.7344 39.4207 35.7344 39.6063V44.6946C35.7344 44.8876 35.8909 45.0441 36.0838 45.0441H42.1333C42.3262 45.0441 42.4827 44.8876 42.4827 44.6946V40.2537C42.4827 40.0681 42.3321 39.9175 42.1465 39.9175H39.4598C39.3537 39.9175 39.2561 39.8599 39.2049 39.7669Z" fill="white"/>
<path d="M41.6421 40.121H36.4824V43.9792H41.6421V40.121Z" fill="#263238"/>
<path opacity="0.8" d="M41.6421 40.121H36.4824V43.9792H41.6421V40.121Z" fill="white"/>
<path d="M42.0148 40.5084H36.1094V44.9243H42.0148V40.5084Z" fill="#263238"/>
<path opacity="0.9" d="M42.0148 40.5084H36.1094V44.9243H42.0148V40.5084Z" fill="white"/>
<path d="M43.0766 40.6193C41.6608 40.6193 40.9528 40.6193 39.5371 40.6193C39.374 40.6193 39.223 40.6769 39.1446 40.7695C39.0502 40.881 39.0038 40.9367 38.9124 41.0481C38.8467 41.1282 38.7219 41.1781 38.5854 41.1781C37.2025 41.1781 36.511 41.1781 35.128 41.1781C34.8889 41.1781 34.7288 41.3081 34.7702 41.4684C35.1081 42.778 35.2769 43.4329 35.6148 44.7425C35.6577 44.909 35.8476 45.0441 36.039 45.0441C38.038 45.0441 40.0369 45.0441 42.036 45.0441C42.2273 45.0441 42.4172 44.909 42.4601 44.7425C42.7897 43.4649 43.1193 42.1871 43.4489 40.9095C43.49 40.7492 43.3235 40.6194 43.0766 40.6193Z" fill="#2CA38E"/>
<g opacity="0.6">
<path d="M43.0766 40.6193C41.6608 40.6193 40.9528 40.6193 39.5371 40.6193C39.374 40.6193 39.223 40.6769 39.1446 40.7695C39.0502 40.881 39.0038 40.9367 38.9124 41.0481C38.8467 41.1282 38.7219 41.1781 38.5854 41.1781C37.2025 41.1781 36.511 41.1781 35.128 41.1781C34.8889 41.1781 34.7288 41.3081 34.7702 41.4684C35.1081 42.778 35.2769 43.4329 35.6148 44.7425C35.6577 44.909 35.8476 45.0441 36.039 45.0441C38.038 45.0441 40.0369 45.0441 42.036 45.0441C42.2273 45.0441 42.4172 44.909 42.4601 44.7425C42.7897 43.4649 43.1193 42.1871 43.4489 40.9095C43.49 40.7492 43.3235 40.6194 43.0766 40.6193Z" fill="white"/>
</g>
<path d="M35.8838 47.1218C35.661 47.1218 35.4805 46.9411 35.4805 46.7184C35.4805 46.4957 35.6611 46.3151 35.8838 46.3151H42.3365C42.5592 46.3151 42.7398 46.4957 42.7398 46.7184C42.7398 46.9413 42.5592 47.1218 42.3365 47.1218H35.8838Z" fill="#263238"/>
<path opacity="0.6" d="M35.8838 47.1218C35.661 47.1218 35.4805 46.9411 35.4805 46.7184C35.4805 46.4957 35.6611 46.3151 35.8838 46.3151H42.3365C42.5592 46.3151 42.7398 46.4957 42.7398 46.7184C42.7398 46.9413 42.5592 47.1218 42.3365 47.1218H35.8838Z" fill="white"/>
<path d="M50.9667 39.7669L50.7889 39.4442C50.7299 39.3369 50.6169 39.2701 50.4943 39.2701H47.8323C47.6465 39.2701 47.4961 39.4207 47.4961 39.6063V44.6946C47.4961 44.8876 47.6526 45.0441 47.8455 45.0441H53.895C54.0879 45.0441 54.2444 44.8876 54.2444 44.6946V40.2537C54.2444 40.0681 54.0939 39.9175 53.9083 39.9175H51.2215C51.1155 39.9175 51.0177 39.8599 50.9667 39.7669Z" fill="#2CA38E"/>
<path opacity="0.3" d="M50.9667 39.7669L50.7889 39.4442C50.7299 39.3369 50.6169 39.2701 50.4943 39.2701H47.8323C47.6465 39.2701 47.4961 39.4207 47.4961 39.6063V44.6946C47.4961 44.8876 47.6526 45.0441 47.8455 45.0441H53.895C54.0879 45.0441 54.2444 44.8876 54.2444 44.6946V40.2537C54.2444 40.0681 54.0939 39.9175 53.9083 39.9175H51.2215C51.1155 39.9175 51.0177 39.8599 50.9667 39.7669Z" fill="white"/>
<path d="M53.4038 40.121H48.2441V43.9792H53.4038V40.121Z" fill="#263238"/>
<path opacity="0.8" d="M53.4038 40.121H48.2441V43.9792H53.4038V40.121Z" fill="white"/>
<path d="M53.7765 40.5084H47.8711V44.9243H53.7765V40.5084Z" fill="#263238"/>
<path opacity="0.9" d="M53.7765 40.5084H47.8711V44.9243H53.7765V40.5084Z" fill="white"/>
<path d="M54.8383 40.6193C53.4226 40.6193 52.7145 40.6193 51.2988 40.6193C51.1358 40.6193 50.9847 40.6769 50.9063 40.7695C50.8119 40.881 50.7655 40.9367 50.6742 41.0481C50.6084 41.1282 50.4836 41.1781 50.3471 41.1781C48.9642 41.1781 48.2727 41.1781 46.8897 41.1781C46.6508 41.1781 46.4905 41.3081 46.5319 41.4684C46.8698 42.778 47.0386 43.4329 47.3766 44.7425C47.4194 44.909 47.6094 45.0441 47.8007 45.0441C49.7998 45.0441 51.7986 45.0441 53.7977 45.0441C53.989 45.0441 54.179 44.909 54.2218 44.7425C54.5514 43.4649 54.881 42.1871 55.2106 40.9095C55.2517 40.7492 55.0852 40.6194 54.8383 40.6193Z" fill="#2CA38E"/>
<g opacity="0.6">
<path d="M54.8383 40.6193C53.4226 40.6193 52.7145 40.6193 51.2988 40.6193C51.1358 40.6193 50.9847 40.6769 50.9063 40.7695C50.8119 40.881 50.7655 40.9367 50.6742 41.0481C50.6084 41.1282 50.4836 41.1781 50.3471 41.1781C48.9642 41.1781 48.2727 41.1781 46.8897 41.1781C46.6508 41.1781 46.4905 41.3081 46.5319 41.4684C46.8698 42.778 47.0386 43.4329 47.3766 44.7425C47.4194 44.909 47.6094 45.0441 47.8007 45.0441C49.7998 45.0441 51.7986 45.0441 53.7977 45.0441C53.989 45.0441 54.179 44.909 54.2218 44.7425C54.5514 43.4649 54.881 42.1871 55.2106 40.9095C55.2517 40.7492 55.0852 40.6194 54.8383 40.6193Z" fill="white"/>
</g>
<path d="M47.6455 47.1218C47.4227 47.1218 47.2422 46.9411 47.2422 46.7184C47.2422 46.4957 47.4228 46.3151 47.6455 46.3151H54.0982C54.3211 46.3151 54.5015 46.4957 54.5015 46.7184C54.5015 46.9413 54.3209 47.1218 54.0982 47.1218H47.6455Z" fill="#263238"/>
<path opacity="0.6" d="M47.6455 47.1218C47.4227 47.1218 47.2422 46.9411 47.2422 46.7184C47.2422 46.4957 47.4228 46.3151 47.6455 46.3151H54.0982C54.3211 46.3151 54.5015 46.4957 54.5015 46.7184C54.5015 46.9413 54.3209 47.1218 54.0982 47.1218H47.6455Z" fill="white"/>
<path d="M47.5616 34.1151C47.3387 34.1151 47.1582 33.9344 47.1582 33.7117C47.1582 33.489 47.3388 33.3083 47.5616 33.3083H54.0142C54.2371 33.3083 54.4176 33.489 54.4176 33.7117C54.4176 33.9344 54.2369 34.1151 54.0142 34.1151H47.5616Z" fill="#263238"/>
<path opacity="0.6" d="M47.5616 34.1151C47.3387 34.1151 47.1582 33.9344 47.1582 33.7117C47.1582 33.489 47.3388 33.3083 47.5616 33.3083H54.0142C54.2371 33.3083 54.4176 33.489 54.4176 33.7117C54.4176 33.9344 54.2369 34.1151 54.0142 34.1151H47.5616Z" fill="white"/>
<path d="M47.3423 32.3402L48.7182 36.3661C48.7758 36.5344 48.9755 36.6709 49.1643 36.6709H51.8715C51.9961 36.6709 52.0902 36.6104 52.1171 36.5131L52.1977 36.2205C52.2209 36.1362 52.3023 36.084 52.4102 36.084H55.1423C55.3311 36.084 55.4375 35.9475 55.3801 35.7792L54.2049 32.3403L54.1887 31.6683V26.4938C54.1887 26.305 54.0356 26.1519 53.8468 26.1519H51.1396C51.015 26.1519 50.9003 26.2197 50.8401 26.3288L50.6595 26.6571C50.6075 26.7515 50.5081 26.8103 50.4003 26.8103H47.6681C47.4793 26.8103 47.3262 26.9634 47.3262 27.1522V31.6683L47.3423 32.3402Z" fill="#2CA38E"/>
<path opacity="0.6" d="M47.3423 32.3402L48.7182 36.3661C48.7758 36.5344 48.9755 36.6709 49.1643 36.6709H51.8715C51.9961 36.6709 52.0902 36.6104 52.1171 36.5131L52.1977 36.2205C52.2209 36.1362 52.3023 36.084 52.4102 36.084H55.1423C55.3311 36.084 55.4375 35.9475 55.3801 35.7792L54.2049 32.3403L54.1887 31.6683V26.4938C54.1887 26.305 54.0356 26.1519 53.8468 26.1519H51.1396C51.015 26.1519 50.9003 26.2197 50.8401 26.3288L50.6595 26.6571C50.6075 26.7515 50.5081 26.8103 50.4003 26.8103H47.6681C47.4793 26.8103 47.3262 26.9634 47.3262 27.1522V31.6683L47.3423 32.3402Z" fill="white"/>
<path d="M47.3418 32.3402L48.7176 36.3661C48.7752 36.5344 48.9749 36.6709 49.1637 36.6709H51.8709C51.9956 36.6709 52.0896 36.6104 52.1165 36.5132L52.1972 36.2205C52.2204 36.1362 52.3018 36.084 52.4096 36.084H55.1418C55.3306 36.084 55.437 35.9476 55.3796 35.7792L54.2044 32.3404L47.3418 32.3402Z" fill="#2CA38E"/>
<path opacity="0.3" d="M47.3418 32.3402L48.7176 36.3661C48.7752 36.5344 48.9749 36.6709 49.1637 36.6709H51.8709C51.9956 36.6709 52.0896 36.6104 52.1165 36.5132L52.1972 36.2205C52.2204 36.1362 52.3018 36.084 52.4096 36.084H55.1418C55.3306 36.084 55.437 35.9476 55.3796 35.7792L54.2044 32.3404L47.3418 32.3402Z" fill="white"/>
<path opacity="0.1" d="M48.0039 32.3402H53.5741L54.5903 35.2031H49.0201L48.0039 32.3402Z" fill="black"/>
<path d="M48.004 32.3403H53.5742V27.8264H48.004V32.3403Z" fill="#263238"/>
<path opacity="0.8" d="M48.004 32.3403H53.5742V27.8264H48.004V32.3403Z" fill="white"/>
<path d="M48.0039 32.3402H53.5741L54.7033 29.0875H49.133L48.0039 32.3402Z" fill="#263238"/>
<path opacity="0.9" d="M48.0039 32.3402H53.5741L54.7033 29.0875H49.133L48.0039 32.3402Z" fill="white"/>
<path d="M48.0039 32.3402H53.5741L54.7033 34.7514H49.133L48.0039 32.3402Z" fill="#263238"/>
<path opacity="0.9" d="M48.0039 32.3402H53.5741L54.7033 34.7514H49.133L48.0039 32.3402Z" fill="white"/>
<path d="M48.0039 32.3402H53.5741L55.3961 31.1007H49.8258L48.0039 32.3402Z" fill="#263238"/>
<path opacity="0.8" d="M48.0039 32.3402H53.5741L55.3961 31.1007H49.8258L48.0039 32.3402Z" fill="white"/>
<path d="M62.2077 31.3757C62.2077 31.3757 65.0729 33.8401 65.0729 35.3002C65.0729 36.6425 62.2264 38.0812 60.9755 38.2674C60.6856 38.3106 59.8027 38.2674 59.8027 38.2674C59.5318 38.2674 59.2902 38.0965 59.2001 37.841L59.1856 37.7997C59.104 37.5685 59.1582 37.3074 59.3345 37.1369C59.4667 37.009 59.6409 36.8857 59.8408 36.8543C60.2926 36.7837 60.9285 37.4194 60.9285 37.4194C60.9285 37.4194 63.7072 35.7474 63.7072 35.4413C63.7072 35.1353 62.4374 34.1341 62.0589 33.581C61.7413 33.1175 61.4147 32.4436 62.2077 31.3757Z" fill="#B97964"/>
<path d="M62.2786 31.2388C62.5568 31.4052 63.1837 31.886 64.1943 33.2217C64.1943 33.2217 64.1571 33.9511 62.8589 34.6311C62.8589 34.6311 61.4741 33.5677 61.4864 32.5415C61.4949 31.841 61.7823 31.4509 61.9639 31.2738C62.0485 31.1916 62.1773 31.1781 62.2786 31.2388Z" fill="#2CA38E"/>
<path opacity="0.2" d="M61.9883 33.75C62.3806 34.2625 62.8604 34.6313 62.8604 34.6313C62.8956 34.6129 62.9296 34.5943 62.9628 34.5758C63.0944 33.0079 62.6008 32.01 62.6008 32.01L62.1113 32.6777L61.9883 33.75Z" fill="black"/>
<path opacity="0.2" d="M61.0284 38.258C61.5313 38.1722 62.2649 37.9008 62.9705 37.5216C62.7079 37.3298 62.6301 36.6628 62.6077 36.3516C61.8954 36.8322 61.0783 37.3282 60.9473 37.4076L61.0284 38.258Z" fill="#606060"/>
<path d="M62.6738 34.5879C62.6738 34.5879 63.8298 33.9636 64.1946 33.0239L64.4109 33.3887C64.4109 33.3887 64.0359 34.3047 62.8985 34.8178L62.6738 34.5879Z" fill="#2CA38E"/>
<path opacity="0.5" d="M62.6738 34.5879C62.6738 34.5879 63.8298 33.9636 64.1946 33.0239L64.4109 33.3887C64.4109 33.3887 64.0359 34.3047 62.8985 34.8178L62.6738 34.5879Z" fill="white"/>
<path d="M61.2999 33.5192L61.1387 33.3118C61.0851 33.2428 60.9983 33.2084 60.912 33.222L59.0381 33.5188C58.9074 33.5395 58.8183 33.6622 58.8389 33.7929L59.4063 37.3748C59.4277 37.5107 59.5554 37.6033 59.6912 37.5819L63.9496 36.9075C64.0855 36.8859 64.1781 36.7584 64.1567 36.6225L63.6616 33.4964C63.641 33.3657 63.5181 33.2766 63.3874 33.2972L61.4962 33.5968C61.4213 33.6086 61.3463 33.5788 61.2999 33.5192Z" fill="#2CA38E"/>
<path opacity="0.4" d="M61.2999 33.5192L61.1387 33.3118C61.0851 33.2428 60.9983 33.2084 60.912 33.222L59.0381 33.5188C58.9074 33.5395 58.8183 33.6622 58.8389 33.7929L59.4063 37.3748C59.4277 37.5107 59.5554 37.6033 59.6912 37.5819L63.9496 36.9075C64.0855 36.8859 64.1781 36.7584 64.1567 36.6225L63.6616 33.4964C63.641 33.3657 63.5181 33.2766 63.3874 33.2972L61.4962 33.5968C61.4213 33.6086 61.3463 33.5788 61.2999 33.5192Z" fill="white"/>
<path d="M63.3873 33.2972L61.5134 33.594C61.4271 33.6076 61.3551 33.6673 61.3255 33.7494L61.2364 33.9964C61.2108 34.0674 61.1484 34.119 61.0738 34.1308L59.1826 34.4303C59.0519 34.451 58.9628 34.5737 58.9834 34.7044L59.4063 37.3746C59.4278 37.5105 59.5554 37.6031 59.6913 37.5817L63.9497 36.9073C64.0855 36.8857 64.1782 36.7582 64.1567 36.6223L63.6617 33.4962C63.6407 33.3657 63.518 33.2764 63.3873 33.2972Z" fill="#2CA38E"/>
<path opacity="0.7" d="M63.3873 33.2972L61.5134 33.594C61.4271 33.6076 61.3551 33.6673 61.3255 33.7494L61.2364 33.9964C61.2108 34.0674 61.1484 34.119 61.0738 34.1308L59.1826 34.4303C59.0519 34.451 58.9628 34.5737 58.9834 34.7044L59.4063 37.3746C59.4278 37.5105 59.5554 37.6031 59.6913 37.5817L63.9497 36.9073C64.0855 36.8857 64.1782 36.7582 64.1567 36.6223L63.6617 33.4962C63.6407 33.3657 63.518 33.2764 63.3873 33.2972Z" fill="white"/>
<path d="M65.6953 62.6193L66.2735 64.6347L67.2161 64.4492L66.9688 62.2979L65.6953 62.6193Z" fill="#B97964"/>
<path d="M66.191 64.3255L67.3035 64.1236C67.3454 64.1159 67.387 64.1384 67.4037 64.1776L67.7689 65.0463C67.8019 65.1231 67.7664 65.212 67.6896 65.245C67.6797 65.2492 67.6694 65.2524 67.6589 65.2544C67.2566 65.3202 66.896 65.3629 66.3968 65.4543C65.8077 65.5613 65.9699 65.6047 65.279 65.7404C64.8627 65.8216 64.7001 65.361 64.8729 65.3056C65.6645 65.0567 65.7041 64.7968 65.964 64.4503C66.0217 64.3823 66.1025 64.3378 66.191 64.3255Z" fill="#263238"/>
<path d="M57.4805 62.2278V64.8985H58.4821L58.9982 62.2895L57.4805 62.2278Z" fill="#B97964"/>
<path d="M57.4636 64.7283L58.5923 64.7686C58.6348 64.77 58.6707 64.8009 58.6785 64.8428L58.8497 65.7683C58.8656 65.8502 58.8118 65.9295 58.7299 65.9452C58.7193 65.9473 58.7086 65.9481 58.698 65.9479C58.2915 65.9263 57.9305 65.8911 57.424 65.8737C56.8262 65.8524 56.9753 65.9294 56.2723 65.9143C55.8486 65.9047 55.7884 65.4207 55.9688 65.4035C56.7942 65.3294 56.8883 65.0844 57.2158 64.8015C57.2864 64.7475 57.3747 64.7214 57.4636 64.7283Z" fill="#263238"/>
<path d="M60.5226 39.9148L62.3926 39.3873C62.3926 39.3873 63.7189 40.2376 63.9152 44.1022C63.9941 45.6561 64.4376 46.8555 64.3757 49.8006C64.3576 50.6598 64.5446 51.5136 64.9291 52.2822C65.2714 52.9662 65.683 53.9624 65.9627 55.2134C66.5232 57.7192 67.2157 63.4561 67.2157 63.4561L65.8638 63.687C65.8638 63.687 64.6109 59.4337 62.9624 55.1806C61.3139 50.9273 60.1598 44.4321 60.1598 44.4321L59.7266 39.9152H60.5226V39.9148Z" fill="#263238"/>
<path opacity="0.6" d="M61.2973 44.6295L60.9181 44.7119L60.4895 45.1406L60.3789 45.5785C60.5503 46.4391 60.8167 47.7089 61.1583 49.1266C61.8111 45.5185 61.2973 44.6295 61.2973 44.6295Z" fill="black"/>
<path d="M57.0605 39.75L57.4068 64.033H58.7421C58.7421 64.033 60.1269 58.0489 60.1269 55.675C60.1269 54.2697 60.0345 52.7836 59.9591 51.8049C59.9031 51.0782 59.9951 50.3489 60.2271 49.658C60.6661 48.351 61.3567 46.0994 61.4458 44.6298C61.4458 44.6298 63.1932 44.5639 61.9404 39.7502L57.0605 39.75Z" fill="#263238"/>
<path d="M58.0926 27.464L57.4766 28.0614C57.4766 28.0614 57.669 28.2894 58.0239 28.2501L58.0926 27.464Z" fill="#A24E3F"/>
<path d="M61.4612 27.586C61.2133 28.8034 61.1346 29.325 60.4258 29.8682C59.3879 30.3769 57.9162 30.1151 57.7957 28.8471C57.6868 27.7063 58.1095 25.9114 59.3824 25.5847C60.29 25.3522 61.214 25.8994 61.4464 26.807C61.5117 27.062 61.5167 27.3287 61.4612 27.586Z" fill="#B97964"/>
<path d="M58.3417 26.6875C58.3254 26.6854 58.3111 26.6755 58.3033 26.661C58.2508 26.549 58.1476 26.4691 58.026 26.4462C57.9995 26.4434 57.9801 26.4195 57.9826 26.393C57.986 26.3662 58.01 26.347 58.0369 26.3496C58.1915 26.375 58.3238 26.4747 58.3908 26.6165C58.4031 26.6406 58.3935 26.6701 58.3695 26.6824C58.3609 26.6867 58.3511 26.6885 58.3417 26.6875Z" fill="#263238"/>
<path opacity="0.2" d="M58.5916 29.5126C58.2843 29.5032 58.0622 29.4088 57.9219 29.3234C58.1428 29.7925 58.6105 30.0429 59.1358 30.0994L59.1179 29.8421C59.1179 29.8421 59.1638 29.5301 58.5916 29.5126Z" fill="#606060"/>
<path d="M59.0391 30.9777L59.1482 29.4137C59.1482 29.4137 59.7808 29.183 60.16 29.4137C60.16 29.4137 60.3413 30.5841 60.6875 30.8644L59.0391 30.9777Z" fill="#B97964"/>
<path d="M57.8183 27.1881C57.7957 27.2786 57.8242 27.3642 57.8835 27.3793C57.9429 27.3941 58.0143 27.33 58.0338 27.2413C58.0533 27.1527 58.0279 27.0652 57.9682 27.0511C57.9085 27.037 57.8418 27.0978 57.8183 27.1881Z" fill="#263238"/>
<path d="M58.0178 27.049C58.0178 27.049 57.8184 27.0108 57.7483 26.8376C57.7483 26.8376 57.7306 27.0703 57.9826 27.1538L58.0178 27.049Z" fill="#263238"/>
<path d="M58.216 27.4675C58.1147 27.7003 58.1103 27.9638 58.2039 28.1998C58.3303 28.512 58.6611 28.4651 58.8499 28.2089C59.0211 27.9769 59.1587 27.5366 58.9235 27.3043C58.6882 27.0718 58.3431 27.1843 58.216 27.4675Z" fill="#B97964"/>
<path d="M61.9662 26.6876C61.9662 26.6876 62.6255 26.0588 62.098 25.5972C61.5705 25.1356 62.1722 26.0966 61.9662 26.6876Z" fill="#263238"/>
<path d="M59.2372 25.8385C59.2372 25.8385 58.5365 25.2532 58.2975 25.6983C58.0584 26.1434 58.7013 25.6407 59.2372 25.8385Z" fill="#263238"/>
<path d="M59.1639 27.1897L58.1294 26.8577L58.1362 26.8345C58.1625 26.745 58.1113 26.651 58.0218 26.6247L57.8326 26.569C57.7894 26.5564 57.7436 26.5612 57.7041 26.5828C57.6646 26.6044 57.6356 26.6402 57.623 26.6834L57.4252 27.3556C57.4084 27.4126 57.4148 27.4724 57.4433 27.5246C57.4716 27.5766 57.5186 27.6143 57.5754 27.6311L57.6631 27.657C57.6839 27.6633 57.7049 27.6662 57.7255 27.6662C57.8215 27.6662 57.9102 27.6034 57.9386 27.507L58.1017 26.953L59.1338 27.2842L59.1639 27.1897ZM57.7514 26.6695C57.7679 26.6606 57.7868 26.6586 57.8047 26.6638L57.994 26.7194C58.0311 26.7303 58.0522 26.7694 58.0414 26.8063L58.0351 26.8273L57.7138 26.7242L57.7177 26.7111C57.723 26.6932 57.735 26.6785 57.7514 26.6695ZM57.8434 27.4786C57.8242 27.5439 57.7558 27.5812 57.6908 27.562L57.6031 27.5361C57.5716 27.5268 57.5457 27.5058 57.5298 27.4769C57.5142 27.4481 57.5106 27.415 57.5198 27.3834L57.6858 26.8193L58.0071 26.9223L57.8434 27.4786Z" fill="#263238"/>
<path d="M58.4941 31.4166C58.4941 31.4166 58.658 30.7983 59.726 30.5757C60.794 30.3532 61.2143 31.2026 61.2143 31.2026L58.4941 31.4166Z" fill="#2CA38E"/>
<path opacity="0.5" d="M58.4941 31.4166C58.4941 31.4166 58.658 30.7983 59.726 30.5757C60.794 30.3532 61.2143 31.2026 61.2143 31.2026L58.4941 31.4166Z" fill="white"/>
<path d="M56.9373 39.9106C56.9373 39.9106 61.2772 40.4465 62.662 39.3873C62.662 39.3873 62.26 37.8089 62.393 36.0036C62.526 34.1985 63.0823 32.418 62.4888 31.4412C61.8954 30.4644 57.5061 31.1938 56.6407 32.0841C55.7752 32.9745 56.9373 36.4364 56.9373 39.9106Z" fill="#2CA38E"/>
<path opacity="0.2" d="M57.6168 32.8508L57.2582 33.9209L56.4512 34.9286C56.5451 35.6694 56.6718 36.5027 56.7725 37.3821C57.1355 36.9822 57.4966 36.4581 57.7403 35.7936C58.5236 33.6571 57.9011 32.4677 57.9011 32.4677L57.6168 32.8508Z" fill="black"/>
<path d="M58.4945 28.0454C58.4945 28.0454 57.2086 31.2251 59.3847 31.2014C61.5607 31.1777 62.0785 30.6502 61.4982 30.2215C60.9178 29.7929 62.8239 28.3751 62.11 26.5948C62.11 26.5948 61.8575 25.1771 60.4068 25.1935C60.4068 25.1935 60.0884 24.7292 59.4983 24.6476C58.9434 24.571 58.5548 25.1867 58.8484 25.6636L59.1476 26.1495C59.1476 26.1495 58.0164 26.5123 58.4945 28.0454Z" fill="#263238"/>
<path d="M57.414 31.9111C57.414 31.9111 56.3491 32.1463 56.1398 33.4855C55.9305 34.8247 55.7976 35.8406 55.4073 35.9756C54.9958 36.1182 53.1683 34.5753 53.1683 34.5753L53.2291 33.6763C53.2428 33.4724 53.1316 33.2806 52.9478 33.1913L52.8086 33.1236C52.6324 33.038 52.4225 33.0628 52.2712 33.1871L52.1577 33.2804C52.0147 33.3979 51.9484 33.5841 51.9841 33.7657C52.0548 34.1263 52.204 34.7049 52.4568 34.8875C52.4568 34.8875 55.0516 37.8721 55.8259 37.5622C56.6001 37.2521 57.1844 35.3748 57.5 34.5945C57.7515 33.9727 58.0816 33.2873 57.414 31.9111Z" fill="#B97964"/>
<path d="M57.4817 31.738C57.1916 31.5515 55.9857 31.7751 55.7012 34.5446C55.7012 34.5446 56.6532 35.3483 57.5557 35.2369C57.5557 35.2369 58.7305 32.5417 57.4817 31.738Z" fill="#2CA38E"/>
<path d="M55.6391 34.2788C55.6391 34.2788 56.5725 35.0738 57.741 35.035L57.6055 35.347C57.6055 35.347 56.6159 35.5647 55.5957 34.5881L55.6391 34.2788Z" fill="#2CA38E"/>
<path opacity="0.5" d="M55.6391 34.2788C55.6391 34.2788 56.5725 35.0738 57.741 35.035L57.6055 35.347C57.6055 35.347 56.6159 35.5647 55.5957 34.5881L55.6391 34.2788Z" fill="white"/>
<path d="M65.6309 63.3663L65.7579 63.8635L67.3413 63.5615L67.2862 63.0692L65.6309 63.3663Z" fill="#2CA38E"/>
<path d="M57.2422 63.7145L57.2607 64.209H58.899L58.9979 63.7145H57.2422Z" fill="#2CA38E"/>
</svg>
