<svg width="80" height="80" viewBox="0 0 80 80" fill="none" xmlns="http://www.w3.org/2000/svg">
<path d="M28.7294 41.8233V45.5638H32.4892V44.3228H29.9772V41.8233H28.7294ZM47.7824 44.3228H45.2704V45.5638H49.0302V41.8233H47.7824V44.3228ZM32.4892 25.3676H28.7294V29.1081H29.9772V26.6086H32.4892V25.3676ZM49.0302 25.3676H45.2704V26.6086H47.7824V29.1081H49.0302V25.3676ZM56.2433 30.6656L56.068 30.6468L56.1712 31.2561L56.4094 32.6647C56.5932 32.6334 56.7875 32.6785 56.9305 32.8186C57.1656 33.0513 57.1667 33.4291 56.9335 33.6642L52.486 38.1228C51.9087 38.697 51.5917 39.4589 51.5919 40.2695C51.5919 41.0789 51.909 41.8408 52.4845 42.4125C53.673 43.5947 55.6065 43.5947 56.7948 42.4125L60.8869 38.3417C62.1047 36.8305 62.0761 33.7568 60.8283 32.2043C59.6282 31.0234 58.4219 30.8958 56.2433 30.6656ZM59.6116 41.2991L57.6438 43.2569C56.8418 44.055 55.7749 44.4954 54.6399 44.4954C54.3858 44.4954 54.1358 44.4704 53.8906 44.4266L51.9464 46.1792C50.7515 47.2676 50.6694 49.1241 51.7656 50.315C52.2968 50.893 53.0219 51.2295 53.8077 51.2633C54.5897 51.2971 55.3454 51.0256 55.9256 50.4977L60.6609 46.2305C61.8563 45.1409 61.938 43.2844 60.8417 42.0935C60.4942 41.7157 60.0684 41.4517 59.6116 41.2991ZM59.7851 48.6312L56.7337 51.3809C55.9416 52.1027 54.9394 52.4593 53.9399 52.4593C53.5993 52.4593 53.2602 52.413 52.9287 52.3304L51.5212 53.4976C50.9366 53.9817 50.5769 54.6635 50.5079 55.4179C50.439 56.1722 50.6694 56.9066 51.1564 57.4883C51.6433 58.07 52.3289 58.4278 53.0866 58.4966C53.8422 58.5654 54.5832 58.3352 55.1676 57.8511L60.5205 53.4138C61.1049 52.9296 61.4647 52.2466 61.5337 51.4935C61.6021 50.7391 61.3719 50.0048 60.8851 49.4231C60.5852 49.0653 60.2054 48.8051 59.7851 48.6312ZM52.9778 59.6863C52.5916 59.6512 52.2194 59.5612 51.8678 59.4248C51.5965 59.5412 51.2982 59.6062 50.9842 59.6062H26.7753C25.5381 59.6062 24.5351 58.6079 24.5351 57.3769V13.3193C24.5351 12.0883 25.5381 11.09 26.7753 11.09H50.9842C52.2214 11.09 53.2245 12.0883 53.2245 13.3193V35.6859L54.97 33.9357V12.7863C54.97 10.1467 52.8119 8 50.159 8H27.6005C24.9479 8 22.7897 10.1467 22.7897 12.7863V59.9177C22.7897 62.5561 24.9479 64.704 27.6005 64.704H50.159C52.8119 64.704 54.97 62.5561 54.97 59.9177V59.3623C54.4625 59.5849 53.9141 59.7025 53.3514 59.7025C53.2273 59.7025 53.1029 59.6975 52.9778 59.6863ZM62.0015 23.0207C61.6425 22.2952 61.0201 21.751 60.2499 21.4895C59.9275 21.3794 59.5951 21.3256 59.2641 21.3256C58.8042 21.3256 58.3467 21.4307 57.9217 21.6384L56.1712 22.4941V29.252L60.6115 27.0802C61.342 26.7225 61.8892 26.1032 62.1518 25.3376C62.4144 24.5707 62.3612 23.7488 62.0015 23.0207ZM27.6005 65.8987H49.9666C48.7123 69.9082 46.53 72.2325 43.8798 74.1829C43.4402 74.5056 43.1242 74.9685 42.9617 75.4876L41.5497 80H14.2992L17.1347 70.7551C17.4048 69.8744 17.367 68.9349 17.0327 68.078C14.5658 61.7429 12.4477 52.0226 13.1293 46.8072C13.8817 41.0489 15.468 29.3633 15.6145 27.5456C15.6145 27.5456 15.9518 25.5865 18.4835 25.5865C19.6963 25.5865 20.5623 26.1983 21.1528 26.8876C21.3168 27.079 21.458 27.2854 21.5886 27.4981V59.9177C21.5886 63.2153 24.2856 65.8987 27.6005 65.8987Z" fill="#045DD0"/>
</svg>
